  0
SECTION
  2
HEADER
  9
$ACADVER
  1
AC1024
  9
$ACADMAINTVER
 70
6
  9
$DWGCODEPAGE
  3
ANSI_1252
  9
$LASTSAVEDBY
  1
ezdxf
  9
$INSBASE
 10
0.0
 20
0.0
 30
0.0
  9
$EXTMIN
 10
1e+20
 20
1e+20
 30
1e+20
  9
$EXTMAX
 10
-1e+20
 20
-1e+20
 30
-1e+20
  9
$LIMMIN
 10
0.0
 20
0.0
  9
$LIMMAX
 10
420.0
 20
297.0
  9
$ORTHOMODE
 70
0
  9
$REGENMODE
 70
1
  9
$FILLMODE
 70
1
  9
$QTEXTMODE
 70
0
  9
$MIRRTEXT
 70
1
  9
$LTSCALE
 40
1.0
  9
$ATTMODE
 70
1
  9
$TEXTSIZE
 40
2.5
  9
$TRACEWID
 40
1.0
  9
$TEXTSTYLE
  7
Standard
  9
$CLAYER
  8
0
  9
$CELTYPE
  6
ByLayer
  9
$CECOLOR
 62
256
  9
$CELTSCALE
 40
1.0
  9
$DISPSILH
 70
0
  9
$DIMSCALE
 40
1.0
  9
$DIMASZ
 40
2.5
  9
$DIMEXO
 40
0.625
  9
$DIMDLI
 40
3.75
  9
$DIMRND
 40
0.0
  9
$DIMDLE
 40
0.0
  9
$DIMEXE
 40
1.25
  9
$DIMTP
 40
0.0
  9
$DIMTM
 40
0.0
  9
$DIMTXT
 40
2.5
  9
$DIMCEN
 40
2.5
  9
$DIMTSZ
 40
0.0
  9
$DIMTOL
 70
0
  9
$DIMLIM
 70
0
  9
$DIMTIH
 70
0
  9
$DIMTOH
 70
0
  9
$DIMSE1
 70
0
  9
$DIMSE2
 70
0
  9
$DIMTAD
 70
1
  9
$DIMZIN
 70
8
  9
$DIMBLK
  1

  9
$DIMASO
 70
1
  9
$DIMSHO
 70
1
  9
$DIMPOST
  1

  9
$DIMAPOST
  1

  9
$DIMALT
 70
0
  9
$DIMALTD
 70
3
  9
$DIMALTF
 40
0.03937007874
  9
$DIMLFAC
 40
1.0
  9
$DIMTOFL
 70
1
  9
$DIMTVP
 40
0.0
  9
$DIMTIX
 70
0
  9
$DIMSOXD
 70
0
  9
$DIMSAH
 70
0
  9
$DIMBLK1
  1

  9
$DIMBLK2
  1

  9
$DIMSTYLE
  2
ISO-25
  9
$DIMCLRD
 70
0
  9
$DIMCLRE
 70
0
  9
$DIMCLRT
 70
0
  9
$DIMTFAC
 40
1.0
  9
$DIMGAP
 40
0.625
  9
$DIMJUST
 70
0
  9
$DIMSD1
 70
0
  9
$DIMSD2
 70
0
  9
$DIMTOLJ
 70
0
  9
$DIMTZIN
 70
8
  9
$DIMALTZ
 70
0
  9
$DIMALTTZ
 70
0
  9
$DIMUPT
 70
0
  9
$DIMDEC
 70
2
  9
$DIMTDEC
 70
2
  9
$DIMALTU
 70
2
  9
$DIMALTTD
 70
3
  9
$DIMTXSTY
  7
Standard
  9
$DIMAUNIT
 70
0
  9
$DIMADEC
 70
0
  9
$DIMALTRND
 40
0.0
  9
$DIMAZIN
 70
0
  9
$DIMDSEP
 70
44
  9
$DIMATFIT
 70
3
  9
$DIMFRAC
 70
0
  9
$DIMLDRBLK
  1

  9
$DIMLUNIT
 70
2
  9
$DIMLWD
 70
-2
  9
$DIMLWE
 70
-2
  9
$DIMTMOVE
 70
0
  9
$DIMFXL
 40
1.0
  9
$DIMFXLON
 70
0
  9
$DIMJOGANG
 40
0.785398163397
  9
$DIMTFILL
 70
0
  9
$DIMTFILLCLR
 70
0
  9
$DIMARCSYM
 70
0
  9
$DIMLTYPE
  6

  9
$DIMLTEX1
  6

  9
$DIMLTEX2
  6

  9
$DIMTXTDIRECTION
 70
0
  9
$LUNITS
 70
2
  9
$LUPREC
 70
4
  9
$SKETCHINC
 40
1.0
  9
$FILLETRAD
 40
10.0
  9
$AUNITS
 70
0
  9
$AUPREC
 70
2
  9
$MENU
  1
.
  9
$ELEVATION
 40
0.0
  9
$PELEVATION
 40
0.0
  9
$THICKNESS
 40
0.0
  9
$LIMCHECK
 70
0
  9
$CHAMFERA
 40
0.0
  9
$CHAMFERB
 40
0.0
  9
$CHAMFERC
 40
0.0
  9
$CHAMFERD
 40
0.0
  9
$SKPOLY
 70
0
  9
$TDCREATE
 40
2460555.6357407407
  9
$TDUCREATE
 40
2458532.153996898
  9
$TDUPDATE
 40
2460555.635787037
  9
$TDUUPDATE
 40
2458532.1544311
  9
$TDINDWG
 40
0.0
  9
$TDUSRTIMER
 40
0.0
  9
$USRTIMER
 70
1
  9
$ANGBASE
 50
0.0
  9
$ANGDIR
 70
0
  9
$PDMODE
 70
0
  9
$PDSIZE
 40
0.0
  9
$PLINEWID
 40
0.0
  9
$SPLFRAME
 70
0
  9
$SPLINETYPE
 70
6
  9
$SPLINESEGS
 70
8
  9
$HANDSEED
  5
2DD
  9
$SURFTAB1
 70
6
  9
$SURFTAB2
 70
6
  9
$SURFTYPE
 70
6
  9
$SURFU
 70
6
  9
$SURFV
 70
6
  9
$UCSBASE
  2

  9
$UCSNAME
  2

  9
$UCSORG
 10
0.0
 20
0.0
 30
0.0
  9
$UCSXDIR
 10
1.0
 20
0.0
 30
0.0
  9
$UCSYDIR
 10
0.0
 20
1.0
 30
0.0
  9
$UCSORTHOREF
  2

  9
$UCSORTHOVIEW
 70
0
  9
$UCSORGTOP
 10
0.0
 20
0.0
 30
0.0
  9
$UCSORGBOTTOM
 10
0.0
 20
0.0
 30
0.0
  9
$UCSORGLEFT
 10
0.0
 20
0.0
 30
0.0
  9
$UCSORGRIGHT
 10
0.0
 20
0.0
 30
0.0
  9
$UCSORGFRONT
 10
0.0
 20
0.0
 30
0.0
  9
$UCSORGBACK
 10
0.0
 20
0.0
 30
0.0
  9
$PUCSBASE
  2

  9
$PUCSNAME
  2

  9
$PUCSORG
 10
0.0
 20
0.0
 30
0.0
  9
$PUCSXDIR
 10
1.0
 20
0.0
 30
0.0
  9
$PUCSYDIR
 10
0.0
 20
1.0
 30
0.0
  9
$PUCSORTHOREF
  2

  9
$PUCSORTHOVIEW
 70
0
  9
$PUCSORGTOP
 10
0.0
 20
0.0
 30
0.0
  9
$PUCSORGBOTTOM
 10
0.0
 20
0.0
 30
0.0
  9
$PUCSORGLEFT
 10
0.0
 20
0.0
 30
0.0
  9
$PUCSORGRIGHT
 10
0.0
 20
0.0
 30
0.0
  9
$PUCSORGFRONT
 10
0.0
 20
0.0
 30
0.0
  9
$PUCSORGBACK
 10
0.0
 20
0.0
 30
0.0
  9
$USERI1
 70
0
  9
$USERI2
 70
0
  9
$USERI3
 70
0
  9
$USERI4
 70
0
  9
$USERI5
 70
0
  9
$USERR1
 40
0.0
  9
$USERR2
 40
0.0
  9
$USERR3
 40
0.0
  9
$USERR4
 40
0.0
  9
$USERR5
 40
0.0
  9
$WORLDVIEW
 70
1
  9
$SHADEDGE
 70
3
  9
$SHADEDIF
 70
70
  9
$TILEMODE
 70
1
  9
$MAXACTVP
 70
64
  9
$PINSBASE
 10
0.0
 20
0.0
 30
0.0
  9
$PLIMCHECK
 70
0
  9
$PEXTMIN
 10
1e+20
 20
1e+20
 30
1e+20
  9
$PEXTMAX
 10
-1e+20
 20
-1e+20
 30
-1e+20
  9
$PLIMMIN
 10
0.0
 20
0.0
  9
$PLIMMAX
 10
420.0
 20
297.0
  9
$UNITMODE
 70
0
  9
$VISRETAIN
 70
1
  9
$PLINEGEN
 70
0
  9
$PSLTSCALE
 70
1
  9
$TREEDEPTH
 70
3020
  9
$CMLSTYLE
  2
Standard
  9
$CMLJUST
 70
0
  9
$CMLSCALE
 40
20.0
  9
$PROXYGRAPHICS
 70
1
  9
$MEASUREMENT
 70
1
  9
$CELWEIGHT
370
-1
  9
$ENDCAPS
280
0
  9
$JOINSTYLE
280
0
  9
$LWDISPLAY
290
0
  9
$INSUNITS
 70
6
  9
$HYPERLINKBASE
  1

  9
$STYLESHEET
  1

  9
$XEDIT
290
1
  9
$CEPSNTYPE
380
0
  9
$PSTYLEMODE
290
1
  9
$FINGERPRINTGUID
  2
{6BC959AF-9168-4038-BBD8-EAD0B74FAD25}
  9
$VERSIONGUID
  2
{546E133A-BFEE-4DDD-B500-63C2C20D7360}
  9
$EXTNAMES
290
1
  9
$PSVPSCALE
 40
0.0
  9
$OLESTARTUP
290
0
  9
$SORTENTS
280
127
  9
$INDEXCTL
280
0
  9
$HIDETEXT
280
1
  9
$XCLIPFRAME
280
1
  9
$HALOGAP
280
0
  9
$OBSCOLOR
 70
257
  9
$OBSLTYPE
280
0
  9
$INTERSECTIONDISPLAY
280
0
  9
$INTERSECTIONCOLOR
 70
257
  9
$DIMASSOC
280
2
  9
$PROJECTNAME
  1

  9
$CAMERADISPLAY
290
0
  9
$LENSLENGTH
 40
50.0
  9
$CAMERAHEIGHT
 40
0.0
  9
$STEPSPERSEC
 40
24.0
  9
$STEPSIZE
 40
100.0
  9
$3DDWFPREC
 40
2.0
  9
$PSOLWIDTH
 40
0.005
  9
$PSOLHEIGHT
 40
0.08
  9
$LOFTANG1
 40
1.570796326795
  9
$LOFTANG2
 40
1.570796326795
  9
$LOFTMAG1
 40
0.0
  9
$LOFTMAG2
 40
0.0
  9
$LOFTPARAM
 70
7
  9
$LOFTNORMALS
280
1
  9
$LATITUDE
 40
37.795
  9
$LONGITUDE
 40
-122.394
  9
$NORTHDIRECTION
 40
0.0
  9
$TIMEZONE
 70
-8000
  9
$LIGHTGLYPHDISPLAY
280
1
  9
$TILEMODELIGHTSYNCH
280
1
  9
$CMATERIAL
347
20
  9
$SOLIDHIST
280
0
  9
$SHOWHIST
280
1
  9
$DWFFRAME
280
2
  9
$DGNFRAME
280
2
  9
$REALWORLDSCALE
290
1
  9
$INTERFERECOLOR
 62
256
  9
$CSHADOW
280
0
  9
$SHADOWPLANELOCATION
 40
0.0
  0
ENDSEC
  0
SECTION
  2
CLASSES
  0
CLASS
  1
ACDBDICTIONARYWDFLT
  2
AcDbDictionaryWithDefault
  3
ObjectDBX Classes
 90
0
 91
0
280
0
281
0
  0
CLASS
  1
SUN
  2
AcDbSun
  3
SCENEOE
 90
1153
 91
0
280
0
281
0
  0
CLASS
  1
VISUALSTYLE
  2
AcDbVisualStyle
  3
ObjectDBX Classes
 90
4095
 91
0
280
0
281
0
  0
CLASS
  1
MATERIAL
  2
AcDbMaterial
  3
ObjectDBX Classes
 90
1153
 91
0
280
0
281
0
  0
CLASS
  1
SCALE
  2
AcDbScale
  3
ObjectDBX Classes
 90
1153
 91
0
280
0
281
0
  0
CLASS
  1
TABLESTYLE
  2
AcDbTableStyle
  3
ObjectDBX Classes
 90
4095
 91
0
280
0
281
0
  0
CLASS
  1
MLEADERSTYLE
  2
AcDbMLeaderStyle
  3
ACDB_MLEADERSTYLE_CLASS
 90
4095
 91
0
280
0
281
0
  0
CLASS
  1
DICTIONARYVAR
  2
AcDbDictionaryVar
  3
ObjectDBX Classes
 90
0
 91
0
280
0
281
0
  0
CLASS
  1
CELLSTYLEMAP
  2
AcDbCellStyleMap
  3
ObjectDBX Classes
 90
1152
 91
0
280
0
281
0
  0
CLASS
  1
MENTALRAYRENDERSETTINGS
  2
AcDbMentalRayRenderSettings
  3
SCENEOE
 90
1024
 91
0
280
0
281
0
  0
CLASS
  1
ACDBDETAILVIEWSTYLE
  2
AcDbDetailViewStyle
  3
ObjectDBX Classes
 90
1025
 91
0
280
0
281
0
  0
CLASS
  1
ACDBSECTIONVIEWSTYLE
  2
AcDbSectionViewStyle
  3
ObjectDBX Classes
 90
1025
 91
0
280
0
281
0
  0
CLASS
  1
RASTERVARIABLES
  2
AcDbRasterVariables
  3
ISM
 90
0
 91
0
280
0
281
0
  0
CLASS
  1
LAYOUT
  2
AcDbLayout
  3
ObjectDBX Classes
 90
0
 91
0
280
0
281
0
  0
CLASS
  1
ACDBPLACEHOLDER
  2
AcDbPlaceHolder
  3
ObjectDBX Classes
 90
0
 91
0
280
0
281
0
  0
ENDSEC
  0
SECTION
  2
TABLES
  0
TABLE
  2
VPORT
  5
8
330
0
100
AcDbSymbolTable
 70
1
  0
VPORT
  5
23
330
8
100
AcDbSymbolTableRecord
100
AcDbViewportTableRecord
  2
*Active
 70
0
 10
0.0
 20
0.0
 11
1.0
 21
1.0
 12
0.0
 22
0.0
 13
0.0
 23
0.0
 14
0.5
 24
0.5
 15
0.5
 25
0.5
 16
0.0
 26
0.0
 36
1.0
 17
0.0
 27
0.0
 37
0.0
 40
1000.0
 41
1.34
 42
50.0
 43
0.0
 44
0.0
 50
0.0
 51
0.0
 71
0
 72
1000
 73
1
 74
3
 75
0
 76
0
 77
0
 78
0
281
0
 65
0
146
0.0
  0
ENDTAB
  0
TABLE
  2
LTYPE
  5
2
330
0
100
AcDbSymbolTable
 70
3
  0
LTYPE
  5
24
330
2
100
AcDbSymbolTableRecord
100
AcDbLinetypeTableRecord
  2
ByBlock
 70
0
  3

 72
65
 73
0
 40
0.0
  0
LTYPE
  5
25
330
2
100
AcDbSymbolTableRecord
100
AcDbLinetypeTableRecord
  2
ByLayer
 70
0
  3

 72
65
 73
0
 40
0.0
  0
LTYPE
  5
26
330
2
100
AcDbSymbolTableRecord
100
AcDbLinetypeTableRecord
  2
Continuous
 70
0
  3

 72
65
 73
0
 40
0.0
  0
ENDTAB
  0
TABLE
  2
LAYER
  5
1
330
0
100
AcDbSymbolTable
 70
4
  0
LAYER
  5
27
330
1
100
AcDbSymbolTableRecord
100
AcDbLayerTableRecord
  2
0
 70
0
 62
7
  6
Continuous
370
-3
390
13
347
21
  0
LAYER
  5
28
330
1
100
AcDbSymbolTableRecord
100
AcDbLayerTableRecord
  2
Defpoints
 70
0
 62
7
  6
Continuous
290
0
370
-3
390
13
347
21
  0
LAYER
  5
2F
330
1
100
AcDbSymbolTableRecord
100
AcDbLayerTableRecord
  2
Polygons
 70
0
 62
1
  6
Continuous
370
-3
390
13
347
21
  0
LAYER
  5
30
330
1
100
AcDbSymbolTableRecord
100
AcDbLayerTableRecord
  2
supply_air_layer
 70
0
 62
5
  6
Continuous
370
-3
390
13
347
21
  0
ENDTAB
  0
TABLE
  2
STYLE
  5
5
330
0
100
AcDbSymbolTable
 70
1
  0
STYLE
  5
29
330
5
100
AcDbSymbolTableRecord
100
AcDbTextStyleTableRecord
  2
Standard
 70
0
 40
0.0
 41
1.0
 50
0.0
 71
0
 42
2.5
  3
txt
  4

  0
ENDTAB
  0
TABLE
  2
VIEW
  5
7
330
0
100
AcDbSymbolTable
 70
0
  0
ENDTAB
  0
TABLE
  2
UCS
  5
6
330
0
100
AcDbSymbolTable
 70
0
  0
ENDTAB
  0
TABLE
  2
APPID
  5
3
330
0
100
AcDbSymbolTable
 70
3
  0
APPID
  5
2A
330
3
100
AcDbSymbolTableRecord
100
AcDbRegAppTableRecord
  2
ACAD
 70
0
  0
APPID
  5
2DA
330
3
100
AcDbSymbolTableRecord
100
AcDbRegAppTableRecord
  2
HATCHBACKGROUNDCOLOR
 70
0
  0
APPID
  5
2DB
330
3
100
AcDbSymbolTableRecord
100
AcDbRegAppTableRecord
  2
EZDXF
 70
0
  0
ENDTAB
  0
TABLE
  2
DIMSTYLE
  5
4
330
0
100
AcDbSymbolTable
 70
1
100
AcDbDimStyleTable
  0
DIMSTYLE
105
2B
330
4
100
AcDbSymbolTableRecord
100
AcDbDimStyleTableRecord
  2
Standard
 70
0
 40
1.0
 41
2.5
 42
0.625
 43
3.75
 44
1.25
 45
0.0
 46
0.0
 47
0.0
 48
0.0
 49
2.5
140
2.5
141
2.5
142
0.0
143
0.03937007874
144
1.0
145
0.0
146
1.0
147
0.625
148
0.0
 69
0
 70
0
 71
0
 72
0
 73
0
 74
0
 75
0
 76
0
 77
1
 78
8
 79
3
170
0
171
3
172
1
173
0
174
0
175
0
176
0
177
0
178
0
179
2
271
2
272
2
273
2
274
3
275
0
276
0
277
2
278
44
279
0
280
0
281
0
282
0
283
0
284
8
285
0
286
0
288
0
289
3
290
0
371
-2
372
-2
  0
ENDTAB
  0
TABLE
  2
BLOCK_RECORD
  5
9
330
0
100
AcDbSymbolTable
 70
3
  0
BLOCK_RECORD
  5
17
330
9
100
AcDbSymbolTableRecord
100
AcDbBlockTableRecord
  2
*Model_Space
340
1A
 70
0
280
1
281
0
  0
BLOCK_RECORD
  5
1B
330
9
100
AcDbSymbolTableRecord
100
AcDbBlockTableRecord
  2
*Paper_Space
340
1E
 70
0
280
1
281
0
  0
BLOCK_RECORD
  5
31
330
9
100
AcDbSymbolTableRecord
100
AcDbBlockTableRecord
  2
supply_air_unit
340
0
 70
0
280
1
281
0
  0
ENDTAB
  0
ENDSEC
  0
SECTION
  2
BLOCKS
  0
BLOCK
  5
18
330
17
100
AcDbEntity
  8
0
100
AcDbBlockBegin
  2
*Model_Space
 70
0
 10
0.0
 20
0.0
 30
0.0
  3
*Model_Space
  1

  0
ENDBLK
  5
19
330
17
100
AcDbEntity
  8
0
100
AcDbBlockEnd
  0
BLOCK
  5
1C
330
1B
100
AcDbEntity
  8
0
100
AcDbBlockBegin
  2
*Paper_Space
 70
0
 10
0.0
 20
0.0
 30
0.0
  3
*Paper_Space
  1

  0
ENDBLK
  5
1D
330
1B
100
AcDbEntity
  8
0
100
AcDbBlockEnd
  0
BLOCK
  5
32
330
31
100
AcDbEntity
  8
0
100
AcDbBlockBegin
  2
supply_air_unit
 70
0
 10
0.0
 20
0.0
 30
0.0
  3
supply_air_unit
  1

  0
LWPOLYLINE
  5
34
330
31
100
AcDbEntity
  8
supply_air_layer
100
AcDbPolyline
 90
5
 70
0
 10
0.0
 20
0.0
 10
10.0
 20
0.0
 10
10.0
 20
5.0
 10
0.0
 20
5.0
 10
0.0
 20
0.0
  0
LINE
  5
35
330
31
100
AcDbEntity
  8
supply_air_layer
100
AcDbLine
 10
3.3333333333333335
 20
0.0
 30
0.0
 11
3.3333333333333335
 21
5.0
 31
0.0
  0
LINE
  5
36
330
31
100
AcDbEntity
  8
supply_air_layer
100
AcDbLine
 10
6.666666666666667
 20
0.0
 30
0.0
 11
6.666666666666667
 21
5.0
 31
0.0
  0
CIRCLE
  5
37
330
31
100
AcDbEntity
  8
supply_air_layer
100
AcDbCircle
 10
1.6666666666666667
 20
2.5
 30
0.0
 40
1.25
  0
LINE
  5
38
330
31
100
AcDbEntity
  8
supply_air_layer
100
AcDbLine
 10
0.8333333333333334
 20
2.5
 30
0.0
 11
2.5
 21
2.5
 31
0.0
  0
TEXT
  5
39
330
31
100
AcDbEntity
  8
supply_air_layer
100
AcDbText
 10
5.0
 20
2.5
 30
0.0
 40
2.5
  1
+
 72
1
 11
5.0
 21
2.5
 31
0.0
100
AcDbText
  0
TEXT
  5
3A
330
31
100
AcDbEntity
  8
supply_air_layer
100
AcDbText
 10
5.0
 20
1.6666666666666667
 30
0.0
 40
2.5
  1
-
 72
1
 11
5.0
 21
1.6666666666666667
 31
0.0
100
AcDbText
  0
POLYLINE
  5
3B
330
31
100
AcDbEntity
  8
supply_air_layer
100
AcDb2dPolyline
 66
1
 10
0.0
 20
0.0
 30
0.0
 70
0
  0
VERTEX
  5
3D
330
31
100
AcDbEntity
  8
supply_air_layer
100
AcDbVertex
100
AcDb2dVertex
 10
7.5
 20
1.25
 30
0.0
 70
0
  0
VERTEX
  5
3E
330
31
100
AcDbEntity
  8
supply_air_layer
100
AcDbVertex
100
AcDb2dVertex
 10
9.166666666666668
 20
1.25
 30
0.0
 70
0
  0
VERTEX
  5
3F
330
31
100
AcDbEntity
  8
supply_air_layer
100
AcDbVertex
100
AcDb2dVertex
 10
9.166666666666668
 20
3.75
 30
0.0
 70
0
  0
VERTEX
  5
40
330
31
100
AcDbEntity
  8
supply_air_layer
100
AcDbVertex
100
AcDb2dVertex
 10
7.5
 20
3.75
 30
0.0
 70
0
  0
VERTEX
  5
41
330
31
100
AcDbEntity
  8
supply_air_layer
100
AcDbVertex
100
AcDb2dVertex
 10
7.5
 20
1.25
 30
0.0
 70
0
  0
SEQEND
  5
3C
330
3B
100
AcDbEntity
  8
supply_air_layer
  0
ENDBLK
  5
33
330
31
100
AcDbEntity
  8
0
100
AcDbBlockEnd
  0
ENDSEC
  0
SECTION
  2
ENTITIES
  0
LWPOLYLINE
  5
42
330
17
100
AcDbEntity
  8
Polygons
 62
6
100
AcDbPolyline
 90
5
 70
0
 10
0.0
 20
0.0
 10
0.0
 20
50.0
 10
50.0
 20
50.0
 10
50.0
 20
0.0
 10
0.0
 20
0.0
  0
MTEXT
  5
43
330
17
100
AcDbEntity
  8
TEXTLAYER
100
AcDbMText
 10
5.0
 20
45.0
 30
0.0
 40
2.5
 71
1
  1
\PНомер пом: 9\P Класс чистоты: 6ИСО\P Объем помещения: 130 м3
  7
ISOCPEUR
  0
LWPOLYLINE
  5
44
330
17
100
AcDbEntity
  8
Polygons
 62
211
100
AcDbPolyline
 90
5
 70
0
 10
50.0
 20
0.0
 10
50.0
 20
50.0
 10
100.0
 20
50.0
 10
100.0
 20
0.0
 10
50.0
 20
0.0
  0
MTEXT
  5
45
330
17
100
AcDbEntity
  8
TEXTLAYER
100
AcDbMText
 10
55.0
 20
45.0
 30
0.0
 40
2.5
 71
1
  1
\PНомер пом: 10\P Класс чистоты: 6ИСО\P Объем помещения: 33 м3
  7
ISOCPEUR
  0
LWPOLYLINE
  5
46
330
17
100
AcDbEntity
  8
Polygons
 62
1
100
AcDbPolyline
 90
5
 70
0
 10
100.0
 20
0.0
 10
100.0
 20
50.0
 10
150.0
 20
50.0
 10
150.0
 20
0.0
 10
100.0
 20
0.0
  0
MTEXT
  5
47
330
17
100
AcDbEntity
  8
TEXTLAYER
100
AcDbMText
 10
105.0
 20
45.0
 30
0.0
 40
2.5
 71
1
  1
\PНомер пом: 13\P Класс чистоты: 7ИСО\P Объем помещения: 190 м3
  7
ISOCPEUR
  0
LWPOLYLINE
  5
48
330
17
100
AcDbEntity
  8
Polygons
 62
1
100
AcDbPolyline
 90
5
 70
0
 10
150.0
 20
0.0
 10
150.0
 20
50.0
 10
200.0
 20
50.0
 10
200.0
 20
0.0
 10
150.0
 20
0.0
  0
MTEXT
  5
49
330
17
100
AcDbEntity
  8
TEXTLAYER
100
AcDbMText
 10
155.0
 20
45.0
 30
0.0
 40
2.5
 71
1
  1
\PНомер пом: 11\PНет\P Объем помещения: 21 м3
  7
ISOCPEUR
  0
LWPOLYLINE
  5
4A
330
17
100
AcDbEntity
  8
Polygons
 62
176
100
AcDbPolyline
 90
5
 70
0
 10
200.0
 20
0.0
 10
200.0
 20
50.0
 10
250.0
 20
50.0
 10
250.0
 20
0.0
 10
200.0
 20
0.0
  0
MTEXT
  5
4B
330
17
100
AcDbEntity
  8
TEXTLAYER
100
AcDbMText
 10
205.0
 20
45.0
 30
0.0
 40
2.5
 71
1
  1
\PНомер пом: 14\P Класс чистоты: 7ИСО\P Объем помещения: 42 м3
  7
ISOCPEUR
  0
LWPOLYLINE
  5
4C
330
17
100
AcDbEntity
  8
Polygons
 62
142
100
AcDbPolyline
 90
5
 70
0
 10
250.0
 20
0.0
 10
250.0
 20
50.0
 10
300.0
 20
50.0
 10
300.0
 20
0.0
 10
250.0
 20
0.0
  0
MTEXT
  5
4D
330
17
100
AcDbEntity
  8
TEXTLAYER
100
AcDbMText
 10
255.0
 20
45.0
 30
0.0
 40
2.5
 71
1
  1
\PНомер пом: 12\P Класс чистоты: 6ИСО\P Объем помещения: 110 м3
  7
ISOCPEUR
  0
LWPOLYLINE
  5
4E
330
17
100
AcDbEntity
  8
Polygons
 62
180
100
AcDbPolyline
 90
5
 70
0
 10
300.0
 20
0.0
 10
300.0
 20
50.0
 10
350.0
 20
50.0
 10
350.0
 20
0.0
 10
300.0
 20
0.0
  0
MTEXT
  5
4F
330
17
100
AcDbEntity
  8
TEXTLAYER
100
AcDbMText
 10
305.0
 20
45.0
 30
0.0
 40
2.5
 71
1
  1
\PНомер пом: 17\P Класс чистоты: 6ИСО\P Объем помещения: 31 м3
  7
ISOCPEUR
  0
LWPOLYLINE
  5
50
330
17
100
AcDbEntity
  8
Polygons
 62
5
100
AcDbPolyline
 90
5
 70
0
 10
350.0
 20
0.0
 10
350.0
 20
50.0
 10
400.0
 20
50.0
 10
400.0
 20
0.0
 10
350.0
 20
0.0
  0
MTEXT
  5
51
330
17
100
AcDbEntity
  8
TEXTLAYER
100
AcDbMText
 10
355.0
 20
45.0
 30
0.0
 40
2.5
 71
1
  1
\PНомер пом: 17\P Класс чистоты: 6ИСО\P Объем помещения: 31 м3
  7
ISOCPEUR
  0
LWPOLYLINE
  5
52
330
17
100
AcDbEntity
  8
Polygons
 62
7
100
AcDbPolyline
 90
5
 70
0
 10
400.0
 20
0.0
 10
400.0
 20
50.0
 10
450.0
 20
50.0
 10
450.0
 20
0.0
 10
400.0
 20
0.0
  0
MTEXT
  5
53
330
17
100
AcDbEntity
  8
TEXTLAYER
100
AcDbMText
 10
405.0
 20
45.0
 30
0.0
 40
2.5
 71
1
  1
\PНомер пом: 19\P Класс чистоты: 6ИСО\P Объем помещения: 110 м3
  7
ISOCPEUR
  0
LWPOLYLINE
  5
54
330
17
100
AcDbEntity
  8
Polygons
 62
1
100
AcDbPolyline
 90
5
 70
0
 10
450.0
 20
0.0
 10
450.0
 20
50.0
 10
500.0
 20
50.0
 10
500.0
 20
0.0
 10
450.0
 20
0.0
  0
MTEXT
  5
55
330
17
100
AcDbEntity
  8
TEXTLAYER
100
AcDbMText
 10
455.0
 20
45.0
 30
0.0
 40
2.5
 71
1
  1
\PНомер пом: 20\P Класс чистоты: 6ИСО\P Объем помещения: 40 м3
  7
ISOCPEUR
  0
LWPOLYLINE
  5
56
330
17
100
AcDbEntity
  8
Polygons
 62
210
100
AcDbPolyline
 90
5
 70
0
 10
500.0
 20
0.0
 10
500.0
 20
50.0
 10
550.0
 20
50.0
 10
550.0
 20
0.0
 10
500.0
 20
0.0
  0
MTEXT
  5
57
330
17
100
AcDbEntity
  8
TEXTLAYER
100
AcDbMText
 10
505.0
 20
45.0
 30
0.0
 40
2.5
 71
1
  1
\PНомер пом: 21\P Класс чистоты: 6ИСО\P Объем помещения: 141 м3
  7
ISOCPEUR
  0
LWPOLYLINE
  5
58
330
17
100
AcDbEntity
  8
Polygons
 62
139
100
AcDbPolyline
 90
5
 70
0
 10
550.0
 20
0.0
 10
550.0
 20
50.0
 10
600.0
 20
50.0
 10
600.0
 20
0.0
 10
550.0
 20
0.0
  0
MTEXT
  5
59
330
17
100
AcDbEntity
  8
TEXTLAYER
100
AcDbMText
 10
555.0
 20
45.0
 30
0.0
 40
2.5
 71
1
  1
\PНомер пом: 24\P Класс чистоты: 7ИСО\P Объем помещения: 40 м3
  7
ISOCPEUR
  0
LWPOLYLINE
  5
5A
330
17
100
AcDbEntity
  8
Polygons
 62
3
100
AcDbPolyline
 90
5
 70
0
 10
600.0
 20
0.0
 10
600.0
 20
50.0
 10
650.0
 20
50.0
 10
650.0
 20
0.0
 10
600.0
 20
0.0
  0
MTEXT
  5
5B
330
17
100
AcDbEntity
  8
TEXTLAYER
100
AcDbMText
 10
605.0
 20
45.0
 30
0.0
 40
2.5
 71
1
  1
\PНомер пом: 23\PНет\P Объем помещения: 6 м3
  7
ISOCPEUR
  0
LWPOLYLINE
  5
5C
330
17
100
AcDbEntity
  8
Polygons
 62
6
100
AcDbPolyline
 90
5
 70
0
 10
650.0
 20
0.0
 10
650.0
 20
50.0
 10
700.0
 20
50.0
 10
700.0
 20
0.0
 10
650.0
 20
0.0
  0
MTEXT
  5
5D
330
17
100
AcDbEntity
  8
TEXTLAYER
100
AcDbMText
 10
655.0
 20
45.0
 30
0.0
 40
2.5
 71
1
  1
\PНомер пом: 26\PНет\P Объем помещения: 7 м3
  7
ISOCPEUR
  0
LWPOLYLINE
  5
5E
330
17
100
AcDbEntity
  8
Polygons
 62
201
100
AcDbPolyline
 90
5
 70
0
 10
700.0
 20
0.0
 10
700.0
 20
50.0
 10
750.0
 20
50.0
 10
750.0
 20
0.0
 10
700.0
 20
0.0
  0
MTEXT
  5
5F
330
17
100
AcDbEntity
  8
TEXTLAYER
100
AcDbMText
 10
705.0
 20
45.0
 30
0.0
 40
2.5
 71
1
  1
\PНомер пом: 30\PНет\P Объем помещения: 4 м3
  7
ISOCPEUR
  0
LWPOLYLINE
  5
60
330
17
100
AcDbEntity
  8
Polygons
 62
241
100
AcDbPolyline
 90
5
 70
0
 10
750.0
 20
0.0
 10
750.0
 20
50.0
 10
800.0
 20
50.0
 10
800.0
 20
0.0
 10
750.0
 20
0.0
  0
MTEXT
  5
61
330
17
100
AcDbEntity
  8
TEXTLAYER
100
AcDbMText
 10
755.0
 20
45.0
 30
0.0
 40
2.5
 71
1
  1
\PНомер пом: 30\PНет\P Объем помещения: 4 м3
  7
ISOCPEUR
  0
LWPOLYLINE
  5
62
330
17
100
AcDbEntity
  8
Polygons
 62
6
100
AcDbPolyline
 90
5
 70
0
 10
800.0
 20
0.0
 10
800.0
 20
50.0
 10
850.0
 20
50.0
 10
850.0
 20
0.0
 10
800.0
 20
0.0
  0
MTEXT
  5
63
330
17
100
AcDbEntity
  8
TEXTLAYER
100
AcDbMText
 10
805.0
 20
45.0
 30
0.0
 40
2.5
 71
1
  1
\PНомер пом: 25\PНет\P Объем помещения: 14 м3
  7
ISOCPEUR
  0
LWPOLYLINE
  5
64
330
17
100
AcDbEntity
  8
Polygons
 62
211
100
AcDbPolyline
 90
5
 70
0
 10
850.0
 20
0.0
 10
850.0
 20
50.0
 10
900.0
 20
50.0
 10
900.0
 20
0.0
 10
850.0
 20
0.0
  0
MTEXT
  5
65
330
17
100
AcDbEntity
  8
TEXTLAYER
100
AcDbMText
 10
855.0
 20
45.0
 30
0.0
 40
2.5
 71
1
  1
\PНомер пом: 29\PНет\P Объем помещения: 14 м3
  7
ISOCPEUR
  0
LWPOLYLINE
  5
66
330
17
100
AcDbEntity
  8
Polygons
 62
1
100
AcDbPolyline
 90
5
 70
0
 10
900.0
 20
0.0
 10
900.0
 20
50.0
 10
950.0
 20
50.0
 10
950.0
 20
0.0
 10
900.0
 20
0.0
  0
MTEXT
  5
67
330
17
100
AcDbEntity
  8
TEXTLAYER
100
AcDbMText
 10
905.0
 20
45.0
 30
0.0
 40
2.5
 71
1
  1
\PНомер пом: 16\PНет\P Объем помещения: 28 м3
  7
ISOCPEUR
  0
LWPOLYLINE
  5
68
330
17
100
AcDbEntity
  8
Polygons
 62
1
100
AcDbPolyline
 90
5
 70
0
 10
0.0
 20
300.0
 10
0.0
 20
350.0
 10
50.0
 20
350.0
 10
50.0
 20
300.0
 10
0.0
 20
300.0
  0
MTEXT
  5
69
330
17
100
AcDbEntity
  8
TEXTLAYER
100
AcDbMText
 10
5.0
 20
345.0
 30
0.0
 40
2.5
 71
1
  1
\PНомер пом: 1\PНет\P Объем помещения: 33 м3
  7
ISOCPEUR
  0
LWPOLYLINE
  5
6A
330
17
100
AcDbEntity
  8
Polygons
 62
176
100
AcDbPolyline
 90
5
 70
0
 10
50.0
 20
300.0
 10
50.0
 20
350.0
 10
100.0
 20
350.0
 10
100.0
 20
300.0
 10
50.0
 20
300.0
  0
MTEXT
  5
6B
330
17
100
AcDbEntity
  8
TEXTLAYER
100
AcDbMText
 10
55.0
 20
345.0
 30
0.0
 40
2.5
 71
1
  1
\PНомер пом: 2\PНет\P Объем помещения: 33 м3
  7
ISOCPEUR
  0
LWPOLYLINE
  5
6C
330
17
100
AcDbEntity
  8
Polygons
 62
142
100
AcDbPolyline
 90
5
 70
0
 10
100.0
 20
300.0
 10
100.0
 20
350.0
 10
150.0
 20
350.0
 10
150.0
 20
300.0
 10
100.0
 20
300.0
  0
MTEXT
  5
6D
330
17
100
AcDbEntity
  8
TEXTLAYER
100
AcDbMText
 10
105.0
 20
345.0
 30
0.0
 40
2.5
 71
1
  1
\PНомер пом: 3\PНет\P Объем помещения: 33 м3
  7
ISOCPEUR
  0
LWPOLYLINE
  5
6E
330
17
100
AcDbEntity
  8
Polygons
 62
180
100
AcDbPolyline
 90
5
 70
0
 10
150.0
 20
300.0
 10
150.0
 20
350.0
 10
200.0
 20
350.0
 10
200.0
 20
300.0
 10
150.0
 20
300.0
  0
MTEXT
  5
6F
330
17
100
AcDbEntity
  8
TEXTLAYER
100
AcDbMText
 10
155.0
 20
345.0
 30
0.0
 40
2.5
 71
1
  1
\PНомер пом: 4\PНет\P Объем помещения: 34 м3
  7
ISOCPEUR
  0
LWPOLYLINE
  5
70
330
17
100
AcDbEntity
  8
Polygons
 62
5
100
AcDbPolyline
 90
5
 70
0
 10
200.0
 20
300.0
 10
200.0
 20
350.0
 10
250.0
 20
350.0
 10
250.0
 20
300.0
 10
200.0
 20
300.0
  0
MTEXT
  5
71
330
17
100
AcDbEntity
  8
TEXTLAYER
100
AcDbMText
 10
205.0
 20
345.0
 30
0.0
 40
2.5
 71
1
  1
\PНомер пом: 5\PНет\P Объем помещения: 32 м3
  7
ISOCPEUR
  0
LWPOLYLINE
  5
72
330
17
100
AcDbEntity
  8
Polygons
 62
7
100
AcDbPolyline
 90
5
 70
0
 10
250.0
 20
300.0
 10
250.0
 20
350.0
 10
300.0
 20
350.0
 10
300.0
 20
300.0
 10
250.0
 20
300.0
  0
MTEXT
  5
73
330
17
100
AcDbEntity
  8
TEXTLAYER
100
AcDbMText
 10
255.0
 20
345.0
 30
0.0
 40
2.5
 71
1
  1
\PНомер пом: 6\PНет\P Объем помещения: 32 м3
  7
ISOCPEUR
  0
LWPOLYLINE
  5
74
330
17
100
AcDbEntity
  8
Polygons
 62
1
100
AcDbPolyline
 90
5
 70
0
 10
300.0
 20
300.0
 10
300.0
 20
350.0
 10
350.0
 20
350.0
 10
350.0
 20
300.0
 10
300.0
 20
300.0
  0
MTEXT
  5
75
330
17
100
AcDbEntity
  8
TEXTLAYER
100
AcDbMText
 10
305.0
 20
345.0
 30
0.0
 40
2.5
 71
1
  1
\PНомер пом: 7\PНет\P Объем помещения: 38 м3
  7
ISOCPEUR
  0
LWPOLYLINE
  5
76
330
17
100
AcDbEntity
  8
Polygons
 62
210
100
AcDbPolyline
 90
5
 70
0
 10
350.0
 20
300.0
 10
350.0
 20
350.0
 10
400.0
 20
350.0
 10
400.0
 20
300.0
 10
350.0
 20
300.0
  0
MTEXT
  5
77
330
17
100
AcDbEntity
  8
TEXTLAYER
100
AcDbMText
 10
355.0
 20
345.0
 30
0.0
 40
2.5
 71
1
  1
\PНомер пом: 8\PНет\P Объем помещения: 89 м3
  7
ISOCPEUR
  0
LWPOLYLINE
  5
78
330
17
100
AcDbEntity
  8
Polygons
 62
139
100
AcDbPolyline
 90
5
 70
0
 10
400.0
 20
300.0
 10
400.0
 20
350.0
 10
450.0
 20
350.0
 10
450.0
 20
300.0
 10
400.0
 20
300.0
  0
MTEXT
  5
79
330
17
100
AcDbEntity
  8
TEXTLAYER
100
AcDbMText
 10
405.0
 20
345.0
 30
0.0
 40
2.5
 71
1
  1
\PНомер пом: 9\PНет\P Объем помещения: 41 м3
  7
ISOCPEUR
  0
LWPOLYLINE
  5
7A
330
17
100
AcDbEntity
  8
Polygons
 62
3
100
AcDbPolyline
 90
5
 70
0
 10
450.0
 20
300.0
 10
450.0
 20
350.0
 10
500.0
 20
350.0
 10
500.0
 20
300.0
 10
450.0
 20
300.0
  0
MTEXT
  5
7B
330
17
100
AcDbEntity
  8
TEXTLAYER
100
AcDbMText
 10
455.0
 20
345.0
 30
0.0
 40
2.5
 71
1
  1
\PНомер пом: 10\PНет\P Объем помещения: 37 м3
  7
ISOCPEUR
  0
LWPOLYLINE
  5
7C
330
17
100
AcDbEntity
  8
Polygons
 62
6
100
AcDbPolyline
 90
5
 70
0
 10
500.0
 20
300.0
 10
500.0
 20
350.0
 10
550.0
 20
350.0
 10
550.0
 20
300.0
 10
500.0
 20
300.0
  0
MTEXT
  5
7D
330
17
100
AcDbEntity
  8
TEXTLAYER
100
AcDbMText
 10
505.0
 20
345.0
 30
0.0
 40
2.5
 71
1
  1
\PНомер пом: 11\PНет\P Объем помещения: 42 м3
  7
ISOCPEUR
  0
LWPOLYLINE
  5
7E
330
17
100
AcDbEntity
  8
Polygons
 62
201
100
AcDbPolyline
 90
5
 70
0
 10
550.0
 20
300.0
 10
550.0
 20
350.0
 10
600.0
 20
350.0
 10
600.0
 20
300.0
 10
550.0
 20
300.0
  0
MTEXT
  5
7F
330
17
100
AcDbEntity
  8
TEXTLAYER
100
AcDbMText
 10
555.0
 20
345.0
 30
0.0
 40
2.5
 71
1
  1
\PНомер пом: 12\PНет\P Объем помещения: 59 м3
  7
ISOCPEUR
  0
LWPOLYLINE
  5
80
330
17
100
AcDbEntity
  8
Polygons
 62
241
100
AcDbPolyline
 90
5
 70
0
 10
600.0
 20
300.0
 10
600.0
 20
350.0
 10
650.0
 20
350.0
 10
650.0
 20
300.0
 10
600.0
 20
300.0
  0
MTEXT
  5
81
330
17
100
AcDbEntity
  8
TEXTLAYER
100
AcDbMText
 10
605.0
 20
345.0
 30
0.0
 40
2.5
 71
1
  1
\PНомер пом: 13\PНет\P Объем помещения: 47 м3
  7
ISOCPEUR
  0
LWPOLYLINE
  5
82
330
17
100
AcDbEntity
  8
Polygons
 62
6
100
AcDbPolyline
 90
5
 70
0
 10
650.0
 20
300.0
 10
650.0
 20
350.0
 10
700.0
 20
350.0
 10
700.0
 20
300.0
 10
650.0
 20
300.0
  0
MTEXT
  5
83
330
17
100
AcDbEntity
  8
TEXTLAYER
100
AcDbMText
 10
655.0
 20
345.0
 30
0.0
 40
2.5
 71
1
  1
\PНомер пом: 14\PНет\P Объем помещения: 47 м3
  7
ISOCPEUR
  0
LWPOLYLINE
  5
84
330
17
100
AcDbEntity
  8
Polygons
 62
211
100
AcDbPolyline
 90
5
 70
0
 10
700.0
 20
300.0
 10
700.0
 20
350.0
 10
750.0
 20
350.0
 10
750.0
 20
300.0
 10
700.0
 20
300.0
  0
MTEXT
  5
85
330
17
100
AcDbEntity
  8
TEXTLAYER
100
AcDbMText
 10
705.0
 20
345.0
 30
0.0
 40
2.5
 71
1
  1
\PНомер пом: 15\PНет\P Объем помещения: 42 м3
  7
ISOCPEUR
  0
LWPOLYLINE
  5
86
330
17
100
AcDbEntity
  8
Polygons
 62
1
100
AcDbPolyline
 90
5
 70
0
 10
750.0
 20
300.0
 10
750.0
 20
350.0
 10
800.0
 20
350.0
 10
800.0
 20
300.0
 10
750.0
 20
300.0
  0
MTEXT
  5
87
330
17
100
AcDbEntity
  8
TEXTLAYER
100
AcDbMText
 10
755.0
 20
345.0
 30
0.0
 40
2.5
 71
1
  1
\PНомер пом: 16\PНет\P Объем помещения: 47 м3
  7
ISOCPEUR
  0
LWPOLYLINE
  5
88
330
17
100
AcDbEntity
  8
Polygons
 62
1
100
AcDbPolyline
 90
5
 70
0
 10
800.0
 20
300.0
 10
800.0
 20
350.0
 10
850.0
 20
350.0
 10
850.0
 20
300.0
 10
800.0
 20
300.0
  0
MTEXT
  5
89
330
17
100
AcDbEntity
  8
TEXTLAYER
100
AcDbMText
 10
805.0
 20
345.0
 30
0.0
 40
2.5
 71
1
  1
\PНомер пом: 17\PНет\P Объем помещения: 42 м3
  7
ISOCPEUR
  0
LWPOLYLINE
  5
8A
330
17
100
AcDbEntity
  8
Polygons
 62
176
100
AcDbPolyline
 90
5
 70
0
 10
850.0
 20
300.0
 10
850.0
 20
350.0
 10
900.0
 20
350.0
 10
900.0
 20
300.0
 10
850.0
 20
300.0
  0
MTEXT
  5
8B
330
17
100
AcDbEntity
  8
TEXTLAYER
100
AcDbMText
 10
855.0
 20
345.0
 30
0.0
 40
2.5
 71
1
  1
\PНомер пом: 18\PНет\P Объем помещения: 37 м3
  7
ISOCPEUR
  0
LWPOLYLINE
  5
8C
330
17
100
AcDbEntity
  8
Polygons
 62
142
100
AcDbPolyline
 90
5
 70
0
 10
900.0
 20
300.0
 10
900.0
 20
350.0
 10
950.0
 20
350.0
 10
950.0
 20
300.0
 10
900.0
 20
300.0
  0
MTEXT
  5
8D
330
17
100
AcDbEntity
  8
TEXTLAYER
100
AcDbMText
 10
905.0
 20
345.0
 30
0.0
 40
2.5
 71
1
  1
\PНомер пом: 19\PНет\P Объем помещения: 37 м3
  7
ISOCPEUR
  0
LWPOLYLINE
  5
8E
330
17
100
AcDbEntity
  8
Polygons
 62
180
100
AcDbPolyline
 90
5
 70
0
 10
950.0
 20
300.0
 10
950.0
 20
350.0
 10
1000.0
 20
350.0
 10
1000.0
 20
300.0
 10
950.0
 20
300.0
  0
MTEXT
  5
8F
330
17
100
AcDbEntity
  8
TEXTLAYER
100
AcDbMText
 10
955.0
 20
345.0
 30
0.0
 40
2.5
 71
1
  1
\PНомер пом: 20\PНет\P Объем помещения: 11 м3
  7
ISOCPEUR
  0
LWPOLYLINE
  5
90
330
17
100
AcDbEntity
  8
Polygons
 62
5
100
AcDbPolyline
 90
5
 70
0
 10
1000.0
 20
300.0
 10
1000.0
 20
350.0
 10
1050.0
 20
350.0
 10
1050.0
 20
300.0
 10
1000.0
 20
300.0
  0
MTEXT
  5
91
330
17
100
AcDbEntity
  8
TEXTLAYER
100
AcDbMText
 10
1005.0
 20
345.0
 30
0.0
 40
2.5
 71
1
  1
\PНомер пом: 21\PНет\P Объем помещения: 191 м3
  7
ISOCPEUR
  0
LWPOLYLINE
  5
92
330
17
100
AcDbEntity
  8
Polygons
 62
7
100
AcDbPolyline
 90
5
 70
0
 10
1050.0
 20
300.0
 10
1050.0
 20
350.0
 10
1100.0
 20
350.0
 10
1100.0
 20
300.0
 10
1050.0
 20
300.0
  0
MTEXT
  5
93
330
17
100
AcDbEntity
  8
TEXTLAYER
100
AcDbMText
 10
1055.0
 20
345.0
 30
0.0
 40
2.5
 71
1
  1
\PНомер пом: 22\PНет\P Объем помещения: 12 м3
  7
ISOCPEUR
  0
LWPOLYLINE
  5
94
330
17
100
AcDbEntity
  8
Polygons
 62
1
100
AcDbPolyline
 90
5
 70
0
 10
1100.0
 20
300.0
 10
1100.0
 20
350.0
 10
1150.0
 20
350.0
 10
1150.0
 20
300.0
 10
1100.0
 20
300.0
  0
MTEXT
  5
95
330
17
100
AcDbEntity
  8
TEXTLAYER
100
AcDbMText
 10
1105.0
 20
345.0
 30
0.0
 40
2.5
 71
1
  1
\PНомер пом: 23\PНет\P Объем помещения: 42 м3
  7
ISOCPEUR
  0
LWPOLYLINE
  5
96
330
17
100
AcDbEntity
  8
Polygons
 62
210
100
AcDbPolyline
 90
5
 70
0
 10
1150.0
 20
300.0
 10
1150.0
 20
350.0
 10
1200.0
 20
350.0
 10
1200.0
 20
300.0
 10
1150.0
 20
300.0
  0
MTEXT
  5
97
330
17
100
AcDbEntity
  8
TEXTLAYER
100
AcDbMText
 10
1155.0
 20
345.0
 30
0.0
 40
2.5
 71
1
  1
\PНомер пом: 24\PНет\P Объем помещения: 1 м3
  7
ISOCPEUR
  0
LWPOLYLINE
  5
98
330
17
100
AcDbEntity
  8
Polygons
 62
139
100
AcDbPolyline
 90
5
 70
0
 10
1200.0
 20
300.0
 10
1200.0
 20
350.0
 10
1250.0
 20
350.0
 10
1250.0
 20
300.0
 10
1200.0
 20
300.0
  0
MTEXT
  5
99
330
17
100
AcDbEntity
  8
TEXTLAYER
100
AcDbMText
 10
1205.0
 20
345.0
 30
0.0
 40
2.5
 71
1
  1
\PНомер пом: 25\PНет\P Объем помещения: 31 м3
  7
ISOCPEUR
  0
LWPOLYLINE
  5
9A
330
17
100
AcDbEntity
  8
Polygons
 62
3
100
AcDbPolyline
 90
5
 70
0
 10
1250.0
 20
300.0
 10
1250.0
 20
350.0
 10
1300.0
 20
350.0
 10
1300.0
 20
300.0
 10
1250.0
 20
300.0
  0
MTEXT
  5
9B
330
17
100
AcDbEntity
  8
TEXTLAYER
100
AcDbMText
 10
1255.0
 20
345.0
 30
0.0
 40
2.5
 71
1
  1
\PНомер пом: 26\PНет\P Объем помещения: 23 м3
  7
ISOCPEUR
  0
LWPOLYLINE
  5
9C
330
17
100
AcDbEntity
  8
Polygons
 62
6
100
AcDbPolyline
 90
5
 70
0
 10
1300.0
 20
300.0
 10
1300.0
 20
350.0
 10
1350.0
 20
350.0
 10
1350.0
 20
300.0
 10
1300.0
 20
300.0
  0
MTEXT
  5
9D
330
17
100
AcDbEntity
  8
TEXTLAYER
100
AcDbMText
 10
1305.0
 20
345.0
 30
0.0
 40
2.5
 71
1
  1
\PНомер пом: 27\PНет\P Объем помещения: 21 м3
  7
ISOCPEUR
  0
LWPOLYLINE
  5
9E
330
17
100
AcDbEntity
  8
Polygons
 62
201
100
AcDbPolyline
 90
5
 70
0
 10
1350.0
 20
300.0
 10
1350.0
 20
350.0
 10
1400.0
 20
350.0
 10
1400.0
 20
300.0
 10
1350.0
 20
300.0
  0
MTEXT
  5
9F
330
17
100
AcDbEntity
  8
TEXTLAYER
100
AcDbMText
 10
1355.0
 20
345.0
 30
0.0
 40
2.5
 71
1
  1
\PНомер пом: 28\PНет\P Объем помещения: 7 м3
  7
ISOCPEUR
  0
LWPOLYLINE
  5
A0
330
17
100
AcDbEntity
  8
Polygons
 62
241
100
AcDbPolyline
 90
5
 70
0
 10
1400.0
 20
300.0
 10
1400.0
 20
350.0
 10
1450.0
 20
350.0
 10
1450.0
 20
300.0
 10
1400.0
 20
300.0
  0
MTEXT
  5
A1
330
17
100
AcDbEntity
  8
TEXTLAYER
100
AcDbMText
 10
1405.0
 20
345.0
 30
0.0
 40
2.5
 71
1
  1
\PНомер пом: 29\PНет\P Объем помещения: 30 м3
  7
ISOCPEUR
  0
LWPOLYLINE
  5
A2
330
17
100
AcDbEntity
  8
Polygons
 62
6
100
AcDbPolyline
 90
5
 70
0
 10
1450.0
 20
300.0
 10
1450.0
 20
350.0
 10
1500.0
 20
350.0
 10
1500.0
 20
300.0
 10
1450.0
 20
300.0
  0
MTEXT
  5
A3
330
17
100
AcDbEntity
  8
TEXTLAYER
100
AcDbMText
 10
1455.0
 20
345.0
 30
0.0
 40
2.5
 71
1
  1
\PНомер пом: 30\PНет\P Объем помещения: 33 м3
  7
ISOCPEUR
  0
TEXT
  5
A4
330
17
100
AcDbEntity
  8
TEXTLAYER
100
AcDbText
 10
750.0
 20
110.0
 30
0.0
 40
2.5
  1
уровень1
  7
ISOCPEUR
 72
1
 11
750.0
 21
110.0
 31
0.0
100
AcDbText
  0
TEXT
  5
A5
330
17
100
AcDbEntity
  8
TEXTLAYER
100
AcDbText
 10
750.0
 20
430.0
 30
0.0
 40
2.5
  1
уровень5
  7
ISOCPEUR
 72
1
 11
750.0
 21
430.0
 31
0.0
100
AcDbText
  0
MTEXT
  5
A6
330
17
100
AcDbEntity
  8
TEXTLAYER
100
AcDbMText
 10
30.0
 20
70.0
 30
0.0
 40
2.5
 71
1
  1
 П2\P L=1800.0
  7
ISOCPEUR
  0
SOLID
  5
A7
330
17
100
AcDbEntity
  8
0
 62
6
100
AcDbTrace
 10
25.821994918620128
 20
55.0
 30
0.0
 11
25.0
 21
50.0
 31
0.0
 12
24.178005081379872
 22
55.0
 32
0.0
 13
24.178005081379872
 23
55.0
 33
0.0
  0
TEXT
  5
A8
330
17
100
AcDbEntity
  8
TEXTLAYER
100
AcDbText
 10
-40.0
 20
90.0
 30
0.0
 40
2.5
  1
уровень1 П2L = 10710
  7
ISOCPEUR
 11
-40.0
 21
90.0
 31
0.0
100
AcDbText
  0
LINE
  5
A9
330
17
100
AcDbEntity
  8
0
 62
6
100
AcDbLine
 10
25.0
 20
50.0
 30
0.0
 11
25.0
 21
90.0
 31
0.0
  0
LINE
  5
AA
330
17
100
AcDbEntity
  8
0
 62
6
100
AcDbLine
 10
25.0
 20
90.0
 30
0.0
 11
-40.0
 21
90.0
 31
0.0
  0
MTEXT
  5
AB
330
17
100
AcDbEntity
  8
TEXTLAYER
100
AcDbMText
 10
80.0
 20
70.0
 30
0.0
 40
2.5
 71
1
  1
 П2\P L=370.0
  7
ISOCPEUR
  0
SOLID
  5
AC
330
17
100
AcDbEntity
  8
0
 62
6
100
AcDbTrace
 10
75.82199491862012
 20
55.0
 30
0.0
 11
75.0
 21
50.0
 31
0.0
 12
74.17800508137988
 22
55.0
 32
0.0
 13
74.17800508137988
 23
55.0
 33
0.0
  0
TEXT
  5
AD
330
17
100
AcDbEntity
  8
TEXTLAYER
100
AcDbText
 10
-40.0
 20
90.0
 30
0.0
 40
2.5
  1
уровень1 П2L = 10710
  7
ISOCPEUR
 11
-40.0
 21
90.0
 31
0.0
100
AcDbText
  0
LINE
  5
AE
330
17
100
AcDbEntity
  8
0
 62
6
100
AcDbLine
 10
75.0
 20
50.0
 30
0.0
 11
75.0
 21
90.0
 31
0.0
  0
LINE
  5
AF
330
17
100
AcDbEntity
  8
0
 62
6
100
AcDbLine
 10
75.0
 20
90.0
 30
0.0
 11
-40.0
 21
90.0
 31
0.0
  0
MTEXT
  5
B0
330
17
100
AcDbEntity
  8
TEXTLAYER
100
AcDbMText
 10
130.0
 20
70.0
 30
0.0
 40
2.5
 71
1
  1
 П2\P L=1820.0
  7
ISOCPEUR
  0
SOLID
  5
B1
330
17
100
AcDbEntity
  8
0
 62
6
100
AcDbTrace
 10
125.82199491862012
 20
55.0
 30
0.0
 11
125.0
 21
50.0
 31
0.0
 12
124.17800508137988
 22
55.0
 32
0.0
 13
124.17800508137988
 23
55.0
 33
0.0
  0
TEXT
  5
B2
330
17
100
AcDbEntity
  8
TEXTLAYER
100
AcDbText
 10
-40.0
 20
90.0
 30
0.0
 40
2.5
  1
уровень1 П2L = 10710
  7
ISOCPEUR
 11
-40.0
 21
90.0
 31
0.0
100
AcDbText
  0
LINE
  5
B3
330
17
100
AcDbEntity
  8
0
 62
6
100
AcDbLine
 10
125.0
 20
50.0
 30
0.0
 11
125.0
 21
90.0
 31
0.0
  0
LINE
  5
B4
330
17
100
AcDbEntity
  8
0
 62
6
100
AcDbLine
 10
125.0
 20
90.0
 30
0.0
 11
-40.0
 21
90.0
 31
0.0
  0
MTEXT
  5
B5
330
17
100
AcDbEntity
  8
TEXTLAYER
100
AcDbMText
 10
280.0
 20
70.0
 30
0.0
 40
2.5
 71
1
  1
 П2\P L=1800.0
  7
ISOCPEUR
  0
SOLID
  5
B6
330
17
100
AcDbEntity
  8
0
 62
6
100
AcDbTrace
 10
275.82199491862013
 20
55.0
 30
0.0
 11
275.0
 21
50.0
 31
0.0
 12
274.17800508137987
 22
55.0
 32
0.0
 13
274.17800508137987
 23
55.0
 33
0.0
  0
TEXT
  5
B7
330
17
100
AcDbEntity
  8
TEXTLAYER
100
AcDbText
 10
-40.0
 20
90.0
 30
0.0
 40
2.5
  1
уровень1 П2L = 10710
  7
ISOCPEUR
 11
-40.0
 21
90.0
 31
0.0
100
AcDbText
  0
LINE
  5
B8
330
17
100
AcDbEntity
  8
0
 62
6
100
AcDbLine
 10
275.0
 20
50.0
 30
0.0
 11
275.0
 21
90.0
 31
0.0
  0
LINE
  5
B9
330
17
100
AcDbEntity
  8
0
 62
6
100
AcDbLine
 10
275.0
 20
90.0
 30
0.0
 11
-40.0
 21
90.0
 31
0.0
  0
MTEXT
  5
BA
330
17
100
AcDbEntity
  8
TEXTLAYER
100
AcDbMText
 10
330.0
 20
70.0
 30
0.0
 40
2.5
 71
1
  1
 П2\P L=350.0
  7
ISOCPEUR
  0
SOLID
  5
BB
330
17
100
AcDbEntity
  8
0
 62
6
100
AcDbTrace
 10
325.82199491862013
 20
55.0
 30
0.0
 11
325.0
 21
50.0
 31
0.0
 12
324.17800508137987
 22
55.0
 32
0.0
 13
324.17800508137987
 23
55.0
 33
0.0
  0
TEXT
  5
BC
330
17
100
AcDbEntity
  8
TEXTLAYER
100
AcDbText
 10
-40.0
 20
90.0
 30
0.0
 40
2.5
  1
уровень1 П2L = 10710
  7
ISOCPEUR
 11
-40.0
 21
90.0
 31
0.0
100
AcDbText
  0
LINE
  5
BD
330
17
100
AcDbEntity
  8
0
 62
6
100
AcDbLine
 10
325.0
 20
50.0
 30
0.0
 11
325.0
 21
90.0
 31
0.0
  0
LINE
  5
BE
330
17
100
AcDbEntity
  8
0
 62
6
100
AcDbLine
 10
325.0
 20
90.0
 30
0.0
 11
-40.0
 21
90.0
 31
0.0
  0
MTEXT
  5
BF
330
17
100
AcDbEntity
  8
TEXTLAYER
100
AcDbMText
 10
380.0
 20
70.0
 30
0.0
 40
2.5
 71
1
  1
 П2\P L=350.0
  7
ISOCPEUR
  0
SOLID
  5
C0
330
17
100
AcDbEntity
  8
0
 62
6
100
AcDbTrace
 10
375.82199491862013
 20
55.0
 30
0.0
 11
375.0
 21
50.0
 31
0.0
 12
374.17800508137987
 22
55.0
 32
0.0
 13
374.17800508137987
 23
55.0
 33
0.0
  0
TEXT
  5
C1
330
17
100
AcDbEntity
  8
TEXTLAYER
100
AcDbText
 10
-40.0
 20
90.0
 30
0.0
 40
2.5
  1
уровень1 П2L = 10710
  7
ISOCPEUR
 11
-40.0
 21
90.0
 31
0.0
100
AcDbText
  0
LINE
  5
C2
330
17
100
AcDbEntity
  8
0
 62
6
100
AcDbLine
 10
375.0
 20
50.0
 30
0.0
 11
375.0
 21
90.0
 31
0.0
  0
LINE
  5
C3
330
17
100
AcDbEntity
  8
0
 62
6
100
AcDbLine
 10
375.0
 20
90.0
 30
0.0
 11
-40.0
 21
90.0
 31
0.0
  0
MTEXT
  5
C4
330
17
100
AcDbEntity
  8
TEXTLAYER
100
AcDbMText
 10
430.0
 20
70.0
 30
0.0
 40
2.5
 71
1
  1
 П2\P L=1800.0
  7
ISOCPEUR
  0
SOLID
  5
C5
330
17
100
AcDbEntity
  8
0
 62
6
100
AcDbTrace
 10
425.82199491862013
 20
55.0
 30
0.0
 11
425.0
 21
50.0
 31
0.0
 12
424.17800508137987
 22
55.0
 32
0.0
 13
424.17800508137987
 23
55.0
 33
0.0
  0
TEXT
  5
C6
330
17
100
AcDbEntity
  8
TEXTLAYER
100
AcDbText
 10
-40.0
 20
90.0
 30
0.0
 40
2.5
  1
уровень1 П2L = 10710
  7
ISOCPEUR
 11
-40.0
 21
90.0
 31
0.0
100
AcDbText
  0
LINE
  5
C7
330
17
100
AcDbEntity
  8
0
 62
6
100
AcDbLine
 10
425.0
 20
50.0
 30
0.0
 11
425.0
 21
90.0
 31
0.0
  0
LINE
  5
C8
330
17
100
AcDbEntity
  8
0
 62
6
100
AcDbLine
 10
425.0
 20
90.0
 30
0.0
 11
-40.0
 21
90.0
 31
0.0
  0
MTEXT
  5
C9
330
17
100
AcDbEntity
  8
TEXTLAYER
100
AcDbMText
 10
480.0
 20
70.0
 30
0.0
 40
2.5
 71
1
  1
 П2\P L=300.0
  7
ISOCPEUR
  0
SOLID
  5
CA
330
17
100
AcDbEntity
  8
0
 62
6
100
AcDbTrace
 10
475.82199491862013
 20
55.0
 30
0.0
 11
475.0
 21
50.0
 31
0.0
 12
474.17800508137987
 22
55.0
 32
0.0
 13
474.17800508137987
 23
55.0
 33
0.0
  0
TEXT
  5
CB
330
17
100
AcDbEntity
  8
TEXTLAYER
100
AcDbText
 10
-40.0
 20
90.0
 30
0.0
 40
2.5
  1
уровень1 П2L = 10710
  7
ISOCPEUR
 11
-40.0
 21
90.0
 31
0.0
100
AcDbText
  0
LINE
  5
CC
330
17
100
AcDbEntity
  8
0
 62
6
100
AcDbLine
 10
475.0
 20
50.0
 30
0.0
 11
475.0
 21
90.0
 31
0.0
  0
LINE
  5
CD
330
17
100
AcDbEntity
  8
0
 62
6
100
AcDbLine
 10
475.0
 20
90.0
 30
0.0
 11
-40.0
 21
90.0
 31
0.0
  0
MTEXT
  5
CE
330
17
100
AcDbEntity
  8
TEXTLAYER
100
AcDbMText
 10
530.0
 20
70.0
 30
0.0
 40
2.5
 71
1
  1
 П2\P L=1800.0
  7
ISOCPEUR
  0
SOLID
  5
CF
330
17
100
AcDbEntity
  8
0
 62
6
100
AcDbTrace
 10
525.8219949186201
 20
55.0
 30
0.0
 11
525.0
 21
50.0
 31
0.0
 12
524.1780050813799
 22
55.0
 32
0.0
 13
524.1780050813799
 23
55.0
 33
0.0
  0
TEXT
  5
D0
330
17
100
AcDbEntity
  8
TEXTLAYER
100
AcDbText
 10
-40.0
 20
90.0
 30
0.0
 40
2.5
  1
уровень1 П2L = 10710
  7
ISOCPEUR
 11
-40.0
 21
90.0
 31
0.0
100
AcDbText
  0
LINE
  5
D1
330
17
100
AcDbEntity
  8
0
 62
6
100
AcDbLine
 10
525.0
 20
50.0
 30
0.0
 11
525.0
 21
90.0
 31
0.0
  0
LINE
  5
D2
330
17
100
AcDbEntity
  8
0
 62
6
100
AcDbLine
 10
525.0
 20
90.0
 30
0.0
 11
-40.0
 21
90.0
 31
0.0
  0
MTEXT
  5
D3
330
17
100
AcDbEntity
  8
TEXTLAYER
100
AcDbMText
 10
580.0
 20
70.0
 30
0.0
 40
2.5
 71
1
  1
 П2\P L=180.0
  7
ISOCPEUR
  0
SOLID
  5
D4
330
17
100
AcDbEntity
  8
0
 62
6
100
AcDbTrace
 10
575.8219949186201
 20
55.0
 30
0.0
 11
575.0
 21
50.0
 31
0.0
 12
574.1780050813799
 22
55.0
 32
0.0
 13
574.1780050813799
 23
55.0
 33
0.0
  0
TEXT
  5
D5
330
17
100
AcDbEntity
  8
TEXTLAYER
100
AcDbText
 10
-40.0
 20
90.0
 30
0.0
 40
2.5
  1
уровень1 П2L = 10710
  7
ISOCPEUR
 11
-40.0
 21
90.0
 31
0.0
100
AcDbText
  0
LINE
  5
D6
330
17
100
AcDbEntity
  8
0
 62
6
100
AcDbLine
 10
575.0
 20
50.0
 30
0.0
 11
575.0
 21
90.0
 31
0.0
  0
LINE
  5
D7
330
17
100
AcDbEntity
  8
0
 62
6
100
AcDbLine
 10
575.0
 20
90.0
 30
0.0
 11
-40.0
 21
90.0
 31
0.0
  0
MTEXT
  5
D8
330
17
100
AcDbEntity
  8
TEXTLAYER
100
AcDbMText
 10
730.0
 20
70.0
 30
0.0
 40
2.5
 71
1
  1
 П2\P L=70.0
  7
ISOCPEUR
  0
SOLID
  5
D9
330
17
100
AcDbEntity
  8
0
 62
6
100
AcDbTrace
 10
725.8219949186201
 20
55.0
 30
0.0
 11
725.0
 21
50.0
 31
0.0
 12
724.1780050813799
 22
55.0
 32
0.0
 13
724.1780050813799
 23
55.0
 33
0.0
  0
TEXT
  5
DA
330
17
100
AcDbEntity
  8
TEXTLAYER
100
AcDbText
 10
-40.0
 20
90.0
 30
0.0
 40
2.5
  1
уровень1 П2L = 10710
  7
ISOCPEUR
 11
-40.0
 21
90.0
 31
0.0
100
AcDbText
  0
LINE
  5
DB
330
17
100
AcDbEntity
  8
0
 62
6
100
AcDbLine
 10
725.0
 20
50.0
 30
0.0
 11
725.0
 21
90.0
 31
0.0
  0
LINE
  5
DC
330
17
100
AcDbEntity
  8
0
 62
6
100
AcDbLine
 10
725.0
 20
90.0
 30
0.0
 11
-40.0
 21
90.0
 31
0.0
  0
MTEXT
  5
DD
330
17
100
AcDbEntity
  8
TEXTLAYER
100
AcDbMText
 10
780.0
 20
70.0
 30
0.0
 40
2.5
 71
1
  1
 П2\P L=70.0
  7
ISOCPEUR
  0
SOLID
  5
DE
330
17
100
AcDbEntity
  8
0
 62
6
100
AcDbTrace
 10
775.8219949186201
 20
55.0
 30
0.0
 11
775.0
 21
50.0
 31
0.0
 12
774.1780050813799
 22
55.0
 32
0.0
 13
774.1780050813799
 23
55.0
 33
0.0
  0
TEXT
  5
DF
330
17
100
AcDbEntity
  8
TEXTLAYER
100
AcDbText
 10
-40.0
 20
90.0
 30
0.0
 40
2.5
  1
уровень1 П2L = 10710
  7
ISOCPEUR
 11
-40.0
 21
90.0
 31
0.0
100
AcDbText
  0
LINE
  5
E0
330
17
100
AcDbEntity
  8
0
 62
6
100
AcDbLine
 10
775.0
 20
50.0
 30
0.0
 11
775.0
 21
90.0
 31
0.0
  0
LINE
  5
E1
330
17
100
AcDbEntity
  8
0
 62
6
100
AcDbLine
 10
775.0
 20
90.0
 30
0.0
 11
-40.0
 21
90.0
 31
0.0
  0
MTEXT
  5
E2
330
17
100
AcDbEntity
  8
TEXTLAYER
100
AcDbMText
 10
830.0
 20
70.0
 30
0.0
 40
2.5
 71
1
  1
 П1\P L=150.0
  7
ISOCPEUR
  0
SOLID
  5
E3
330
17
100
AcDbEntity
  8
0
 62
241
100
AcDbTrace
 10
825.8219949186201
 20
55.0
 30
0.0
 11
825.0
 21
50.0
 31
0.0
 12
824.1780050813799
 22
55.0
 32
0.0
 13
824.1780050813799
 23
55.0
 33
0.0
  0
TEXT
  5
E4
330
17
100
AcDbEntity
  8
TEXTLAYER
100
AcDbText
 10
-20.0
 20
70.0
 30
0.0
 40
2.5
  1
уровень1 П1L = 420
  7
ISOCPEUR
 11
-20.0
 21
70.0
 31
0.0
100
AcDbText
  0
LINE
  5
E5
330
17
100
AcDbEntity
  8
0
 62
241
100
AcDbLine
 10
825.0
 20
50.0
 30
0.0
 11
825.0
 21
70.0
 31
0.0
  0
LINE
  5
E6
330
17
100
AcDbEntity
  8
0
 62
241
100
AcDbLine
 10
825.0
 20
70.0
 30
0.0
 11
-20.0
 21
70.0
 31
0.0
  0
MTEXT
  5
E7
330
17
100
AcDbEntity
  8
TEXTLAYER
100
AcDbMText
 10
880.0
 20
70.0
 30
0.0
 40
2.5
 71
1
  1
 П1\P L=150.0
  7
ISOCPEUR
  0
SOLID
  5
E8
330
17
100
AcDbEntity
  8
0
 62
241
100
AcDbTrace
 10
875.8219949186201
 20
55.0
 30
0.0
 11
875.0
 21
50.0
 31
0.0
 12
874.1780050813799
 22
55.0
 32
0.0
 13
874.1780050813799
 23
55.0
 33
0.0
  0
TEXT
  5
E9
330
17
100
AcDbEntity
  8
TEXTLAYER
100
AcDbText
 10
-20.0
 20
70.0
 30
0.0
 40
2.5
  1
уровень1 П1L = 420
  7
ISOCPEUR
 11
-20.0
 21
70.0
 31
0.0
100
AcDbText
  0
LINE
  5
EA
330
17
100
AcDbEntity
  8
0
 62
241
100
AcDbLine
 10
875.0
 20
50.0
 30
0.0
 11
875.0
 21
70.0
 31
0.0
  0
LINE
  5
EB
330
17
100
AcDbEntity
  8
0
 62
241
100
AcDbLine
 10
875.0
 20
70.0
 30
0.0
 11
-20.0
 21
70.0
 31
0.0
  0
MTEXT
  5
EC
330
17
100
AcDbEntity
  8
TEXTLAYER
100
AcDbMText
 10
930.0
 20
70.0
 30
0.0
 40
2.5
 71
1
  1
 П1\P L=120.0
  7
ISOCPEUR
  0
SOLID
  5
ED
330
17
100
AcDbEntity
  8
0
 62
241
100
AcDbTrace
 10
925.8219949186201
 20
55.0
 30
0.0
 11
925.0
 21
50.0
 31
0.0
 12
924.1780050813799
 22
55.0
 32
0.0
 13
924.1780050813799
 23
55.0
 33
0.0
  0
TEXT
  5
EE
330
17
100
AcDbEntity
  8
TEXTLAYER
100
AcDbText
 10
-20.0
 20
70.0
 30
0.0
 40
2.5
  1
уровень1 П1L = 420
  7
ISOCPEUR
 11
-20.0
 21
70.0
 31
0.0
100
AcDbText
  0
LINE
  5
EF
330
17
100
AcDbEntity
  8
0
 62
241
100
AcDbLine
 10
925.0
 20
50.0
 30
0.0
 11
925.0
 21
70.0
 31
0.0
  0
LINE
  5
F0
330
17
100
AcDbEntity
  8
0
 62
241
100
AcDbLine
 10
925.0
 20
70.0
 30
0.0
 11
-20.0
 21
70.0
 31
0.0
  0
MTEXT
  5
F1
330
17
100
AcDbEntity
  8
TEXTLAYER
100
AcDbMText
 10
30.0
 20
370.0
 30
0.0
 40
2.5
 71
1
  1
 П8\P L=60.0
  7
ISOCPEUR
  0
SOLID
  5
F2
330
17
100
AcDbEntity
  8
0
 62
211
100
AcDbTrace
 10
25.821994918620128
 20
355.0
 30
0.0
 11
25.0
 21
350.0
 31
0.0
 12
24.178005081379872
 22
355.0
 32
0.0
 13
24.178005081379872
 23
355.0
 33
0.0
  0
TEXT
  5
F3
330
17
100
AcDbEntity
  8
TEXTLAYER
100
AcDbText
 10
-60.0
 20
410.0
 30
0.0
 40
2.5
  1
уровень5 П8L = 1290
  7
ISOCPEUR
 11
-60.0
 21
410.0
 31
0.0
100
AcDbText
  0
LINE
  5
F4
330
17
100
AcDbEntity
  8
0
 62
211
100
AcDbLine
 10
25.0
 20
350.0
 30
0.0
 11
25.0
 21
410.0
 31
0.0
  0
LINE
  5
F5
330
17
100
AcDbEntity
  8
0
 62
211
100
AcDbLine
 10
25.0
 20
410.0
 30
0.0
 11
-60.0
 21
410.0
 31
0.0
  0
MTEXT
  5
F6
330
17
100
AcDbEntity
  8
TEXTLAYER
100
AcDbMText
 10
80.0
 20
370.0
 30
0.0
 40
2.5
 71
1
  1
 П8\P L=60.0
  7
ISOCPEUR
  0
SOLID
  5
F7
330
17
100
AcDbEntity
  8
0
 62
211
100
AcDbTrace
 10
75.82199491862012
 20
355.0
 30
0.0
 11
75.0
 21
350.0
 31
0.0
 12
74.17800508137988
 22
355.0
 32
0.0
 13
74.17800508137988
 23
355.0
 33
0.0
  0
TEXT
  5
F8
330
17
100
AcDbEntity
  8
TEXTLAYER
100
AcDbText
 10
-60.0
 20
410.0
 30
0.0
 40
2.5
  1
уровень5 П8L = 1290
  7
ISOCPEUR
 11
-60.0
 21
410.0
 31
0.0
100
AcDbText
  0
LINE
  5
F9
330
17
100
AcDbEntity
  8
0
 62
211
100
AcDbLine
 10
75.0
 20
350.0
 30
0.0
 11
75.0
 21
410.0
 31
0.0
  0
LINE
  5
FA
330
17
100
AcDbEntity
  8
0
 62
211
100
AcDbLine
 10
75.0
 20
410.0
 30
0.0
 11
-60.0
 21
410.0
 31
0.0
  0
MTEXT
  5
FB
330
17
100
AcDbEntity
  8
TEXTLAYER
100
AcDbMText
 10
130.0
 20
370.0
 30
0.0
 40
2.5
 71
1
  1
 П8\P L=60.0
  7
ISOCPEUR
  0
SOLID
  5
FC
330
17
100
AcDbEntity
  8
0
 62
211
100
AcDbTrace
 10
125.82199491862012
 20
355.0
 30
0.0
 11
125.0
 21
350.0
 31
0.0
 12
124.17800508137988
 22
355.0
 32
0.0
 13
124.17800508137988
 23
355.0
 33
0.0
  0
TEXT
  5
FD
330
17
100
AcDbEntity
  8
TEXTLAYER
100
AcDbText
 10
-60.0
 20
410.0
 30
0.0
 40
2.5
  1
уровень5 П8L = 1290
  7
ISOCPEUR
 11
-60.0
 21
410.0
 31
0.0
100
AcDbText
  0
LINE
  5
FE
330
17
100
AcDbEntity
  8
0
 62
211
100
AcDbLine
 10
125.0
 20
350.0
 30
0.0
 11
125.0
 21
410.0
 31
0.0
  0
LINE
  5
FF
330
17
100
AcDbEntity
  8
0
 62
211
100
AcDbLine
 10
125.0
 20
410.0
 30
0.0
 11
-60.0
 21
410.0
 31
0.0
  0
MTEXT
  5
100
330
17
100
AcDbEntity
  8
TEXTLAYER
100
AcDbMText
 10
180.0
 20
370.0
 30
0.0
 40
2.5
 71
1
  1
 П8\P L=60.0
  7
ISOCPEUR
  0
SOLID
  5
101
330
17
100
AcDbEntity
  8
0
 62
211
100
AcDbTrace
 10
175.82199491862013
 20
355.0
 30
0.0
 11
175.0
 21
350.0
 31
0.0
 12
174.17800508137987
 22
355.0
 32
0.0
 13
174.17800508137987
 23
355.0
 33
0.0
  0
TEXT
  5
102
330
17
100
AcDbEntity
  8
TEXTLAYER
100
AcDbText
 10
-60.0
 20
410.0
 30
0.0
 40
2.5
  1
уровень5 П8L = 1290
  7
ISOCPEUR
 11
-60.0
 21
410.0
 31
0.0
100
AcDbText
  0
LINE
  5
103
330
17
100
AcDbEntity
  8
0
 62
211
100
AcDbLine
 10
175.0
 20
350.0
 30
0.0
 11
175.0
 21
410.0
 31
0.0
  0
LINE
  5
104
330
17
100
AcDbEntity
  8
0
 62
211
100
AcDbLine
 10
175.0
 20
410.0
 30
0.0
 11
-60.0
 21
410.0
 31
0.0
  0
MTEXT
  5
105
330
17
100
AcDbEntity
  8
TEXTLAYER
100
AcDbMText
 10
230.0
 20
370.0
 30
0.0
 40
2.5
 71
1
  1
 П8\P L=60.0
  7
ISOCPEUR
  0
SOLID
  5
106
330
17
100
AcDbEntity
  8
0
 62
211
100
AcDbTrace
 10
225.82199491862013
 20
355.0
 30
0.0
 11
225.0
 21
350.0
 31
0.0
 12
224.17800508137987
 22
355.0
 32
0.0
 13
224.17800508137987
 23
355.0
 33
0.0
  0
TEXT
  5
107
330
17
100
AcDbEntity
  8
TEXTLAYER
100
AcDbText
 10
-60.0
 20
410.0
 30
0.0
 40
2.5
  1
уровень5 П8L = 1290
  7
ISOCPEUR
 11
-60.0
 21
410.0
 31
0.0
100
AcDbText
  0
LINE
  5
108
330
17
100
AcDbEntity
  8
0
 62
211
100
AcDbLine
 10
225.0
 20
350.0
 30
0.0
 11
225.0
 21
410.0
 31
0.0
  0
LINE
  5
109
330
17
100
AcDbEntity
  8
0
 62
211
100
AcDbLine
 10
225.0
 20
410.0
 30
0.0
 11
-60.0
 21
410.0
 31
0.0
  0
MTEXT
  5
10A
330
17
100
AcDbEntity
  8
TEXTLAYER
100
AcDbMText
 10
280.0
 20
370.0
 30
0.0
 40
2.5
 71
1
  1
 П8\P L=60.0
  7
ISOCPEUR
  0
SOLID
  5
10B
330
17
100
AcDbEntity
  8
0
 62
211
100
AcDbTrace
 10
275.82199491862013
 20
355.0
 30
0.0
 11
275.0
 21
350.0
 31
0.0
 12
274.17800508137987
 22
355.0
 32
0.0
 13
274.17800508137987
 23
355.0
 33
0.0
  0
TEXT
  5
10C
330
17
100
AcDbEntity
  8
TEXTLAYER
100
AcDbText
 10
-60.0
 20
410.0
 30
0.0
 40
2.5
  1
уровень5 П8L = 1290
  7
ISOCPEUR
 11
-60.0
 21
410.0
 31
0.0
100
AcDbText
  0
LINE
  5
10D
330
17
100
AcDbEntity
  8
0
 62
211
100
AcDbLine
 10
275.0
 20
350.0
 30
0.0
 11
275.0
 21
410.0
 31
0.0
  0
LINE
  5
10E
330
17
100
AcDbEntity
  8
0
 62
211
100
AcDbLine
 10
275.0
 20
410.0
 30
0.0
 11
-60.0
 21
410.0
 31
0.0
  0
MTEXT
  5
10F
330
17
100
AcDbEntity
  8
TEXTLAYER
100
AcDbMText
 10
330.0
 20
370.0
 30
0.0
 40
2.5
 71
1
  1
 П8\P L=60.0
  7
ISOCPEUR
  0
SOLID
  5
110
330
17
100
AcDbEntity
  8
0
 62
211
100
AcDbTrace
 10
325.82199491862013
 20
355.0
 30
0.0
 11
325.0
 21
350.0
 31
0.0
 12
324.17800508137987
 22
355.0
 32
0.0
 13
324.17800508137987
 23
355.0
 33
0.0
  0
TEXT
  5
111
330
17
100
AcDbEntity
  8
TEXTLAYER
100
AcDbText
 10
-60.0
 20
410.0
 30
0.0
 40
2.5
  1
уровень5 П8L = 1290
  7
ISOCPEUR
 11
-60.0
 21
410.0
 31
0.0
100
AcDbText
  0
LINE
  5
112
330
17
100
AcDbEntity
  8
0
 62
211
100
AcDbLine
 10
325.0
 20
350.0
 30
0.0
 11
325.0
 21
410.0
 31
0.0
  0
LINE
  5
113
330
17
100
AcDbEntity
  8
0
 62
211
100
AcDbLine
 10
325.0
 20
410.0
 30
0.0
 11
-60.0
 21
410.0
 31
0.0
  0
MTEXT
  5
114
330
17
100
AcDbEntity
  8
TEXTLAYER
100
AcDbMText
 10
380.0
 20
370.0
 30
0.0
 40
2.5
 71
1
  1
 П8\P L=90.0
  7
ISOCPEUR
  0
SOLID
  5
115
330
17
100
AcDbEntity
  8
0
 62
211
100
AcDbTrace
 10
375.82199491862013
 20
355.0
 30
0.0
 11
375.0
 21
350.0
 31
0.0
 12
374.17800508137987
 22
355.0
 32
0.0
 13
374.17800508137987
 23
355.0
 33
0.0
  0
TEXT
  5
116
330
17
100
AcDbEntity
  8
TEXTLAYER
100
AcDbText
 10
-60.0
 20
410.0
 30
0.0
 40
2.5
  1
уровень5 П8L = 1290
  7
ISOCPEUR
 11
-60.0
 21
410.0
 31
0.0
100
AcDbText
  0
LINE
  5
117
330
17
100
AcDbEntity
  8
0
 62
211
100
AcDbLine
 10
375.0
 20
350.0
 30
0.0
 11
375.0
 21
410.0
 31
0.0
  0
LINE
  5
118
330
17
100
AcDbEntity
  8
0
 62
211
100
AcDbLine
 10
375.0
 20
410.0
 30
0.0
 11
-60.0
 21
410.0
 31
0.0
  0
MTEXT
  5
119
330
17
100
AcDbEntity
  8
TEXTLAYER
100
AcDbMText
 10
430.0
 20
370.0
 30
0.0
 40
2.5
 71
1
  1
 П8\P L=60.0
  7
ISOCPEUR
  0
SOLID
  5
11A
330
17
100
AcDbEntity
  8
0
 62
211
100
AcDbTrace
 10
425.82199491862013
 20
355.0
 30
0.0
 11
425.0
 21
350.0
 31
0.0
 12
424.17800508137987
 22
355.0
 32
0.0
 13
424.17800508137987
 23
355.0
 33
0.0
  0
TEXT
  5
11B
330
17
100
AcDbEntity
  8
TEXTLAYER
100
AcDbText
 10
-60.0
 20
410.0
 30
0.0
 40
2.5
  1
уровень5 П8L = 1290
  7
ISOCPEUR
 11
-60.0
 21
410.0
 31
0.0
100
AcDbText
  0
LINE
  5
11C
330
17
100
AcDbEntity
  8
0
 62
211
100
AcDbLine
 10
425.0
 20
350.0
 30
0.0
 11
425.0
 21
410.0
 31
0.0
  0
LINE
  5
11D
330
17
100
AcDbEntity
  8
0
 62
211
100
AcDbLine
 10
425.0
 20
410.0
 30
0.0
 11
-60.0
 21
410.0
 31
0.0
  0
MTEXT
  5
11E
330
17
100
AcDbEntity
  8
TEXTLAYER
100
AcDbMText
 10
480.0
 20
370.0
 30
0.0
 40
2.5
 71
1
  1
 П8\P L=60.0
  7
ISOCPEUR
  0
SOLID
  5
11F
330
17
100
AcDbEntity
  8
0
 62
211
100
AcDbTrace
 10
475.82199491862013
 20
355.0
 30
0.0
 11
475.0
 21
350.0
 31
0.0
 12
474.17800508137987
 22
355.0
 32
0.0
 13
474.17800508137987
 23
355.0
 33
0.0
  0
TEXT
  5
120
330
17
100
AcDbEntity
  8
TEXTLAYER
100
AcDbText
 10
-60.0
 20
410.0
 30
0.0
 40
2.5
  1
уровень5 П8L = 1290
  7
ISOCPEUR
 11
-60.0
 21
410.0
 31
0.0
100
AcDbText
  0
LINE
  5
121
330
17
100
AcDbEntity
  8
0
 62
211
100
AcDbLine
 10
475.0
 20
350.0
 30
0.0
 11
475.0
 21
410.0
 31
0.0
  0
LINE
  5
122
330
17
100
AcDbEntity
  8
0
 62
211
100
AcDbLine
 10
475.0
 20
410.0
 30
0.0
 11
-60.0
 21
410.0
 31
0.0
  0
MTEXT
  5
123
330
17
100
AcDbEntity
  8
TEXTLAYER
100
AcDbMText
 10
530.0
 20
370.0
 30
0.0
 40
2.5
 71
1
  1
 П8\P L=60.0
  7
ISOCPEUR
  0
SOLID
  5
124
330
17
100
AcDbEntity
  8
0
 62
211
100
AcDbTrace
 10
525.8219949186201
 20
355.0
 30
0.0
 11
525.0
 21
350.0
 31
0.0
 12
524.1780050813799
 22
355.0
 32
0.0
 13
524.1780050813799
 23
355.0
 33
0.0
  0
TEXT
  5
125
330
17
100
AcDbEntity
  8
TEXTLAYER
100
AcDbText
 10
-60.0
 20
410.0
 30
0.0
 40
2.5
  1
уровень5 П8L = 1290
  7
ISOCPEUR
 11
-60.0
 21
410.0
 31
0.0
100
AcDbText
  0
LINE
  5
126
330
17
100
AcDbEntity
  8
0
 62
211
100
AcDbLine
 10
525.0
 20
350.0
 30
0.0
 11
525.0
 21
410.0
 31
0.0
  0
LINE
  5
127
330
17
100
AcDbEntity
  8
0
 62
211
100
AcDbLine
 10
525.0
 20
410.0
 30
0.0
 11
-60.0
 21
410.0
 31
0.0
  0
MTEXT
  5
128
330
17
100
AcDbEntity
  8
TEXTLAYER
100
AcDbMText
 10
580.0
 20
370.0
 30
0.0
 40
2.5
 71
1
  1
 П8\P L=60.0
  7
ISOCPEUR
  0
SOLID
  5
129
330
17
100
AcDbEntity
  8
0
 62
211
100
AcDbTrace
 10
575.8219949186201
 20
355.0
 30
0.0
 11
575.0
 21
350.0
 31
0.0
 12
574.1780050813799
 22
355.0
 32
0.0
 13
574.1780050813799
 23
355.0
 33
0.0
  0
TEXT
  5
12A
330
17
100
AcDbEntity
  8
TEXTLAYER
100
AcDbText
 10
-60.0
 20
410.0
 30
0.0
 40
2.5
  1
уровень5 П8L = 1290
  7
ISOCPEUR
 11
-60.0
 21
410.0
 31
0.0
100
AcDbText
  0
LINE
  5
12B
330
17
100
AcDbEntity
  8
0
 62
211
100
AcDbLine
 10
575.0
 20
350.0
 30
0.0
 11
575.0
 21
410.0
 31
0.0
  0
LINE
  5
12C
330
17
100
AcDbEntity
  8
0
 62
211
100
AcDbLine
 10
575.0
 20
410.0
 30
0.0
 11
-60.0
 21
410.0
 31
0.0
  0
MTEXT
  5
12D
330
17
100
AcDbEntity
  8
TEXTLAYER
100
AcDbMText
 10
630.0
 20
370.0
 30
0.0
 40
2.5
 71
1
  1
 П8\P L=60.0
  7
ISOCPEUR
  0
SOLID
  5
12E
330
17
100
AcDbEntity
  8
0
 62
211
100
AcDbTrace
 10
625.8219949186201
 20
355.0
 30
0.0
 11
625.0
 21
350.0
 31
0.0
 12
624.1780050813799
 22
355.0
 32
0.0
 13
624.1780050813799
 23
355.0
 33
0.0
  0
TEXT
  5
12F
330
17
100
AcDbEntity
  8
TEXTLAYER
100
AcDbText
 10
-60.0
 20
410.0
 30
0.0
 40
2.5
  1
уровень5 П8L = 1290
  7
ISOCPEUR
 11
-60.0
 21
410.0
 31
0.0
100
AcDbText
  0
LINE
  5
130
330
17
100
AcDbEntity
  8
0
 62
211
100
AcDbLine
 10
625.0
 20
350.0
 30
0.0
 11
625.0
 21
410.0
 31
0.0
  0
LINE
  5
131
330
17
100
AcDbEntity
  8
0
 62
211
100
AcDbLine
 10
625.0
 20
410.0
 30
0.0
 11
-60.0
 21
410.0
 31
0.0
  0
MTEXT
  5
132
330
17
100
AcDbEntity
  8
TEXTLAYER
100
AcDbMText
 10
680.0
 20
370.0
 30
0.0
 40
2.5
 71
1
  1
 П8\P L=60.0
  7
ISOCPEUR
  0
SOLID
  5
133
330
17
100
AcDbEntity
  8
0
 62
211
100
AcDbTrace
 10
675.8219949186201
 20
355.0
 30
0.0
 11
675.0
 21
350.0
 31
0.0
 12
674.1780050813799
 22
355.0
 32
0.0
 13
674.1780050813799
 23
355.0
 33
0.0
  0
TEXT
  5
134
330
17
100
AcDbEntity
  8
TEXTLAYER
100
AcDbText
 10
-60.0
 20
410.0
 30
0.0
 40
2.5
  1
уровень5 П8L = 1290
  7
ISOCPEUR
 11
-60.0
 21
410.0
 31
0.0
100
AcDbText
  0
LINE
  5
135
330
17
100
AcDbEntity
  8
0
 62
211
100
AcDbLine
 10
675.0
 20
350.0
 30
0.0
 11
675.0
 21
410.0
 31
0.0
  0
LINE
  5
136
330
17
100
AcDbEntity
  8
0
 62
211
100
AcDbLine
 10
675.0
 20
410.0
 30
0.0
 11
-60.0
 21
410.0
 31
0.0
  0
MTEXT
  5
137
330
17
100
AcDbEntity
  8
TEXTLAYER
100
AcDbMText
 10
730.0
 20
370.0
 30
0.0
 40
2.5
 71
1
  1
 П8\P L=60.0
  7
ISOCPEUR
  0
SOLID
  5
138
330
17
100
AcDbEntity
  8
0
 62
211
100
AcDbTrace
 10
725.8219949186201
 20
355.0
 30
0.0
 11
725.0
 21
350.0
 31
0.0
 12
724.1780050813799
 22
355.0
 32
0.0
 13
724.1780050813799
 23
355.0
 33
0.0
  0
TEXT
  5
139
330
17
100
AcDbEntity
  8
TEXTLAYER
100
AcDbText
 10
-60.0
 20
410.0
 30
0.0
 40
2.5
  1
уровень5 П8L = 1290
  7
ISOCPEUR
 11
-60.0
 21
410.0
 31
0.0
100
AcDbText
  0
LINE
  5
13A
330
17
100
AcDbEntity
  8
0
 62
211
100
AcDbLine
 10
725.0
 20
350.0
 30
0.0
 11
725.0
 21
410.0
 31
0.0
  0
LINE
  5
13B
330
17
100
AcDbEntity
  8
0
 62
211
100
AcDbLine
 10
725.0
 20
410.0
 30
0.0
 11
-60.0
 21
410.0
 31
0.0
  0
MTEXT
  5
13C
330
17
100
AcDbEntity
  8
TEXTLAYER
100
AcDbMText
 10
780.0
 20
370.0
 30
0.0
 40
2.5
 71
1
  1
 П8\P L=60.0
  7
ISOCPEUR
  0
SOLID
  5
13D
330
17
100
AcDbEntity
  8
0
 62
211
100
AcDbTrace
 10
775.8219949186201
 20
355.0
 30
0.0
 11
775.0
 21
350.0
 31
0.0
 12
774.1780050813799
 22
355.0
 32
0.0
 13
774.1780050813799
 23
355.0
 33
0.0
  0
TEXT
  5
13E
330
17
100
AcDbEntity
  8
TEXTLAYER
100
AcDbText
 10
-60.0
 20
410.0
 30
0.0
 40
2.5
  1
уровень5 П8L = 1290
  7
ISOCPEUR
 11
-60.0
 21
410.0
 31
0.0
100
AcDbText
  0
LINE
  5
13F
330
17
100
AcDbEntity
  8
0
 62
211
100
AcDbLine
 10
775.0
 20
350.0
 30
0.0
 11
775.0
 21
410.0
 31
0.0
  0
LINE
  5
140
330
17
100
AcDbEntity
  8
0
 62
211
100
AcDbLine
 10
775.0
 20
410.0
 30
0.0
 11
-60.0
 21
410.0
 31
0.0
  0
MTEXT
  5
141
330
17
100
AcDbEntity
  8
TEXTLAYER
100
AcDbMText
 10
830.0
 20
370.0
 30
0.0
 40
2.5
 71
1
  1
 П8\P L=60.0
  7
ISOCPEUR
  0
SOLID
  5
142
330
17
100
AcDbEntity
  8
0
 62
211
100
AcDbTrace
 10
825.8219949186201
 20
355.0
 30
0.0
 11
825.0
 21
350.0
 31
0.0
 12
824.1780050813799
 22
355.0
 32
0.0
 13
824.1780050813799
 23
355.0
 33
0.0
  0
TEXT
  5
143
330
17
100
AcDbEntity
  8
TEXTLAYER
100
AcDbText
 10
-60.0
 20
410.0
 30
0.0
 40
2.5
  1
уровень5 П8L = 1290
  7
ISOCPEUR
 11
-60.0
 21
410.0
 31
0.0
100
AcDbText
  0
LINE
  5
144
330
17
100
AcDbEntity
  8
0
 62
211
100
AcDbLine
 10
825.0
 20
350.0
 30
0.0
 11
825.0
 21
410.0
 31
0.0
  0
LINE
  5
145
330
17
100
AcDbEntity
  8
0
 62
211
100
AcDbLine
 10
825.0
 20
410.0
 30
0.0
 11
-60.0
 21
410.0
 31
0.0
  0
MTEXT
  5
146
330
17
100
AcDbEntity
  8
TEXTLAYER
100
AcDbMText
 10
880.0
 20
370.0
 30
0.0
 40
2.5
 71
1
  1
 П8\P L=60.0
  7
ISOCPEUR
  0
SOLID
  5
147
330
17
100
AcDbEntity
  8
0
 62
211
100
AcDbTrace
 10
875.8219949186201
 20
355.0
 30
0.0
 11
875.0
 21
350.0
 31
0.0
 12
874.1780050813799
 22
355.0
 32
0.0
 13
874.1780050813799
 23
355.0
 33
0.0
  0
TEXT
  5
148
330
17
100
AcDbEntity
  8
TEXTLAYER
100
AcDbText
 10
-60.0
 20
410.0
 30
0.0
 40
2.5
  1
уровень5 П8L = 1290
  7
ISOCPEUR
 11
-60.0
 21
410.0
 31
0.0
100
AcDbText
  0
LINE
  5
149
330
17
100
AcDbEntity
  8
0
 62
211
100
AcDbLine
 10
875.0
 20
350.0
 30
0.0
 11
875.0
 21
410.0
 31
0.0
  0
LINE
  5
14A
330
17
100
AcDbEntity
  8
0
 62
211
100
AcDbLine
 10
875.0
 20
410.0
 30
0.0
 11
-60.0
 21
410.0
 31
0.0
  0
MTEXT
  5
14B
330
17
100
AcDbEntity
  8
TEXTLAYER
100
AcDbMText
 10
930.0
 20
370.0
 30
0.0
 40
2.5
 71
1
  1
 П8\P L=60.0
  7
ISOCPEUR
  0
SOLID
  5
14C
330
17
100
AcDbEntity
  8
0
 62
211
100
AcDbTrace
 10
925.8219949186201
 20
355.0
 30
0.0
 11
925.0
 21
350.0
 31
0.0
 12
924.1780050813799
 22
355.0
 32
0.0
 13
924.1780050813799
 23
355.0
 33
0.0
  0
TEXT
  5
14D
330
17
100
AcDbEntity
  8
TEXTLAYER
100
AcDbText
 10
-60.0
 20
410.0
 30
0.0
 40
2.5
  1
уровень5 П8L = 1290
  7
ISOCPEUR
 11
-60.0
 21
410.0
 31
0.0
100
AcDbText
  0
LINE
  5
14E
330
17
100
AcDbEntity
  8
0
 62
211
100
AcDbLine
 10
925.0
 20
350.0
 30
0.0
 11
925.0
 21
410.0
 31
0.0
  0
LINE
  5
14F
330
17
100
AcDbEntity
  8
0
 62
211
100
AcDbLine
 10
925.0
 20
410.0
 30
0.0
 11
-60.0
 21
410.0
 31
0.0
  0
MTEXT
  5
150
330
17
100
AcDbEntity
  8
TEXTLAYER
100
AcDbMText
 10
1030.0
 20
370.0
 30
0.0
 40
2.5
 71
1
  1
 П8\P L=60.0
  7
ISOCPEUR
  0
SOLID
  5
151
330
17
100
AcDbEntity
  8
0
 62
211
100
AcDbTrace
 10
1025.82199491862
 20
355.0
 30
0.0
 11
1025.0
 21
350.0
 31
0.0
 12
1024.17800508138
 22
355.0
 32
0.0
 13
1024.17800508138
 23
355.0
 33
0.0
  0
TEXT
  5
152
330
17
100
AcDbEntity
  8
TEXTLAYER
100
AcDbText
 10
-60.0
 20
410.0
 30
0.0
 40
2.5
  1
уровень5 П8L = 1290
  7
ISOCPEUR
 11
-60.0
 21
410.0
 31
0.0
100
AcDbText
  0
LINE
  5
153
330
17
100
AcDbEntity
  8
0
 62
211
100
AcDbLine
 10
1025.0
 20
350.0
 30
0.0
 11
1025.0
 21
410.0
 31
0.0
  0
LINE
  5
154
330
17
100
AcDbEntity
  8
0
 62
211
100
AcDbLine
 10
1025.0
 20
410.0
 30
0.0
 11
-60.0
 21
410.0
 31
0.0
  0
MTEXT
  5
155
330
17
100
AcDbEntity
  8
TEXTLAYER
100
AcDbMText
 10
1130.0
 20
370.0
 30
0.0
 40
2.5
 71
1
  1
 П8\P L=60.0
  7
ISOCPEUR
  0
SOLID
  5
156
330
17
100
AcDbEntity
  8
0
 62
211
100
AcDbTrace
 10
1125.82199491862
 20
355.0
 30
0.0
 11
1125.0
 21
350.0
 31
0.0
 12
1124.17800508138
 22
355.0
 32
0.0
 13
1124.17800508138
 23
355.0
 33
0.0
  0
TEXT
  5
157
330
17
100
AcDbEntity
  8
TEXTLAYER
100
AcDbText
 10
-60.0
 20
410.0
 30
0.0
 40
2.5
  1
уровень5 П8L = 1290
  7
ISOCPEUR
 11
-60.0
 21
410.0
 31
0.0
100
AcDbText
  0
LINE
  5
158
330
17
100
AcDbEntity
  8
0
 62
211
100
AcDbLine
 10
1125.0
 20
350.0
 30
0.0
 11
1125.0
 21
410.0
 31
0.0
  0
LINE
  5
159
330
17
100
AcDbEntity
  8
0
 62
211
100
AcDbLine
 10
1125.0
 20
410.0
 30
0.0
 11
-60.0
 21
410.0
 31
0.0
  0
LINE
  5
15A
330
17
100
AcDbEntity
  8
0
 62
241
100
AcDbLine
 10
-320.0
 20
70.0
 30
0.0
 11
-20.0
 21
70.0
 31
0.0
  0
INSERT
  5
15B
330
17
100
AcDbEntity
  8
supply_air_unit
100
AcDbBlockReference
  2
supply_air_unit
 10
-320.0
 20
70.0
 30
0.0
 41
2.0
 42
2.0
  0
TEXT
  5
15D
330
17
100
AcDbEntity
  8
TEXTLAYER
100
AcDbText
 10
-320.0
 20
82.0
 30
0.0
 40
2.5
  1
П1 L= 420 m3/h
  7
ISOCPEUR
 72
1
 11
-320.0
 21
82.0
 31
0.0
100
AcDbText
  0
LINE
  5
15E
330
17
100
AcDbEntity
  8
0
 62
241
100
AcDbLine
 10
-320.0
 20
70.0
 30
0.0
 11
-20.0
 21
70.0
 31
0.0
  0
INSERT
  5
15F
330
17
100
AcDbEntity
  8
supply_air_unit
100
AcDbBlockReference
  2
supply_air_unit
 10
-320.0
 20
70.0
 30
0.0
 41
2.0
 42
2.0
  0
TEXT
  5
161
330
17
100
AcDbEntity
  8
TEXTLAYER
100
AcDbText
 10
-320.0
 20
82.0
 30
0.0
 40
2.5
  1
П1 L= 420 m3/h
  7
ISOCPEUR
 72
1
 11
-320.0
 21
82.0
 31
0.0
100
AcDbText
  0
LINE
  5
162
330
17
100
AcDbEntity
  8
0
 62
241
100
AcDbLine
 10
-320.0
 20
70.0
 30
0.0
 11
-20.0
 21
70.0
 31
0.0
  0
INSERT
  5
163
330
17
100
AcDbEntity
  8
supply_air_unit
100
AcDbBlockReference
  2
supply_air_unit
 10
-320.0
 20
70.0
 30
0.0
 41
2.0
 42
2.0
  0
TEXT
  5
165
330
17
100
AcDbEntity
  8
TEXTLAYER
100
AcDbText
 10
-320.0
 20
82.0
 30
0.0
 40
2.5
  1
П1 L= 420 m3/h
  7
ISOCPEUR
 72
1
 11
-320.0
 21
82.0
 31
0.0
100
AcDbText
  0
LINE
  5
166
330
17
100
AcDbEntity
  8
0
 62
6
100
AcDbLine
 10
-340.0
 20
90.0
 30
0.0
 11
-40.0
 21
90.0
 31
0.0
  0
INSERT
  5
167
330
17
100
AcDbEntity
  8
supply_air_unit
100
AcDbBlockReference
  2
supply_air_unit
 10
-340.0
 20
90.0
 30
0.0
 41
2.0
 42
2.0
  0
TEXT
  5
169
330
17
100
AcDbEntity
  8
TEXTLAYER
100
AcDbText
 10
-340.0
 20
102.0
 30
0.0
 40
2.5
  1
П2 L= 10 710 m3/h
  7
ISOCPEUR
 72
1
 11
-340.0
 21
102.0
 31
0.0
100
AcDbText
  0
LINE
  5
16A
330
17
100
AcDbEntity
  8
0
 62
6
100
AcDbLine
 10
-340.0
 20
90.0
 30
0.0
 11
-40.0
 21
90.0
 31
0.0
  0
INSERT
  5
16B
330
17
100
AcDbEntity
  8
supply_air_unit
100
AcDbBlockReference
  2
supply_air_unit
 10
-340.0
 20
90.0
 30
0.0
 41
2.0
 42
2.0
  0
TEXT
  5
16D
330
17
100
AcDbEntity
  8
TEXTLAYER
100
AcDbText
 10
-340.0
 20
102.0
 30
0.0
 40
2.5
  1
П2 L= 10 710 m3/h
  7
ISOCPEUR
 72
1
 11
-340.0
 21
102.0
 31
0.0
100
AcDbText
  0
LINE
  5
16E
330
17
100
AcDbEntity
  8
0
 62
6
100
AcDbLine
 10
-340.0
 20
90.0
 30
0.0
 11
-40.0
 21
90.0
 31
0.0
  0
INSERT
  5
16F
330
17
100
AcDbEntity
  8
supply_air_unit
100
AcDbBlockReference
  2
supply_air_unit
 10
-340.0
 20
90.0
 30
0.0
 41
2.0
 42
2.0
  0
TEXT
  5
171
330
17
100
AcDbEntity
  8
TEXTLAYER
100
AcDbText
 10
-340.0
 20
102.0
 30
0.0
 40
2.5
  1
П2 L= 10 710 m3/h
  7
ISOCPEUR
 72
1
 11
-340.0
 21
102.0
 31
0.0
100
AcDbText
  0
LINE
  5
172
330
17
100
AcDbEntity
  8
0
 62
6
100
AcDbLine
 10
-340.0
 20
90.0
 30
0.0
 11
-40.0
 21
90.0
 31
0.0
  0
INSERT
  5
173
330
17
100
AcDbEntity
  8
supply_air_unit
100
AcDbBlockReference
  2
supply_air_unit
 10
-340.0
 20
90.0
 30
0.0
 41
2.0
 42
2.0
  0
TEXT
  5
175
330
17
100
AcDbEntity
  8
TEXTLAYER
100
AcDbText
 10
-340.0
 20
102.0
 30
0.0
 40
2.5
  1
П2 L= 10 710 m3/h
  7
ISOCPEUR
 72
1
 11
-340.0
 21
102.0
 31
0.0
100
AcDbText
  0
LINE
  5
176
330
17
100
AcDbEntity
  8
0
 62
6
100
AcDbLine
 10
-340.0
 20
90.0
 30
0.0
 11
-40.0
 21
90.0
 31
0.0
  0
INSERT
  5
177
330
17
100
AcDbEntity
  8
supply_air_unit
100
AcDbBlockReference
  2
supply_air_unit
 10
-340.0
 20
90.0
 30
0.0
 41
2.0
 42
2.0
  0
TEXT
  5
179
330
17
100
AcDbEntity
  8
TEXTLAYER
100
AcDbText
 10
-340.0
 20
102.0
 30
0.0
 40
2.5
  1
П2 L= 10 710 m3/h
  7
ISOCPEUR
 72
1
 11
-340.0
 21
102.0
 31
0.0
100
AcDbText
  0
LINE
  5
17A
330
17
100
AcDbEntity
  8
0
 62
6
100
AcDbLine
 10
-340.0
 20
90.0
 30
0.0
 11
-40.0
 21
90.0
 31
0.0
  0
INSERT
  5
17B
330
17
100
AcDbEntity
  8
supply_air_unit
100
AcDbBlockReference
  2
supply_air_unit
 10
-340.0
 20
90.0
 30
0.0
 41
2.0
 42
2.0
  0
TEXT
  5
17D
330
17
100
AcDbEntity
  8
TEXTLAYER
100
AcDbText
 10
-340.0
 20
102.0
 30
0.0
 40
2.5
  1
П2 L= 10 710 m3/h
  7
ISOCPEUR
 72
1
 11
-340.0
 21
102.0
 31
0.0
100
AcDbText
  0
LINE
  5
17E
330
17
100
AcDbEntity
  8
0
 62
6
100
AcDbLine
 10
-340.0
 20
90.0
 30
0.0
 11
-40.0
 21
90.0
 31
0.0
  0
INSERT
  5
17F
330
17
100
AcDbEntity
  8
supply_air_unit
100
AcDbBlockReference
  2
supply_air_unit
 10
-340.0
 20
90.0
 30
0.0
 41
2.0
 42
2.0
  0
TEXT
  5
181
330
17
100
AcDbEntity
  8
TEXTLAYER
100
AcDbText
 10
-340.0
 20
102.0
 30
0.0
 40
2.5
  1
П2 L= 10 710 m3/h
  7
ISOCPEUR
 72
1
 11
-340.0
 21
102.0
 31
0.0
100
AcDbText
  0
LINE
  5
182
330
17
100
AcDbEntity
  8
0
 62
6
100
AcDbLine
 10
-340.0
 20
90.0
 30
0.0
 11
-40.0
 21
90.0
 31
0.0
  0
INSERT
  5
183
330
17
100
AcDbEntity
  8
supply_air_unit
100
AcDbBlockReference
  2
supply_air_unit
 10
-340.0
 20
90.0
 30
0.0
 41
2.0
 42
2.0
  0
TEXT
  5
185
330
17
100
AcDbEntity
  8
TEXTLAYER
100
AcDbText
 10
-340.0
 20
102.0
 30
0.0
 40
2.5
  1
П2 L= 10 710 m3/h
  7
ISOCPEUR
 72
1
 11
-340.0
 21
102.0
 31
0.0
100
AcDbText
  0
LINE
  5
186
330
17
100
AcDbEntity
  8
0
 62
6
100
AcDbLine
 10
-340.0
 20
90.0
 30
0.0
 11
-40.0
 21
90.0
 31
0.0
  0
INSERT
  5
187
330
17
100
AcDbEntity
  8
supply_air_unit
100
AcDbBlockReference
  2
supply_air_unit
 10
-340.0
 20
90.0
 30
0.0
 41
2.0
 42
2.0
  0
TEXT
  5
189
330
17
100
AcDbEntity
  8
TEXTLAYER
100
AcDbText
 10
-340.0
 20
102.0
 30
0.0
 40
2.5
  1
П2 L= 10 710 m3/h
  7
ISOCPEUR
 72
1
 11
-340.0
 21
102.0
 31
0.0
100
AcDbText
  0
LINE
  5
18A
330
17
100
AcDbEntity
  8
0
 62
6
100
AcDbLine
 10
-340.0
 20
90.0
 30
0.0
 11
-40.0
 21
90.0
 31
0.0
  0
INSERT
  5
18B
330
17
100
AcDbEntity
  8
supply_air_unit
100
AcDbBlockReference
  2
supply_air_unit
 10
-340.0
 20
90.0
 30
0.0
 41
2.0
 42
2.0
  0
TEXT
  5
18D
330
17
100
AcDbEntity
  8
TEXTLAYER
100
AcDbText
 10
-340.0
 20
102.0
 30
0.0
 40
2.5
  1
П2 L= 10 710 m3/h
  7
ISOCPEUR
 72
1
 11
-340.0
 21
102.0
 31
0.0
100
AcDbText
  0
LINE
  5
18E
330
17
100
AcDbEntity
  8
0
 62
6
100
AcDbLine
 10
-340.0
 20
90.0
 30
0.0
 11
-40.0
 21
90.0
 31
0.0
  0
INSERT
  5
18F
330
17
100
AcDbEntity
  8
supply_air_unit
100
AcDbBlockReference
  2
supply_air_unit
 10
-340.0
 20
90.0
 30
0.0
 41
2.0
 42
2.0
  0
TEXT
  5
191
330
17
100
AcDbEntity
  8
TEXTLAYER
100
AcDbText
 10
-340.0
 20
102.0
 30
0.0
 40
2.5
  1
П2 L= 10 710 m3/h
  7
ISOCPEUR
 72
1
 11
-340.0
 21
102.0
 31
0.0
100
AcDbText
  0
LINE
  5
192
330
17
100
AcDbEntity
  8
0
 62
6
100
AcDbLine
 10
-340.0
 20
90.0
 30
0.0
 11
-40.0
 21
90.0
 31
0.0
  0
INSERT
  5
193
330
17
100
AcDbEntity
  8
supply_air_unit
100
AcDbBlockReference
  2
supply_air_unit
 10
-340.0
 20
90.0
 30
0.0
 41
2.0
 42
2.0
  0
TEXT
  5
195
330
17
100
AcDbEntity
  8
TEXTLAYER
100
AcDbText
 10
-340.0
 20
102.0
 30
0.0
 40
2.5
  1
П2 L= 10 710 m3/h
  7
ISOCPEUR
 72
1
 11
-340.0
 21
102.0
 31
0.0
100
AcDbText
  0
LINE
  5
196
330
17
100
AcDbEntity
  8
0
 62
211
100
AcDbLine
 10
-60.0
 20
0.0
 30
0.0
 11
-60.0
 21
410.0
 31
0.0
  0
INSERT
  5
197
330
17
100
AcDbEntity
  8
supply_air_unit
100
AcDbBlockReference
  2
supply_air_unit
 10
-60.0
 20
0.0
 30
0.0
 41
2.0
 42
2.0
  0
TEXT
  5
199
330
17
100
AcDbEntity
  8
TEXTLAYER
100
AcDbText
 10
-60.0
 20
12.0
 30
0.0
 40
2.5
  1
П8 L= 1 290 m3/h
  7
ISOCPEUR
 72
1
 11
-60.0
 21
12.0
 31
0.0
100
AcDbText
  0
MTEXT
  5
19A
330
17
100
AcDbEntity
  8
TEXTLAYER
100
AcDbMText
 10
30.0
 20
20.0
 30
0.0
 40
2.5
 71
1
  1
 В15\P L=1800.0
  7
ISOCPEUR
  0
SOLID
  5
19B
330
17
100
AcDbEntity
  8
0
 62
210
100
AcDbTrace
 10
25.821994918620128
 20
5.0
 30
0.0
 11
25.0
 21
0.0
 31
0.0
 12
24.178005081379872
 22
5.0
 32
0.0
 13
24.178005081379872
 23
5.0
 33
0.0
  0
TEXT
  5
19C
330
17
100
AcDbEntity
  8
TEXTLAYER
100
AcDbText
 10
1600.0
 20
-100.0
 30
0.0
 40
2.5
  1
уровень1 В15L = 2280
  7
ISOCPEUR
 11
1600.0
 21
-100.0
 31
0.0
100
AcDbText
  0
LINE
  5
19D
330
17
100
AcDbEntity
  8
0
 62
210
100
AcDbLine
 10
25.0
 20
0.0
 30
0.0
 11
25.0
 21
-100.0
 31
0.0
  0
LINE
  5
19E
330
17
100
AcDbEntity
  8
0
 62
210
100
AcDbLine
 10
25.0
 20
-100.0
 30
0.0
 11
1600.0
 21
-100.0
 31
0.0
  0
MTEXT
  5
19F
330
17
100
AcDbEntity
  8
TEXTLAYER
100
AcDbMText
 10
80.0
 20
20.0
 30
0.0
 40
2.5
 71
1
  1
 В15\P L=480.0
  7
ISOCPEUR
  0
SOLID
  5
1A0
330
17
100
AcDbEntity
  8
0
 62
210
100
AcDbTrace
 10
75.82199491862012
 20
5.0
 30
0.0
 11
75.0
 21
0.0
 31
0.0
 12
74.17800508137988
 22
5.0
 32
0.0
 13
74.17800508137988
 23
5.0
 33
0.0
  0
TEXT
  5
1A1
330
17
100
AcDbEntity
  8
TEXTLAYER
100
AcDbText
 10
1600.0
 20
-100.0
 30
0.0
 40
2.5
  1
уровень1 В15L = 2280
  7
ISOCPEUR
 11
1600.0
 21
-100.0
 31
0.0
100
AcDbText
  0
LINE
  5
1A2
330
17
100
AcDbEntity
  8
0
 62
210
100
AcDbLine
 10
75.0
 20
0.0
 30
0.0
 11
75.0
 21
-100.0
 31
0.0
  0
LINE
  5
1A3
330
17
100
AcDbEntity
  8
0
 62
210
100
AcDbLine
 10
75.0
 20
-100.0
 30
0.0
 11
1600.0
 21
-100.0
 31
0.0
  0
MTEXT
  5
1A4
330
17
100
AcDbEntity
  8
TEXTLAYER
100
AcDbMText
 10
130.0
 20
20.0
 30
0.0
 40
2.5
 71
1
  1
 В14\P L=1820.0
  7
ISOCPEUR
  0
SOLID
  5
1A5
330
17
100
AcDbEntity
  8
0
 62
139
100
AcDbTrace
 10
125.82199491862012
 20
5.0
 30
0.0
 11
125.0
 21
0.0
 31
0.0
 12
124.17800508137988
 22
5.0
 32
0.0
 13
124.17800508137988
 23
5.0
 33
0.0
  0
TEXT
  5
1A6
330
17
100
AcDbEntity
  8
TEXTLAYER
100
AcDbText
 10
1580.0
 20
-80.0
 30
0.0
 40
2.5
  1
уровень1 В14L = 2150
  7
ISOCPEUR
 11
1580.0
 21
-80.0
 31
0.0
100
AcDbText
  0
LINE
  5
1A7
330
17
100
AcDbEntity
  8
0
 62
139
100
AcDbLine
 10
125.0
 20
0.0
 30
0.0
 11
125.0
 21
-80.0
 31
0.0
  0
LINE
  5
1A8
330
17
100
AcDbEntity
  8
0
 62
139
100
AcDbLine
 10
125.0
 20
-80.0
 30
0.0
 11
1580.0
 21
-80.0
 31
0.0
  0
MTEXT
  5
1A9
330
17
100
AcDbEntity
  8
TEXTLAYER
100
AcDbMText
 10
180.0
 20
20.0
 30
0.0
 40
2.5
 71
1
  1
 В17\P L=120.0
  7
ISOCPEUR
  0
SOLID
  5
1AA
330
17
100
AcDbEntity
  8
0
 62
1
100
AcDbTrace
 10
175.82199491862013
 20
5.0
 30
0.0
 11
175.0
 21
0.0
 31
0.0
 12
174.17800508137987
 22
5.0
 32
0.0
 13
174.17800508137987
 23
5.0
 33
0.0
  0
TEXT
  5
1AB
330
17
100
AcDbEntity
  8
TEXTLAYER
100
AcDbText
 10
1620.0
 20
-120.0
 30
0.0
 40
2.5
  1
уровень1 В17L = 120
  7
ISOCPEUR
 11
1620.0
 21
-120.0
 31
0.0
100
AcDbText
  0
LINE
  5
1AC
330
17
100
AcDbEntity
  8
0
 62
1
100
AcDbLine
 10
175.0
 20
0.0
 30
0.0
 11
175.0
 21
-120.0
 31
0.0
  0
LINE
  5
1AD
330
17
100
AcDbEntity
  8
0
 62
1
100
AcDbLine
 10
175.0
 20
-120.0
 30
0.0
 11
1620.0
 21
-120.0
 31
0.0
  0
MTEXT
  5
1AE
330
17
100
AcDbEntity
  8
TEXTLAYER
100
AcDbMText
 10
230.0
 20
20.0
 30
0.0
 40
2.5
 71
1
  1
 В14\P L=150.0
  7
ISOCPEUR
  0
SOLID
  5
1AF
330
17
100
AcDbEntity
  8
0
 62
139
100
AcDbTrace
 10
225.82199491862013
 20
5.0
 30
0.0
 11
225.0
 21
0.0
 31
0.0
 12
224.17800508137987
 22
5.0
 32
0.0
 13
224.17800508137987
 23
5.0
 33
0.0
  0
TEXT
  5
1B0
330
17
100
AcDbEntity
  8
TEXTLAYER
100
AcDbText
 10
1580.0
 20
-80.0
 30
0.0
 40
2.5
  1
уровень1 В14L = 2150
  7
ISOCPEUR
 11
1580.0
 21
-80.0
 31
0.0
100
AcDbText
  0
LINE
  5
1B1
330
17
100
AcDbEntity
  8
0
 62
139
100
AcDbLine
 10
225.0
 20
0.0
 30
0.0
 11
225.0
 21
-80.0
 31
0.0
  0
LINE
  5
1B2
330
17
100
AcDbEntity
  8
0
 62
139
100
AcDbLine
 10
225.0
 20
-80.0
 30
0.0
 11
1580.0
 21
-80.0
 31
0.0
  0
MTEXT
  5
1B3
330
17
100
AcDbEntity
  8
TEXTLAYER
100
AcDbMText
 10
280.0
 20
20.0
 30
0.0
 40
2.5
 71
1
  1
 В13\P L=1800.0
  7
ISOCPEUR
  0
SOLID
  5
1B4
330
17
100
AcDbEntity
  8
0
 62
3
100
AcDbTrace
 10
275.82199491862013
 20
5.0
 30
0.0
 11
275.0
 21
0.0
 31
0.0
 12
274.17800508137987
 22
5.0
 32
0.0
 13
274.17800508137987
 23
5.0
 33
0.0
  0
TEXT
  5
1B5
330
17
100
AcDbEntity
  8
TEXTLAYER
100
AcDbText
 10
1560.0
 20
-60.0
 30
0.0
 40
2.5
  1
уровень1 В13L = 2150
  7
ISOCPEUR
 11
1560.0
 21
-60.0
 31
0.0
100
AcDbText
  0
LINE
  5
1B6
330
17
100
AcDbEntity
  8
0
 62
3
100
AcDbLine
 10
275.0
 20
0.0
 30
0.0
 11
275.0
 21
-60.0
 31
0.0
  0
LINE
  5
1B7
330
17
100
AcDbEntity
  8
0
 62
3
100
AcDbLine
 10
275.0
 20
-60.0
 30
0.0
 11
1560.0
 21
-60.0
 31
0.0
  0
MTEXT
  5
1B8
330
17
100
AcDbEntity
  8
TEXTLAYER
100
AcDbMText
 10
330.0
 20
20.0
 30
0.0
 40
2.5
 71
1
  1
 В13\P L=350.0
  7
ISOCPEUR
  0
SOLID
  5
1B9
330
17
100
AcDbEntity
  8
0
 62
3
100
AcDbTrace
 10
325.82199491862013
 20
5.0
 30
0.0
 11
325.0
 21
0.0
 31
0.0
 12
324.17800508137987
 22
5.0
 32
0.0
 13
324.17800508137987
 23
5.0
 33
0.0
  0
TEXT
  5
1BA
330
17
100
AcDbEntity
  8
TEXTLAYER
100
AcDbText
 10
1560.0
 20
-60.0
 30
0.0
 40
2.5
  1
уровень1 В13L = 2150
  7
ISOCPEUR
 11
1560.0
 21
-60.0
 31
0.0
100
AcDbText
  0
LINE
  5
1BB
330
17
100
AcDbEntity
  8
0
 62
3
100
AcDbLine
 10
325.0
 20
0.0
 30
0.0
 11
325.0
 21
-60.0
 31
0.0
  0
LINE
  5
1BC
330
17
100
AcDbEntity
  8
0
 62
3
100
AcDbLine
 10
325.0
 20
-60.0
 30
0.0
 11
1560.0
 21
-60.0
 31
0.0
  0
MTEXT
  5
1BD
330
17
100
AcDbEntity
  8
TEXTLAYER
100
AcDbMText
 10
380.0
 20
20.0
 30
0.0
 40
2.5
 71
1
  1
 В11\P L=350.0
  7
ISOCPEUR
  0
SOLID
  5
1BE
330
17
100
AcDbEntity
  8
0
 62
6
100
AcDbTrace
 10
375.82199491862013
 20
5.0
 30
0.0
 11
375.0
 21
0.0
 31
0.0
 12
374.17800508137987
 22
5.0
 32
0.0
 13
374.17800508137987
 23
5.0
 33
0.0
  0
TEXT
  5
1BF
330
17
100
AcDbEntity
  8
TEXTLAYER
100
AcDbText
 10
1540.0
 20
-40.0
 30
0.0
 40
2.5
  1
уровень1 В11L = 2450
  7
ISOCPEUR
 11
1540.0
 21
-40.0
 31
0.0
100
AcDbText
  0
LINE
  5
1C0
330
17
100
AcDbEntity
  8
0
 62
6
100
AcDbLine
 10
375.0
 20
0.0
 30
0.0
 11
375.0
 21
-40.0
 31
0.0
  0
LINE
  5
1C1
330
17
100
AcDbEntity
  8
0
 62
6
100
AcDbLine
 10
375.0
 20
-40.0
 30
0.0
 11
1540.0
 21
-40.0
 31
0.0
  0
MTEXT
  5
1C2
330
17
100
AcDbEntity
  8
TEXTLAYER
100
AcDbMText
 10
430.0
 20
20.0
 30
0.0
 40
2.5
 71
1
  1
 В11\P L=1800.0
  7
ISOCPEUR
  0
SOLID
  5
1C3
330
17
100
AcDbEntity
  8
0
 62
6
100
AcDbTrace
 10
425.82199491862013
 20
5.0
 30
0.0
 11
425.0
 21
0.0
 31
0.0
 12
424.17800508137987
 22
5.0
 32
0.0
 13
424.17800508137987
 23
5.0
 33
0.0
  0
TEXT
  5
1C4
330
17
100
AcDbEntity
  8
TEXTLAYER
100
AcDbText
 10
1540.0
 20
-40.0
 30
0.0
 40
2.5
  1
уровень1 В11L = 2450
  7
ISOCPEUR
 11
1540.0
 21
-40.0
 31
0.0
100
AcDbText
  0
LINE
  5
1C5
330
17
100
AcDbEntity
  8
0
 62
6
100
AcDbLine
 10
425.0
 20
0.0
 30
0.0
 11
425.0
 21
-40.0
 31
0.0
  0
LINE
  5
1C6
330
17
100
AcDbEntity
  8
0
 62
6
100
AcDbLine
 10
425.0
 20
-40.0
 30
0.0
 11
1540.0
 21
-40.0
 31
0.0
  0
MTEXT
  5
1C7
330
17
100
AcDbEntity
  8
TEXTLAYER
100
AcDbMText
 10
480.0
 20
20.0
 30
0.0
 40
2.5
 71
1
  1
 В11\P L=300.0
  7
ISOCPEUR
  0
SOLID
  5
1C8
330
17
100
AcDbEntity
  8
0
 62
6
100
AcDbTrace
 10
475.82199491862013
 20
5.0
 30
0.0
 11
475.0
 21
0.0
 31
0.0
 12
474.17800508137987
 22
5.0
 32
0.0
 13
474.17800508137987
 23
5.0
 33
0.0
  0
TEXT
  5
1C9
330
17
100
AcDbEntity
  8
TEXTLAYER
100
AcDbText
 10
1540.0
 20
-40.0
 30
0.0
 40
2.5
  1
уровень1 В11L = 2450
  7
ISOCPEUR
 11
1540.0
 21
-40.0
 31
0.0
100
AcDbText
  0
LINE
  5
1CA
330
17
100
AcDbEntity
  8
0
 62
6
100
AcDbLine
 10
475.0
 20
0.0
 30
0.0
 11
475.0
 21
-40.0
 31
0.0
  0
LINE
  5
1CB
330
17
100
AcDbEntity
  8
0
 62
6
100
AcDbLine
 10
475.0
 20
-40.0
 30
0.0
 11
1540.0
 21
-40.0
 31
0.0
  0
MTEXT
  5
1CC
330
17
100
AcDbEntity
  8
TEXTLAYER
100
AcDbMText
 10
530.0
 20
20.0
 30
0.0
 40
2.5
 71
1
  1
 В10\P L=1800.0
  7
ISOCPEUR
  0
SOLID
  5
1CD
330
17
100
AcDbEntity
  8
0
 62
201
100
AcDbTrace
 10
525.8219949186201
 20
5.0
 30
0.0
 11
525.0
 21
0.0
 31
0.0
 12
524.1780050813799
 22
5.0
 32
0.0
 13
524.1780050813799
 23
5.0
 33
0.0
  0
TEXT
  5
1CE
330
17
100
AcDbEntity
  8
TEXTLAYER
100
AcDbText
 10
1520.0
 20
-20.0
 30
0.0
 40
2.5
  1
уровень1 В10L = 1800
  7
ISOCPEUR
 11
1520.0
 21
-20.0
 31
0.0
100
AcDbText
  0
LINE
  5
1CF
330
17
100
AcDbEntity
  8
0
 62
201
100
AcDbLine
 10
525.0
 20
0.0
 30
0.0
 11
525.0
 21
-20.0
 31
0.0
  0
LINE
  5
1D0
330
17
100
AcDbEntity
  8
0
 62
201
100
AcDbLine
 10
525.0
 20
-20.0
 30
0.0
 11
1520.0
 21
-20.0
 31
0.0
  0
MTEXT
  5
1D1
330
17
100
AcDbEntity
  8
TEXTLAYER
100
AcDbMText
 10
580.0
 20
20.0
 30
0.0
 40
2.5
 71
1
  1
 В14\P L=180.0
  7
ISOCPEUR
  0
SOLID
  5
1D2
330
17
100
AcDbEntity
  8
0
 62
139
100
AcDbTrace
 10
575.8219949186201
 20
5.0
 30
0.0
 11
575.0
 21
0.0
 31
0.0
 12
574.1780050813799
 22
5.0
 32
0.0
 13
574.1780050813799
 23
5.0
 33
0.0
  0
TEXT
  5
1D3
330
17
100
AcDbEntity
  8
TEXTLAYER
100
AcDbText
 10
1580.0
 20
-80.0
 30
0.0
 40
2.5
  1
уровень1 В14L = 2150
  7
ISOCPEUR
 11
1580.0
 21
-80.0
 31
0.0
100
AcDbText
  0
LINE
  5
1D4
330
17
100
AcDbEntity
  8
0
 62
139
100
AcDbLine
 10
575.0
 20
0.0
 30
0.0
 11
575.0
 21
-80.0
 31
0.0
  0
LINE
  5
1D5
330
17
100
AcDbEntity
  8
0
 62
139
100
AcDbLine
 10
575.0
 20
-80.0
 30
0.0
 11
1580.0
 21
-80.0
 31
0.0
  0
MTEXT
  5
1D6
330
17
100
AcDbEntity
  8
TEXTLAYER
100
AcDbMText
 10
630.0
 20
20.0
 30
0.0
 40
2.5
 71
1
  1
 В19\P L=90.0
  7
ISOCPEUR
  0
SOLID
  5
1D7
330
17
100
AcDbEntity
  8
0
 62
7
100
AcDbTrace
 10
625.8219949186201
 20
5.0
 30
0.0
 11
625.0
 21
0.0
 31
0.0
 12
624.1780050813799
 22
5.0
 32
0.0
 13
624.1780050813799
 23
5.0
 33
0.0
  0
TEXT
  5
1D8
330
17
100
AcDbEntity
  8
TEXTLAYER
100
AcDbText
 10
1640.0
 20
-140.0
 30
0.0
 40
2.5
  1
уровень1 В19L = 510
  7
ISOCPEUR
 11
1640.0
 21
-140.0
 31
0.0
100
AcDbText
  0
LINE
  5
1D9
330
17
100
AcDbEntity
  8
0
 62
7
100
AcDbLine
 10
625.0
 20
0.0
 30
0.0
 11
625.0
 21
-140.0
 31
0.0
  0
LINE
  5
1DA
330
17
100
AcDbEntity
  8
0
 62
7
100
AcDbLine
 10
625.0
 20
-140.0
 30
0.0
 11
1640.0
 21
-140.0
 31
0.0
  0
MTEXT
  5
1DB
330
17
100
AcDbEntity
  8
TEXTLAYER
100
AcDbMText
 10
680.0
 20
20.0
 30
0.0
 40
2.5
 71
1
  1
 В19\P L=90.0
  7
ISOCPEUR
  0
SOLID
  5
1DC
330
17
100
AcDbEntity
  8
0
 62
7
100
AcDbTrace
 10
675.8219949186201
 20
5.0
 30
0.0
 11
675.0
 21
0.0
 31
0.0
 12
674.1780050813799
 22
5.0
 32
0.0
 13
674.1780050813799
 23
5.0
 33
0.0
  0
TEXT
  5
1DD
330
17
100
AcDbEntity
  8
TEXTLAYER
100
AcDbText
 10
1640.0
 20
-140.0
 30
0.0
 40
2.5
  1
уровень1 В19L = 510
  7
ISOCPEUR
 11
1640.0
 21
-140.0
 31
0.0
100
AcDbText
  0
LINE
  5
1DE
330
17
100
AcDbEntity
  8
0
 62
7
100
AcDbLine
 10
675.0
 20
0.0
 30
0.0
 11
675.0
 21
-140.0
 31
0.0
  0
LINE
  5
1DF
330
17
100
AcDbEntity
  8
0
 62
7
100
AcDbLine
 10
675.0
 20
-140.0
 30
0.0
 11
1640.0
 21
-140.0
 31
0.0
  0
MTEXT
  5
1E0
330
17
100
AcDbEntity
  8
TEXTLAYER
100
AcDbMText
 10
730.0
 20
20.0
 30
0.0
 40
2.5
 71
1
  1
 В19\P L=75.0
  7
ISOCPEUR
  0
SOLID
  5
1E1
330
17
100
AcDbEntity
  8
0
 62
7
100
AcDbTrace
 10
725.8219949186201
 20
5.0
 30
0.0
 11
725.0
 21
0.0
 31
0.0
 12
724.1780050813799
 22
5.0
 32
0.0
 13
724.1780050813799
 23
5.0
 33
0.0
  0
TEXT
  5
1E2
330
17
100
AcDbEntity
  8
TEXTLAYER
100
AcDbText
 10
1640.0
 20
-140.0
 30
0.0
 40
2.5
  1
уровень1 В19L = 510
  7
ISOCPEUR
 11
1640.0
 21
-140.0
 31
0.0
100
AcDbText
  0
LINE
  5
1E3
330
17
100
AcDbEntity
  8
0
 62
7
100
AcDbLine
 10
725.0
 20
0.0
 30
0.0
 11
725.0
 21
-140.0
 31
0.0
  0
LINE
  5
1E4
330
17
100
AcDbEntity
  8
0
 62
7
100
AcDbLine
 10
725.0
 20
-140.0
 30
0.0
 11
1640.0
 21
-140.0
 31
0.0
  0
MTEXT
  5
1E5
330
17
100
AcDbEntity
  8
TEXTLAYER
100
AcDbMText
 10
780.0
 20
20.0
 30
0.0
 40
2.5
 71
1
  1
 В19\P L=75.0
  7
ISOCPEUR
  0
SOLID
  5
1E6
330
17
100
AcDbEntity
  8
0
 62
7
100
AcDbTrace
 10
775.8219949186201
 20
5.0
 30
0.0
 11
775.0
 21
0.0
 31
0.0
 12
774.1780050813799
 22
5.0
 32
0.0
 13
774.1780050813799
 23
5.0
 33
0.0
  0
TEXT
  5
1E7
330
17
100
AcDbEntity
  8
TEXTLAYER
100
AcDbText
 10
1640.0
 20
-140.0
 30
0.0
 40
2.5
  1
уровень1 В19L = 510
  7
ISOCPEUR
 11
1640.0
 21
-140.0
 31
0.0
100
AcDbText
  0
LINE
  5
1E8
330
17
100
AcDbEntity
  8
0
 62
7
100
AcDbLine
 10
775.0
 20
0.0
 30
0.0
 11
775.0
 21
-140.0
 31
0.0
  0
LINE
  5
1E9
330
17
100
AcDbEntity
  8
0
 62
7
100
AcDbLine
 10
775.0
 20
-140.0
 30
0.0
 11
1640.0
 21
-140.0
 31
0.0
  0
MTEXT
  5
1EA
330
17
100
AcDbEntity
  8
TEXTLAYER
100
AcDbMText
 10
830.0
 20
20.0
 30
0.0
 40
2.5
 71
1
  1
 В19\P L=90.0
  7
ISOCPEUR
  0
SOLID
  5
1EB
330
17
100
AcDbEntity
  8
0
 62
7
100
AcDbTrace
 10
825.8219949186201
 20
5.0
 30
0.0
 11
825.0
 21
0.0
 31
0.0
 12
824.1780050813799
 22
5.0
 32
0.0
 13
824.1780050813799
 23
5.0
 33
0.0
  0
TEXT
  5
1EC
330
17
100
AcDbEntity
  8
TEXTLAYER
100
AcDbText
 10
1640.0
 20
-140.0
 30
0.0
 40
2.5
  1
уровень1 В19L = 510
  7
ISOCPEUR
 11
1640.0
 21
-140.0
 31
0.0
100
AcDbText
  0
LINE
  5
1ED
330
17
100
AcDbEntity
  8
0
 62
7
100
AcDbLine
 10
825.0
 20
0.0
 30
0.0
 11
825.0
 21
-140.0
 31
0.0
  0
LINE
  5
1EE
330
17
100
AcDbEntity
  8
0
 62
7
100
AcDbLine
 10
825.0
 20
-140.0
 30
0.0
 11
1640.0
 21
-140.0
 31
0.0
  0
MTEXT
  5
1EF
330
17
100
AcDbEntity
  8
TEXTLAYER
100
AcDbMText
 10
880.0
 20
20.0
 30
0.0
 40
2.5
 71
1
  1
 В19\P L=90.0
  7
ISOCPEUR
  0
SOLID
  5
1F0
330
17
100
AcDbEntity
  8
0
 62
7
100
AcDbTrace
 10
875.8219949186201
 20
5.0
 30
0.0
 11
875.0
 21
0.0
 31
0.0
 12
874.1780050813799
 22
5.0
 32
0.0
 13
874.1780050813799
 23
5.0
 33
0.0
  0
TEXT
  5
1F1
330
17
100
AcDbEntity
  8
TEXTLAYER
100
AcDbText
 10
1640.0
 20
-140.0
 30
0.0
 40
2.5
  1
уровень1 В19L = 510
  7
ISOCPEUR
 11
1640.0
 21
-140.0
 31
0.0
100
AcDbText
  0
LINE
  5
1F2
330
17
100
AcDbEntity
  8
0
 62
7
100
AcDbLine
 10
875.0
 20
0.0
 30
0.0
 11
875.0
 21
-140.0
 31
0.0
  0
LINE
  5
1F3
330
17
100
AcDbEntity
  8
0
 62
7
100
AcDbLine
 10
875.0
 20
-140.0
 30
0.0
 11
1640.0
 21
-140.0
 31
0.0
  0
MTEXT
  5
1F4
330
17
100
AcDbEntity
  8
TEXTLAYER
100
AcDbMText
 10
930.0
 20
20.0
 30
0.0
 40
2.5
 71
1
  1
 В20\P L=120.0
  7
ISOCPEUR
  0
SOLID
  5
1F5
330
17
100
AcDbEntity
  8
0
 62
5
100
AcDbTrace
 10
925.8219949186201
 20
5.0
 30
0.0
 11
925.0
 21
0.0
 31
0.0
 12
924.1780050813799
 22
5.0
 32
0.0
 13
924.1780050813799
 23
5.0
 33
0.0
  0
TEXT
  5
1F6
330
17
100
AcDbEntity
  8
TEXTLAYER
100
AcDbText
 10
1660.0
 20
-160.0
 30
0.0
 40
2.5
  1
уровень1 В20L = 120
  7
ISOCPEUR
 11
1660.0
 21
-160.0
 31
0.0
100
AcDbText
  0
LINE
  5
1F7
330
17
100
AcDbEntity
  8
0
 62
5
100
AcDbLine
 10
925.0
 20
0.0
 30
0.0
 11
925.0
 21
-160.0
 31
0.0
  0
LINE
  5
1F8
330
17
100
AcDbEntity
  8
0
 62
5
100
AcDbLine
 10
925.0
 20
-160.0
 30
0.0
 11
1660.0
 21
-160.0
 31
0.0
  0
MTEXT
  5
1F9
330
17
100
AcDbEntity
  8
TEXTLAYER
100
AcDbMText
 10
30.0
 20
320.0
 30
0.0
 40
2.5
 71
1
  1
 В26\P L=60.0
  7
ISOCPEUR
  0
SOLID
  5
1FA
330
17
100
AcDbEntity
  8
0
 62
142
100
AcDbTrace
 10
25.821994918620128
 20
305.0
 30
0.0
 11
25.0
 21
300.0
 31
0.0
 12
24.178005081379872
 22
305.0
 32
0.0
 13
24.178005081379872
 23
305.0
 33
0.0
  0
TEXT
  5
1FB
330
17
100
AcDbEntity
  8
TEXTLAYER
100
AcDbText
 10
1700.0
 20
100.0
 30
0.0
 40
2.5
  1
уровень5 В26L = 1180
  7
ISOCPEUR
 11
1700.0
 21
100.0
 31
0.0
100
AcDbText
  0
LINE
  5
1FC
330
17
100
AcDbEntity
  8
0
 62
142
100
AcDbLine
 10
25.0
 20
300.0
 30
0.0
 11
25.0
 21
100.0
 31
0.0
  0
LINE
  5
1FD
330
17
100
AcDbEntity
  8
0
 62
142
100
AcDbLine
 10
25.0
 20
100.0
 30
0.0
 11
1700.0
 21
100.0
 31
0.0
  0
MTEXT
  5
1FE
330
17
100
AcDbEntity
  8
TEXTLAYER
100
AcDbMText
 10
80.0
 20
320.0
 30
0.0
 40
2.5
 71
1
  1
 В26\P L=60.0
  7
ISOCPEUR
  0
SOLID
  5
1FF
330
17
100
AcDbEntity
  8
0
 62
142
100
AcDbTrace
 10
75.82199491862012
 20
305.0
 30
0.0
 11
75.0
 21
300.0
 31
0.0
 12
74.17800508137988
 22
305.0
 32
0.0
 13
74.17800508137988
 23
305.0
 33
0.0
  0
TEXT
  5
200
330
17
100
AcDbEntity
  8
TEXTLAYER
100
AcDbText
 10
1700.0
 20
100.0
 30
0.0
 40
2.5
  1
уровень5 В26L = 1180
  7
ISOCPEUR
 11
1700.0
 21
100.0
 31
0.0
100
AcDbText
  0
LINE
  5
201
330
17
100
AcDbEntity
  8
0
 62
142
100
AcDbLine
 10
75.0
 20
300.0
 30
0.0
 11
75.0
 21
100.0
 31
0.0
  0
LINE
  5
202
330
17
100
AcDbEntity
  8
0
 62
142
100
AcDbLine
 10
75.0
 20
100.0
 30
0.0
 11
1700.0
 21
100.0
 31
0.0
  0
MTEXT
  5
203
330
17
100
AcDbEntity
  8
TEXTLAYER
100
AcDbMText
 10
130.0
 20
320.0
 30
0.0
 40
2.5
 71
1
  1
 В26\P L=60.0
  7
ISOCPEUR
  0
SOLID
  5
204
330
17
100
AcDbEntity
  8
0
 62
142
100
AcDbTrace
 10
125.82199491862012
 20
305.0
 30
0.0
 11
125.0
 21
300.0
 31
0.0
 12
124.17800508137988
 22
305.0
 32
0.0
 13
124.17800508137988
 23
305.0
 33
0.0
  0
TEXT
  5
205
330
17
100
AcDbEntity
  8
TEXTLAYER
100
AcDbText
 10
1700.0
 20
100.0
 30
0.0
 40
2.5
  1
уровень5 В26L = 1180
  7
ISOCPEUR
 11
1700.0
 21
100.0
 31
0.0
100
AcDbText
  0
LINE
  5
206
330
17
100
AcDbEntity
  8
0
 62
142
100
AcDbLine
 10
125.0
 20
300.0
 30
0.0
 11
125.0
 21
100.0
 31
0.0
  0
LINE
  5
207
330
17
100
AcDbEntity
  8
0
 62
142
100
AcDbLine
 10
125.0
 20
100.0
 30
0.0
 11
1700.0
 21
100.0
 31
0.0
  0
MTEXT
  5
208
330
17
100
AcDbEntity
  8
TEXTLAYER
100
AcDbMText
 10
180.0
 20
320.0
 30
0.0
 40
2.5
 71
1
  1
 В26\P L=60.0
  7
ISOCPEUR
  0
SOLID
  5
209
330
17
100
AcDbEntity
  8
0
 62
142
100
AcDbTrace
 10
175.82199491862013
 20
305.0
 30
0.0
 11
175.0
 21
300.0
 31
0.0
 12
174.17800508137987
 22
305.0
 32
0.0
 13
174.17800508137987
 23
305.0
 33
0.0
  0
TEXT
  5
20A
330
17
100
AcDbEntity
  8
TEXTLAYER
100
AcDbText
 10
1700.0
 20
100.0
 30
0.0
 40
2.5
  1
уровень5 В26L = 1180
  7
ISOCPEUR
 11
1700.0
 21
100.0
 31
0.0
100
AcDbText
  0
LINE
  5
20B
330
17
100
AcDbEntity
  8
0
 62
142
100
AcDbLine
 10
175.0
 20
300.0
 30
0.0
 11
175.0
 21
100.0
 31
0.0
  0
LINE
  5
20C
330
17
100
AcDbEntity
  8
0
 62
142
100
AcDbLine
 10
175.0
 20
100.0
 30
0.0
 11
1700.0
 21
100.0
 31
0.0
  0
MTEXT
  5
20D
330
17
100
AcDbEntity
  8
TEXTLAYER
100
AcDbMText
 10
230.0
 20
320.0
 30
0.0
 40
2.5
 71
1
  1
 В26\P L=60.0
  7
ISOCPEUR
  0
SOLID
  5
20E
330
17
100
AcDbEntity
  8
0
 62
142
100
AcDbTrace
 10
225.82199491862013
 20
305.0
 30
0.0
 11
225.0
 21
300.0
 31
0.0
 12
224.17800508137987
 22
305.0
 32
0.0
 13
224.17800508137987
 23
305.0
 33
0.0
  0
TEXT
  5
20F
330
17
100
AcDbEntity
  8
TEXTLAYER
100
AcDbText
 10
1700.0
 20
100.0
 30
0.0
 40
2.5
  1
уровень5 В26L = 1180
  7
ISOCPEUR
 11
1700.0
 21
100.0
 31
0.0
100
AcDbText
  0
LINE
  5
210
330
17
100
AcDbEntity
  8
0
 62
142
100
AcDbLine
 10
225.0
 20
300.0
 30
0.0
 11
225.0
 21
100.0
 31
0.0
  0
LINE
  5
211
330
17
100
AcDbEntity
  8
0
 62
142
100
AcDbLine
 10
225.0
 20
100.0
 30
0.0
 11
1700.0
 21
100.0
 31
0.0
  0
MTEXT
  5
212
330
17
100
AcDbEntity
  8
TEXTLAYER
100
AcDbMText
 10
280.0
 20
320.0
 30
0.0
 40
2.5
 71
1
  1
 В26\P L=60.0
  7
ISOCPEUR
  0
SOLID
  5
213
330
17
100
AcDbEntity
  8
0
 62
142
100
AcDbTrace
 10
275.82199491862013
 20
305.0
 30
0.0
 11
275.0
 21
300.0
 31
0.0
 12
274.17800508137987
 22
305.0
 32
0.0
 13
274.17800508137987
 23
305.0
 33
0.0
  0
TEXT
  5
214
330
17
100
AcDbEntity
  8
TEXTLAYER
100
AcDbText
 10
1700.0
 20
100.0
 30
0.0
 40
2.5
  1
уровень5 В26L = 1180
  7
ISOCPEUR
 11
1700.0
 21
100.0
 31
0.0
100
AcDbText
  0
LINE
  5
215
330
17
100
AcDbEntity
  8
0
 62
142
100
AcDbLine
 10
275.0
 20
300.0
 30
0.0
 11
275.0
 21
100.0
 31
0.0
  0
LINE
  5
216
330
17
100
AcDbEntity
  8
0
 62
142
100
AcDbLine
 10
275.0
 20
100.0
 30
0.0
 11
1700.0
 21
100.0
 31
0.0
  0
MTEXT
  5
217
330
17
100
AcDbEntity
  8
TEXTLAYER
100
AcDbMText
 10
330.0
 20
320.0
 30
0.0
 40
2.5
 71
1
  1
 В26\P L=60.0
  7
ISOCPEUR
  0
SOLID
  5
218
330
17
100
AcDbEntity
  8
0
 62
142
100
AcDbTrace
 10
325.82199491862013
 20
305.0
 30
0.0
 11
325.0
 21
300.0
 31
0.0
 12
324.17800508137987
 22
305.0
 32
0.0
 13
324.17800508137987
 23
305.0
 33
0.0
  0
TEXT
  5
219
330
17
100
AcDbEntity
  8
TEXTLAYER
100
AcDbText
 10
1700.0
 20
100.0
 30
0.0
 40
2.5
  1
уровень5 В26L = 1180
  7
ISOCPEUR
 11
1700.0
 21
100.0
 31
0.0
100
AcDbText
  0
LINE
  5
21A
330
17
100
AcDbEntity
  8
0
 62
142
100
AcDbLine
 10
325.0
 20
300.0
 30
0.0
 11
325.0
 21
100.0
 31
0.0
  0
LINE
  5
21B
330
17
100
AcDbEntity
  8
0
 62
142
100
AcDbLine
 10
325.0
 20
100.0
 30
0.0
 11
1700.0
 21
100.0
 31
0.0
  0
MTEXT
  5
21C
330
17
100
AcDbEntity
  8
TEXTLAYER
100
AcDbMText
 10
430.0
 20
320.0
 30
0.0
 40
2.5
 71
1
  1
 В26\P L=60.0
  7
ISOCPEUR
  0
SOLID
  5
21D
330
17
100
AcDbEntity
  8
0
 62
142
100
AcDbTrace
 10
425.82199491862013
 20
305.0
 30
0.0
 11
425.0
 21
300.0
 31
0.0
 12
424.17800508137987
 22
305.0
 32
0.0
 13
424.17800508137987
 23
305.0
 33
0.0
  0
TEXT
  5
21E
330
17
100
AcDbEntity
  8
TEXTLAYER
100
AcDbText
 10
1700.0
 20
100.0
 30
0.0
 40
2.5
  1
уровень5 В26L = 1180
  7
ISOCPEUR
 11
1700.0
 21
100.0
 31
0.0
100
AcDbText
  0
LINE
  5
21F
330
17
100
AcDbEntity
  8
0
 62
142
100
AcDbLine
 10
425.0
 20
300.0
 30
0.0
 11
425.0
 21
100.0
 31
0.0
  0
LINE
  5
220
330
17
100
AcDbEntity
  8
0
 62
142
100
AcDbLine
 10
425.0
 20
100.0
 30
0.0
 11
1700.0
 21
100.0
 31
0.0
  0
MTEXT
  5
221
330
17
100
AcDbEntity
  8
TEXTLAYER
100
AcDbMText
 10
480.0
 20
320.0
 30
0.0
 40
2.5
 71
1
  1
 В26\P L=60.0
  7
ISOCPEUR
  0
SOLID
  5
222
330
17
100
AcDbEntity
  8
0
 62
142
100
AcDbTrace
 10
475.82199491862013
 20
305.0
 30
0.0
 11
475.0
 21
300.0
 31
0.0
 12
474.17800508137987
 22
305.0
 32
0.0
 13
474.17800508137987
 23
305.0
 33
0.0
  0
TEXT
  5
223
330
17
100
AcDbEntity
  8
TEXTLAYER
100
AcDbText
 10
1700.0
 20
100.0
 30
0.0
 40
2.5
  1
уровень5 В26L = 1180
  7
ISOCPEUR
 11
1700.0
 21
100.0
 31
0.0
100
AcDbText
  0
LINE
  5
224
330
17
100
AcDbEntity
  8
0
 62
142
100
AcDbLine
 10
475.0
 20
300.0
 30
0.0
 11
475.0
 21
100.0
 31
0.0
  0
LINE
  5
225
330
17
100
AcDbEntity
  8
0
 62
142
100
AcDbLine
 10
475.0
 20
100.0
 30
0.0
 11
1700.0
 21
100.0
 31
0.0
  0
MTEXT
  5
226
330
17
100
AcDbEntity
  8
TEXTLAYER
100
AcDbMText
 10
530.0
 20
320.0
 30
0.0
 40
2.5
 71
1
  1
 В26\P L=60.0
  7
ISOCPEUR
  0
SOLID
  5
227
330
17
100
AcDbEntity
  8
0
 62
142
100
AcDbTrace
 10
525.8219949186201
 20
305.0
 30
0.0
 11
525.0
 21
300.0
 31
0.0
 12
524.1780050813799
 22
305.0
 32
0.0
 13
524.1780050813799
 23
305.0
 33
0.0
  0
TEXT
  5
228
330
17
100
AcDbEntity
  8
TEXTLAYER
100
AcDbText
 10
1700.0
 20
100.0
 30
0.0
 40
2.5
  1
уровень5 В26L = 1180
  7
ISOCPEUR
 11
1700.0
 21
100.0
 31
0.0
100
AcDbText
  0
LINE
  5
229
330
17
100
AcDbEntity
  8
0
 62
142
100
AcDbLine
 10
525.0
 20
300.0
 30
0.0
 11
525.0
 21
100.0
 31
0.0
  0
LINE
  5
22A
330
17
100
AcDbEntity
  8
0
 62
142
100
AcDbLine
 10
525.0
 20
100.0
 30
0.0
 11
1700.0
 21
100.0
 31
0.0
  0
MTEXT
  5
22B
330
17
100
AcDbEntity
  8
TEXTLAYER
100
AcDbMText
 10
580.0
 20
320.0
 30
0.0
 40
2.5
 71
1
  1
 В26\P L=60.0
  7
ISOCPEUR
  0
SOLID
  5
22C
330
17
100
AcDbEntity
  8
0
 62
142
100
AcDbTrace
 10
575.8219949186201
 20
305.0
 30
0.0
 11
575.0
 21
300.0
 31
0.0
 12
574.1780050813799
 22
305.0
 32
0.0
 13
574.1780050813799
 23
305.0
 33
0.0
  0
TEXT
  5
22D
330
17
100
AcDbEntity
  8
TEXTLAYER
100
AcDbText
 10
1700.0
 20
100.0
 30
0.0
 40
2.5
  1
уровень5 В26L = 1180
  7
ISOCPEUR
 11
1700.0
 21
100.0
 31
0.0
100
AcDbText
  0
LINE
  5
22E
330
17
100
AcDbEntity
  8
0
 62
142
100
AcDbLine
 10
575.0
 20
300.0
 30
0.0
 11
575.0
 21
100.0
 31
0.0
  0
LINE
  5
22F
330
17
100
AcDbEntity
  8
0
 62
142
100
AcDbLine
 10
575.0
 20
100.0
 30
0.0
 11
1700.0
 21
100.0
 31
0.0
  0
MTEXT
  5
230
330
17
100
AcDbEntity
  8
TEXTLAYER
100
AcDbMText
 10
630.0
 20
320.0
 30
0.0
 40
2.5
 71
1
  1
 В26\P L=60.0
  7
ISOCPEUR
  0
SOLID
  5
231
330
17
100
AcDbEntity
  8
0
 62
142
100
AcDbTrace
 10
625.8219949186201
 20
305.0
 30
0.0
 11
625.0
 21
300.0
 31
0.0
 12
624.1780050813799
 22
305.0
 32
0.0
 13
624.1780050813799
 23
305.0
 33
0.0
  0
TEXT
  5
232
330
17
100
AcDbEntity
  8
TEXTLAYER
100
AcDbText
 10
1700.0
 20
100.0
 30
0.0
 40
2.5
  1
уровень5 В26L = 1180
  7
ISOCPEUR
 11
1700.0
 21
100.0
 31
0.0
100
AcDbText
  0
LINE
  5
233
330
17
100
AcDbEntity
  8
0
 62
142
100
AcDbLine
 10
625.0
 20
300.0
 30
0.0
 11
625.0
 21
100.0
 31
0.0
  0
LINE
  5
234
330
17
100
AcDbEntity
  8
0
 62
142
100
AcDbLine
 10
625.0
 20
100.0
 30
0.0
 11
1700.0
 21
100.0
 31
0.0
  0
MTEXT
  5
235
330
17
100
AcDbEntity
  8
TEXTLAYER
100
AcDbMText
 10
680.0
 20
320.0
 30
0.0
 40
2.5
 71
1
  1
 В26\P L=60.0
  7
ISOCPEUR
  0
SOLID
  5
236
330
17
100
AcDbEntity
  8
0
 62
142
100
AcDbTrace
 10
675.8219949186201
 20
305.0
 30
0.0
 11
675.0
 21
300.0
 31
0.0
 12
674.1780050813799
 22
305.0
 32
0.0
 13
674.1780050813799
 23
305.0
 33
0.0
  0
TEXT
  5
237
330
17
100
AcDbEntity
  8
TEXTLAYER
100
AcDbText
 10
1700.0
 20
100.0
 30
0.0
 40
2.5
  1
уровень5 В26L = 1180
  7
ISOCPEUR
 11
1700.0
 21
100.0
 31
0.0
100
AcDbText
  0
LINE
  5
238
330
17
100
AcDbEntity
  8
0
 62
142
100
AcDbLine
 10
675.0
 20
300.0
 30
0.0
 11
675.0
 21
100.0
 31
0.0
  0
LINE
  5
239
330
17
100
AcDbEntity
  8
0
 62
142
100
AcDbLine
 10
675.0
 20
100.0
 30
0.0
 11
1700.0
 21
100.0
 31
0.0
  0
MTEXT
  5
23A
330
17
100
AcDbEntity
  8
TEXTLAYER
100
AcDbMText
 10
730.0
 20
320.0
 30
0.0
 40
2.5
 71
1
  1
 В26\P L=60.0
  7
ISOCPEUR
  0
SOLID
  5
23B
330
17
100
AcDbEntity
  8
0
 62
142
100
AcDbTrace
 10
725.8219949186201
 20
305.0
 30
0.0
 11
725.0
 21
300.0
 31
0.0
 12
724.1780050813799
 22
305.0
 32
0.0
 13
724.1780050813799
 23
305.0
 33
0.0
  0
TEXT
  5
23C
330
17
100
AcDbEntity
  8
TEXTLAYER
100
AcDbText
 10
1700.0
 20
100.0
 30
0.0
 40
2.5
  1
уровень5 В26L = 1180
  7
ISOCPEUR
 11
1700.0
 21
100.0
 31
0.0
100
AcDbText
  0
LINE
  5
23D
330
17
100
AcDbEntity
  8
0
 62
142
100
AcDbLine
 10
725.0
 20
300.0
 30
0.0
 11
725.0
 21
100.0
 31
0.0
  0
LINE
  5
23E
330
17
100
AcDbEntity
  8
0
 62
142
100
AcDbLine
 10
725.0
 20
100.0
 30
0.0
 11
1700.0
 21
100.0
 31
0.0
  0
MTEXT
  5
23F
330
17
100
AcDbEntity
  8
TEXTLAYER
100
AcDbMText
 10
780.0
 20
320.0
 30
0.0
 40
2.5
 71
1
  1
 В26\P L=60.0
  7
ISOCPEUR
  0
SOLID
  5
240
330
17
100
AcDbEntity
  8
0
 62
142
100
AcDbTrace
 10
775.8219949186201
 20
305.0
 30
0.0
 11
775.0
 21
300.0
 31
0.0
 12
774.1780050813799
 22
305.0
 32
0.0
 13
774.1780050813799
 23
305.0
 33
0.0
  0
TEXT
  5
241
330
17
100
AcDbEntity
  8
TEXTLAYER
100
AcDbText
 10
1700.0
 20
100.0
 30
0.0
 40
2.5
  1
уровень5 В26L = 1180
  7
ISOCPEUR
 11
1700.0
 21
100.0
 31
0.0
100
AcDbText
  0
LINE
  5
242
330
17
100
AcDbEntity
  8
0
 62
142
100
AcDbLine
 10
775.0
 20
300.0
 30
0.0
 11
775.0
 21
100.0
 31
0.0
  0
LINE
  5
243
330
17
100
AcDbEntity
  8
0
 62
142
100
AcDbLine
 10
775.0
 20
100.0
 30
0.0
 11
1700.0
 21
100.0
 31
0.0
  0
MTEXT
  5
244
330
17
100
AcDbEntity
  8
TEXTLAYER
100
AcDbMText
 10
830.0
 20
320.0
 30
0.0
 40
2.5
 71
1
  1
 В26\P L=60.0
  7
ISOCPEUR
  0
SOLID
  5
245
330
17
100
AcDbEntity
  8
0
 62
142
100
AcDbTrace
 10
825.8219949186201
 20
305.0
 30
0.0
 11
825.0
 21
300.0
 31
0.0
 12
824.1780050813799
 22
305.0
 32
0.0
 13
824.1780050813799
 23
305.0
 33
0.0
  0
TEXT
  5
246
330
17
100
AcDbEntity
  8
TEXTLAYER
100
AcDbText
 10
1700.0
 20
100.0
 30
0.0
 40
2.5
  1
уровень5 В26L = 1180
  7
ISOCPEUR
 11
1700.0
 21
100.0
 31
0.0
100
AcDbText
  0
LINE
  5
247
330
17
100
AcDbEntity
  8
0
 62
142
100
AcDbLine
 10
825.0
 20
300.0
 30
0.0
 11
825.0
 21
100.0
 31
0.0
  0
LINE
  5
248
330
17
100
AcDbEntity
  8
0
 62
142
100
AcDbLine
 10
825.0
 20
100.0
 30
0.0
 11
1700.0
 21
100.0
 31
0.0
  0
MTEXT
  5
249
330
17
100
AcDbEntity
  8
TEXTLAYER
100
AcDbMText
 10
880.0
 20
320.0
 30
0.0
 40
2.5
 71
1
  1
 В26\P L=60.0
  7
ISOCPEUR
  0
SOLID
  5
24A
330
17
100
AcDbEntity
  8
0
 62
142
100
AcDbTrace
 10
875.8219949186201
 20
305.0
 30
0.0
 11
875.0
 21
300.0
 31
0.0
 12
874.1780050813799
 22
305.0
 32
0.0
 13
874.1780050813799
 23
305.0
 33
0.0
  0
TEXT
  5
24B
330
17
100
AcDbEntity
  8
TEXTLAYER
100
AcDbText
 10
1700.0
 20
100.0
 30
0.0
 40
2.5
  1
уровень5 В26L = 1180
  7
ISOCPEUR
 11
1700.0
 21
100.0
 31
0.0
100
AcDbText
  0
LINE
  5
24C
330
17
100
AcDbEntity
  8
0
 62
142
100
AcDbLine
 10
875.0
 20
300.0
 30
0.0
 11
875.0
 21
100.0
 31
0.0
  0
LINE
  5
24D
330
17
100
AcDbEntity
  8
0
 62
142
100
AcDbLine
 10
875.0
 20
100.0
 30
0.0
 11
1700.0
 21
100.0
 31
0.0
  0
MTEXT
  5
24E
330
17
100
AcDbEntity
  8
TEXTLAYER
100
AcDbMText
 10
930.0
 20
320.0
 30
0.0
 40
2.5
 71
1
  1
 В26\P L=60.0
  7
ISOCPEUR
  0
SOLID
  5
24F
330
17
100
AcDbEntity
  8
0
 62
142
100
AcDbTrace
 10
925.8219949186201
 20
305.0
 30
0.0
 11
925.0
 21
300.0
 31
0.0
 12
924.1780050813799
 22
305.0
 32
0.0
 13
924.1780050813799
 23
305.0
 33
0.0
  0
TEXT
  5
250
330
17
100
AcDbEntity
  8
TEXTLAYER
100
AcDbText
 10
1700.0
 20
100.0
 30
0.0
 40
2.5
  1
уровень5 В26L = 1180
  7
ISOCPEUR
 11
1700.0
 21
100.0
 31
0.0
100
AcDbText
  0
LINE
  5
251
330
17
100
AcDbEntity
  8
0
 62
142
100
AcDbLine
 10
925.0
 20
300.0
 30
0.0
 11
925.0
 21
100.0
 31
0.0
  0
LINE
  5
252
330
17
100
AcDbEntity
  8
0
 62
142
100
AcDbLine
 10
925.0
 20
100.0
 30
0.0
 11
1700.0
 21
100.0
 31
0.0
  0
MTEXT
  5
253
330
17
100
AcDbEntity
  8
TEXTLAYER
100
AcDbMText
 10
980.0
 20
320.0
 30
0.0
 40
2.5
 71
1
  1
 В25\P L=55.0
  7
ISOCPEUR
  0
SOLID
  5
254
330
17
100
AcDbEntity
  8
0
 62
180
100
AcDbTrace
 10
975.8219949186201
 20
305.0
 30
0.0
 11
975.0
 21
300.0
 31
0.0
 12
974.1780050813799
 22
305.0
 32
0.0
 13
974.1780050813799
 23
305.0
 33
0.0
  0
TEXT
  5
255
330
17
100
AcDbEntity
  8
TEXTLAYER
100
AcDbText
 10
1680.0
 20
120.0
 30
0.0
 40
2.5
  1
уровень5 В25L = 150
  7
ISOCPEUR
 11
1680.0
 21
120.0
 31
0.0
100
AcDbText
  0
LINE
  5
256
330
17
100
AcDbEntity
  8
0
 62
180
100
AcDbLine
 10
975.0
 20
300.0
 30
0.0
 11
975.0
 21
120.0
 31
0.0
  0
LINE
  5
257
330
17
100
AcDbEntity
  8
0
 62
180
100
AcDbLine
 10
975.0
 20
120.0
 30
0.0
 11
1680.0
 21
120.0
 31
0.0
  0
MTEXT
  5
258
330
17
100
AcDbEntity
  8
TEXTLAYER
100
AcDbMText
 10
1080.0
 20
320.0
 30
0.0
 40
2.5
 71
1
  1
 В25\P L=55.0
  7
ISOCPEUR
  0
SOLID
  5
259
330
17
100
AcDbEntity
  8
0
 62
180
100
AcDbTrace
 10
1075.82199491862
 20
305.0
 30
0.0
 11
1075.0
 21
300.0
 31
0.0
 12
1074.17800508138
 22
305.0
 32
0.0
 13
1074.17800508138
 23
305.0
 33
0.0
  0
TEXT
  5
25A
330
17
100
AcDbEntity
  8
TEXTLAYER
100
AcDbText
 10
1680.0
 20
120.0
 30
0.0
 40
2.5
  1
уровень5 В25L = 150
  7
ISOCPEUR
 11
1680.0
 21
120.0
 31
0.0
100
AcDbText
  0
LINE
  5
25B
330
17
100
AcDbEntity
  8
0
 62
180
100
AcDbLine
 10
1075.0
 20
300.0
 30
0.0
 11
1075.0
 21
120.0
 31
0.0
  0
LINE
  5
25C
330
17
100
AcDbEntity
  8
0
 62
180
100
AcDbLine
 10
1075.0
 20
120.0
 30
0.0
 11
1680.0
 21
120.0
 31
0.0
  0
MTEXT
  5
25D
330
17
100
AcDbEntity
  8
TEXTLAYER
100
AcDbMText
 10
1130.0
 20
320.0
 30
0.0
 40
2.5
 71
1
  1
 В26\P L=60.0
  7
ISOCPEUR
  0
SOLID
  5
25E
330
17
100
AcDbEntity
  8
0
 62
142
100
AcDbTrace
 10
1125.82199491862
 20
305.0
 30
0.0
 11
1125.0
 21
300.0
 31
0.0
 12
1124.17800508138
 22
305.0
 32
0.0
 13
1124.17800508138
 23
305.0
 33
0.0
  0
TEXT
  5
25F
330
17
100
AcDbEntity
  8
TEXTLAYER
100
AcDbText
 10
1700.0
 20
100.0
 30
0.0
 40
2.5
  1
уровень5 В26L = 1180
  7
ISOCPEUR
 11
1700.0
 21
100.0
 31
0.0
100
AcDbText
  0
LINE
  5
260
330
17
100
AcDbEntity
  8
0
 62
142
100
AcDbLine
 10
1125.0
 20
300.0
 30
0.0
 11
1125.0
 21
100.0
 31
0.0
  0
LINE
  5
261
330
17
100
AcDbEntity
  8
0
 62
142
100
AcDbLine
 10
1125.0
 20
100.0
 30
0.0
 11
1700.0
 21
100.0
 31
0.0
  0
MTEXT
  5
262
330
17
100
AcDbEntity
  8
TEXTLAYER
100
AcDbMText
 10
1180.0
 20
320.0
 30
0.0
 40
2.5
 71
1
  1
 В25\P L=40.0
  7
ISOCPEUR
  0
SOLID
  5
263
330
17
100
AcDbEntity
  8
0
 62
180
100
AcDbTrace
 10
1175.82199491862
 20
305.0
 30
0.0
 11
1175.0
 21
300.0
 31
0.0
 12
1174.17800508138
 22
305.0
 32
0.0
 13
1174.17800508138
 23
305.0
 33
0.0
  0
TEXT
  5
264
330
17
100
AcDbEntity
  8
TEXTLAYER
100
AcDbText
 10
1680.0
 20
120.0
 30
0.0
 40
2.5
  1
уровень5 В25L = 150
  7
ISOCPEUR
 11
1680.0
 21
120.0
 31
0.0
100
AcDbText
  0
LINE
  5
265
330
17
100
AcDbEntity
  8
0
 62
180
100
AcDbLine
 10
1175.0
 20
300.0
 30
0.0
 11
1175.0
 21
120.0
 31
0.0
  0
LINE
  5
266
330
17
100
AcDbEntity
  8
0
 62
180
100
AcDbLine
 10
1175.0
 20
120.0
 30
0.0
 11
1680.0
 21
120.0
 31
0.0
  0
MTEXT
  5
267
330
17
100
AcDbEntity
  8
TEXTLAYER
100
AcDbMText
 10
1380.0
 20
320.0
 30
0.0
 40
2.5
 71
1
  1
 В26\P L=40.0
  7
ISOCPEUR
  0
SOLID
  5
268
330
17
100
AcDbEntity
  8
0
 62
142
100
AcDbTrace
 10
1375.82199491862
 20
305.0
 30
0.0
 11
1375.0
 21
300.0
 31
0.0
 12
1374.17800508138
 22
305.0
 32
0.0
 13
1374.17800508138
 23
305.0
 33
0.0
  0
TEXT
  5
269
330
17
100
AcDbEntity
  8
TEXTLAYER
100
AcDbText
 10
1700.0
 20
100.0
 30
0.0
 40
2.5
  1
уровень5 В26L = 1180
  7
ISOCPEUR
 11
1700.0
 21
100.0
 31
0.0
100
AcDbText
  0
LINE
  5
26A
330
17
100
AcDbEntity
  8
0
 62
142
100
AcDbLine
 10
1375.0
 20
300.0
 30
0.0
 11
1375.0
 21
100.0
 31
0.0
  0
LINE
  5
26B
330
17
100
AcDbEntity
  8
0
 62
142
100
AcDbLine
 10
1375.0
 20
100.0
 30
0.0
 11
1700.0
 21
100.0
 31
0.0
  0
LINE
  5
26C
330
17
100
AcDbEntity
  8
0
 62
201
100
AcDbLine
 10
1820.0
 20
-20.0
 30
0.0
 11
1520.0
 21
-20.0
 31
0.0
  0
INSERT
  5
26D
330
17
100
AcDbEntity
  8
supply_air_unit
100
AcDbBlockReference
  2
supply_air_unit
 10
1820.0
 20
-20.0
 30
0.0
 41
2.0
 42
2.0
  0
TEXT
  5
26F
330
17
100
AcDbEntity
  8
TEXTLAYER
100
AcDbText
 10
1820.0
 20
-8.0
 30
0.0
 40
2.5
  1
В10 L= 1 800 m3/h
  7
ISOCPEUR
 72
1
 11
1820.0
 21
-8.0
 31
0.0
100
AcDbText
  0
LINE
  5
270
330
17
100
AcDbEntity
  8
0
 62
6
100
AcDbLine
 10
1840.0
 20
-40.0
 30
0.0
 11
1540.0
 21
-40.0
 31
0.0
  0
INSERT
  5
271
330
17
100
AcDbEntity
  8
supply_air_unit
100
AcDbBlockReference
  2
supply_air_unit
 10
1840.0
 20
-40.0
 30
0.0
 41
2.0
 42
2.0
  0
TEXT
  5
273
330
17
100
AcDbEntity
  8
TEXTLAYER
100
AcDbText
 10
1840.0
 20
-28.0
 30
0.0
 40
2.5
  1
В11 L= 2 450 m3/h
  7
ISOCPEUR
 72
1
 11
1840.0
 21
-28.0
 31
0.0
100
AcDbText
  0
LINE
  5
274
330
17
100
AcDbEntity
  8
0
 62
6
100
AcDbLine
 10
1840.0
 20
-40.0
 30
0.0
 11
1540.0
 21
-40.0
 31
0.0
  0
INSERT
  5
275
330
17
100
AcDbEntity
  8
supply_air_unit
100
AcDbBlockReference
  2
supply_air_unit
 10
1840.0
 20
-40.0
 30
0.0
 41
2.0
 42
2.0
  0
TEXT
  5
277
330
17
100
AcDbEntity
  8
TEXTLAYER
100
AcDbText
 10
1840.0
 20
-28.0
 30
0.0
 40
2.5
  1
В11 L= 2 450 m3/h
  7
ISOCPEUR
 72
1
 11
1840.0
 21
-28.0
 31
0.0
100
AcDbText
  0
LINE
  5
278
330
17
100
AcDbEntity
  8
0
 62
6
100
AcDbLine
 10
1840.0
 20
-40.0
 30
0.0
 11
1540.0
 21
-40.0
 31
0.0
  0
INSERT
  5
279
330
17
100
AcDbEntity
  8
supply_air_unit
100
AcDbBlockReference
  2
supply_air_unit
 10
1840.0
 20
-40.0
 30
0.0
 41
2.0
 42
2.0
  0
TEXT
  5
27B
330
17
100
AcDbEntity
  8
TEXTLAYER
100
AcDbText
 10
1840.0
 20
-28.0
 30
0.0
 40
2.5
  1
В11 L= 2 450 m3/h
  7
ISOCPEUR
 72
1
 11
1840.0
 21
-28.0
 31
0.0
100
AcDbText
  0
LINE
  5
27C
330
17
100
AcDbEntity
  8
0
 62
3
100
AcDbLine
 10
1860.0
 20
-60.0
 30
0.0
 11
1560.0
 21
-60.0
 31
0.0
  0
INSERT
  5
27D
330
17
100
AcDbEntity
  8
supply_air_unit
100
AcDbBlockReference
  2
supply_air_unit
 10
1860.0
 20
-60.0
 30
0.0
 41
2.0
 42
2.0
  0
TEXT
  5
27F
330
17
100
AcDbEntity
  8
TEXTLAYER
100
AcDbText
 10
1860.0
 20
-48.0
 30
0.0
 40
2.5
  1
В13 L= 2 150 m3/h
  7
ISOCPEUR
 72
1
 11
1860.0
 21
-48.0
 31
0.0
100
AcDbText
  0
LINE
  5
280
330
17
100
AcDbEntity
  8
0
 62
3
100
AcDbLine
 10
1860.0
 20
-60.0
 30
0.0
 11
1560.0
 21
-60.0
 31
0.0
  0
INSERT
  5
281
330
17
100
AcDbEntity
  8
supply_air_unit
100
AcDbBlockReference
  2
supply_air_unit
 10
1860.0
 20
-60.0
 30
0.0
 41
2.0
 42
2.0
  0
TEXT
  5
283
330
17
100
AcDbEntity
  8
TEXTLAYER
100
AcDbText
 10
1860.0
 20
-48.0
 30
0.0
 40
2.5
  1
В13 L= 2 150 m3/h
  7
ISOCPEUR
 72
1
 11
1860.0
 21
-48.0
 31
0.0
100
AcDbText
  0
LINE
  5
284
330
17
100
AcDbEntity
  8
0
 62
139
100
AcDbLine
 10
1880.0
 20
-80.0
 30
0.0
 11
1580.0
 21
-80.0
 31
0.0
  0
INSERT
  5
285
330
17
100
AcDbEntity
  8
supply_air_unit
100
AcDbBlockReference
  2
supply_air_unit
 10
1880.0
 20
-80.0
 30
0.0
 41
2.0
 42
2.0
  0
TEXT
  5
287
330
17
100
AcDbEntity
  8
TEXTLAYER
100
AcDbText
 10
1880.0
 20
-68.0
 30
0.0
 40
2.5
  1
В14 L= 2 150 m3/h
  7
ISOCPEUR
 72
1
 11
1880.0
 21
-68.0
 31
0.0
100
AcDbText
  0
LINE
  5
288
330
17
100
AcDbEntity
  8
0
 62
139
100
AcDbLine
 10
1880.0
 20
-80.0
 30
0.0
 11
1580.0
 21
-80.0
 31
0.0
  0
INSERT
  5
289
330
17
100
AcDbEntity
  8
supply_air_unit
100
AcDbBlockReference
  2
supply_air_unit
 10
1880.0
 20
-80.0
 30
0.0
 41
2.0
 42
2.0
  0
TEXT
  5
28B
330
17
100
AcDbEntity
  8
TEXTLAYER
100
AcDbText
 10
1880.0
 20
-68.0
 30
0.0
 40
2.5
  1
В14 L= 2 150 m3/h
  7
ISOCPEUR
 72
1
 11
1880.0
 21
-68.0
 31
0.0
100
AcDbText
  0
LINE
  5
28C
330
17
100
AcDbEntity
  8
0
 62
139
100
AcDbLine
 10
1880.0
 20
-80.0
 30
0.0
 11
1580.0
 21
-80.0
 31
0.0
  0
INSERT
  5
28D
330
17
100
AcDbEntity
  8
supply_air_unit
100
AcDbBlockReference
  2
supply_air_unit
 10
1880.0
 20
-80.0
 30
0.0
 41
2.0
 42
2.0
  0
TEXT
  5
28F
330
17
100
AcDbEntity
  8
TEXTLAYER
100
AcDbText
 10
1880.0
 20
-68.0
 30
0.0
 40
2.5
  1
В14 L= 2 150 m3/h
  7
ISOCPEUR
 72
1
 11
1880.0
 21
-68.0
 31
0.0
100
AcDbText
  0
LINE
  5
290
330
17
100
AcDbEntity
  8
0
 62
210
100
AcDbLine
 10
1900.0
 20
-100.0
 30
0.0
 11
1600.0
 21
-100.0
 31
0.0
  0
INSERT
  5
291
330
17
100
AcDbEntity
  8
supply_air_unit
100
AcDbBlockReference
  2
supply_air_unit
 10
1900.0
 20
-100.0
 30
0.0
 41
2.0
 42
2.0
  0
TEXT
  5
293
330
17
100
AcDbEntity
  8
TEXTLAYER
100
AcDbText
 10
1900.0
 20
-88.0
 30
0.0
 40
2.5
  1
В15 L= 2 280 m3/h
  7
ISOCPEUR
 72
1
 11
1900.0
 21
-88.0
 31
0.0
100
AcDbText
  0
LINE
  5
294
330
17
100
AcDbEntity
  8
0
 62
210
100
AcDbLine
 10
1900.0
 20
-100.0
 30
0.0
 11
1600.0
 21
-100.0
 31
0.0
  0
INSERT
  5
295
330
17
100
AcDbEntity
  8
supply_air_unit
100
AcDbBlockReference
  2
supply_air_unit
 10
1900.0
 20
-100.0
 30
0.0
 41
2.0
 42
2.0
  0
TEXT
  5
297
330
17
100
AcDbEntity
  8
TEXTLAYER
100
AcDbText
 10
1900.0
 20
-88.0
 30
0.0
 40
2.5
  1
В15 L= 2 280 m3/h
  7
ISOCPEUR
 72
1
 11
1900.0
 21
-88.0
 31
0.0
100
AcDbText
  0
LINE
  5
298
330
17
100
AcDbEntity
  8
0
 62
1
100
AcDbLine
 10
1920.0
 20
-120.0
 30
0.0
 11
1620.0
 21
-120.0
 31
0.0
  0
INSERT
  5
299
330
17
100
AcDbEntity
  8
supply_air_unit
100
AcDbBlockReference
  2
supply_air_unit
 10
1920.0
 20
-120.0
 30
0.0
 41
2.0
 42
2.0
  0
TEXT
  5
29B
330
17
100
AcDbEntity
  8
TEXTLAYER
100
AcDbText
 10
1920.0
 20
-108.0
 30
0.0
 40
2.5
  1
В17 L= 120 m3/h
  7
ISOCPEUR
 72
1
 11
1920.0
 21
-108.0
 31
0.0
100
AcDbText
  0
LINE
  5
29C
330
17
100
AcDbEntity
  8
0
 62
7
100
AcDbLine
 10
1940.0
 20
-140.0
 30
0.0
 11
1640.0
 21
-140.0
 31
0.0
  0
INSERT
  5
29D
330
17
100
AcDbEntity
  8
supply_air_unit
100
AcDbBlockReference
  2
supply_air_unit
 10
1940.0
 20
-140.0
 30
0.0
 41
2.0
 42
2.0
  0
TEXT
  5
29F
330
17
100
AcDbEntity
  8
TEXTLAYER
100
AcDbText
 10
1940.0
 20
-128.0
 30
0.0
 40
2.5
  1
В19 L= 510 m3/h
  7
ISOCPEUR
 72
1
 11
1940.0
 21
-128.0
 31
0.0
100
AcDbText
  0
LINE
  5
2A0
330
17
100
AcDbEntity
  8
0
 62
7
100
AcDbLine
 10
1940.0
 20
-140.0
 30
0.0
 11
1640.0
 21
-140.0
 31
0.0
  0
INSERT
  5
2A1
330
17
100
AcDbEntity
  8
supply_air_unit
100
AcDbBlockReference
  2
supply_air_unit
 10
1940.0
 20
-140.0
 30
0.0
 41
2.0
 42
2.0
  0
TEXT
  5
2A3
330
17
100
AcDbEntity
  8
TEXTLAYER
100
AcDbText
 10
1940.0
 20
-128.0
 30
0.0
 40
2.5
  1
В19 L= 510 m3/h
  7
ISOCPEUR
 72
1
 11
1940.0
 21
-128.0
 31
0.0
100
AcDbText
  0
LINE
  5
2A4
330
17
100
AcDbEntity
  8
0
 62
7
100
AcDbLine
 10
1940.0
 20
-140.0
 30
0.0
 11
1640.0
 21
-140.0
 31
0.0
  0
INSERT
  5
2A5
330
17
100
AcDbEntity
  8
supply_air_unit
100
AcDbBlockReference
  2
supply_air_unit
 10
1940.0
 20
-140.0
 30
0.0
 41
2.0
 42
2.0
  0
TEXT
  5
2A7
330
17
100
AcDbEntity
  8
TEXTLAYER
100
AcDbText
 10
1940.0
 20
-128.0
 30
0.0
 40
2.5
  1
В19 L= 510 m3/h
  7
ISOCPEUR
 72
1
 11
1940.0
 21
-128.0
 31
0.0
100
AcDbText
  0
LINE
  5
2A8
330
17
100
AcDbEntity
  8
0
 62
7
100
AcDbLine
 10
1940.0
 20
-140.0
 30
0.0
 11
1640.0
 21
-140.0
 31
0.0
  0
INSERT
  5
2A9
330
17
100
AcDbEntity
  8
supply_air_unit
100
AcDbBlockReference
  2
supply_air_unit
 10
1940.0
 20
-140.0
 30
0.0
 41
2.0
 42
2.0
  0
TEXT
  5
2AB
330
17
100
AcDbEntity
  8
TEXTLAYER
100
AcDbText
 10
1940.0
 20
-128.0
 30
0.0
 40
2.5
  1
В19 L= 510 m3/h
  7
ISOCPEUR
 72
1
 11
1940.0
 21
-128.0
 31
0.0
100
AcDbText
  0
LINE
  5
2AC
330
17
100
AcDbEntity
  8
0
 62
7
100
AcDbLine
 10
1940.0
 20
-140.0
 30
0.0
 11
1640.0
 21
-140.0
 31
0.0
  0
INSERT
  5
2AD
330
17
100
AcDbEntity
  8
supply_air_unit
100
AcDbBlockReference
  2
supply_air_unit
 10
1940.0
 20
-140.0
 30
0.0
 41
2.0
 42
2.0
  0
TEXT
  5
2AF
330
17
100
AcDbEntity
  8
TEXTLAYER
100
AcDbText
 10
1940.0
 20
-128.0
 30
0.0
 40
2.5
  1
В19 L= 510 m3/h
  7
ISOCPEUR
 72
1
 11
1940.0
 21
-128.0
 31
0.0
100
AcDbText
  0
LINE
  5
2B0
330
17
100
AcDbEntity
  8
0
 62
7
100
AcDbLine
 10
1940.0
 20
-140.0
 30
0.0
 11
1640.0
 21
-140.0
 31
0.0
  0
INSERT
  5
2B1
330
17
100
AcDbEntity
  8
supply_air_unit
100
AcDbBlockReference
  2
supply_air_unit
 10
1940.0
 20
-140.0
 30
0.0
 41
2.0
 42
2.0
  0
TEXT
  5
2B3
330
17
100
AcDbEntity
  8
TEXTLAYER
100
AcDbText
 10
1940.0
 20
-128.0
 30
0.0
 40
2.5
  1
В19 L= 510 m3/h
  7
ISOCPEUR
 72
1
 11
1940.0
 21
-128.0
 31
0.0
100
AcDbText
  0
LINE
  5
2B4
330
17
100
AcDbEntity
  8
0
 62
5
100
AcDbLine
 10
1960.0
 20
-160.0
 30
0.0
 11
1660.0
 21
-160.0
 31
0.0
  0
INSERT
  5
2B5
330
17
100
AcDbEntity
  8
supply_air_unit
100
AcDbBlockReference
  2
supply_air_unit
 10
1960.0
 20
-160.0
 30
0.0
 41
2.0
 42
2.0
  0
TEXT
  5
2B7
330
17
100
AcDbEntity
  8
TEXTLAYER
100
AcDbText
 10
1960.0
 20
-148.0
 30
0.0
 40
2.5
  1
В20 L= 120 m3/h
  7
ISOCPEUR
 72
1
 11
1960.0
 21
-148.0
 31
0.0
100
AcDbText
  0
LINE
  5
2B8
330
17
100
AcDbEntity
  8
0
 62
180
100
AcDbLine
 10
1680.0
 20
0.0
 30
0.0
 11
1680.0
 21
120.0
 31
0.0
  0
INSERT
  5
2B9
330
17
100
AcDbEntity
  8
supply_air_unit
100
AcDbBlockReference
  2
supply_air_unit
 10
1680.0
 20
0.0
 30
0.0
 41
2.0
 42
2.0
  0
TEXT
  5
2BB
330
17
100
AcDbEntity
  8
TEXTLAYER
100
AcDbText
 10
1680.0
 20
12.0
 30
0.0
 40
2.5
  1
В25 L= 150 m3/h
  7
ISOCPEUR
 72
1
 11
1680.0
 21
12.0
 31
0.0
100
AcDbText
  0
LINE
  5
2BC
330
17
100
AcDbEntity
  8
0
 62
142
100
AcDbLine
 10
1700.0
 20
0.0
 30
0.0
 11
1700.0
 21
100.0
 31
0.0
  0
INSERT
  5
2BD
330
17
100
AcDbEntity
  8
supply_air_unit
100
AcDbBlockReference
  2
supply_air_unit
 10
1700.0
 20
0.0
 30
0.0
 41
2.0
 42
2.0
  0
TEXT
  5
2BF
330
17
100
AcDbEntity
  8
TEXTLAYER
100
AcDbText
 10
1700.0
 20
12.0
 30
0.0
 40
2.5
  1
В26 L= 1 180 m3/h
  7
ISOCPEUR
 72
1
 11
1700.0
 21
12.0
 31
0.0
100
AcDbText
  0
LINE
  5
2C0
330
17
100
AcDbEntity
  8
0
 62
201
100
AcDbLine
 10
2000.0
 20
500.0
 30
0.0
 11
2100.0
 21
500.0
 31
0.0
  0
TEXT
  5
2C1
330
17
100
AcDbEntity
  8
TEXTLAYER
100
AcDbText
 10
2120.0
 20
500.0
 30
0.0
 40
2.5
  1
В10
  7
ISOCPEUR
 11
2120.0
 21
500.0
 31
0.0
100
AcDbText
  0
LINE
  5
2C2
330
17
100
AcDbEntity
  8
0
 62
6
100
AcDbLine
 10
2000.0
 20
480.0
 30
0.0
 11
2100.0
 21
480.0
 31
0.0
  0
TEXT
  5
2C3
330
17
100
AcDbEntity
  8
TEXTLAYER
100
AcDbText
 10
2120.0
 20
480.0
 30
0.0
 40
2.5
  1
В11
  7
ISOCPEUR
 11
2120.0
 21
480.0
 31
0.0
100
AcDbText
  0
LINE
  5
2C4
330
17
100
AcDbEntity
  8
0
 62
3
100
AcDbLine
 10
2000.0
 20
460.0
 30
0.0
 11
2100.0
 21
460.0
 31
0.0
  0
TEXT
  5
2C5
330
17
100
AcDbEntity
  8
TEXTLAYER
100
AcDbText
 10
2120.0
 20
460.0
 30
0.0
 40
2.5
  1
В13
  7
ISOCPEUR
 11
2120.0
 21
460.0
 31
0.0
100
AcDbText
  0
LINE
  5
2C6
330
17
100
AcDbEntity
  8
0
 62
139
100
AcDbLine
 10
2000.0
 20
440.0
 30
0.0
 11
2100.0
 21
440.0
 31
0.0
  0
TEXT
  5
2C7
330
17
100
AcDbEntity
  8
TEXTLAYER
100
AcDbText
 10
2120.0
 20
440.0
 30
0.0
 40
2.5
  1
В14
  7
ISOCPEUR
 11
2120.0
 21
440.0
 31
0.0
100
AcDbText
  0
LINE
  5
2C8
330
17
100
AcDbEntity
  8
0
 62
210
100
AcDbLine
 10
2000.0
 20
420.0
 30
0.0
 11
2100.0
 21
420.0
 31
0.0
  0
TEXT
  5
2C9
330
17
100
AcDbEntity
  8
TEXTLAYER
100
AcDbText
 10
2120.0
 20
420.0
 30
0.0
 40
2.5
  1
В15
  7
ISOCPEUR
 11
2120.0
 21
420.0
 31
0.0
100
AcDbText
  0
LINE
  5
2CA
330
17
100
AcDbEntity
  8
0
 62
1
100
AcDbLine
 10
2000.0
 20
400.0
 30
0.0
 11
2100.0
 21
400.0
 31
0.0
  0
TEXT
  5
2CB
330
17
100
AcDbEntity
  8
TEXTLAYER
100
AcDbText
 10
2120.0
 20
400.0
 30
0.0
 40
2.5
  1
В17
  7
ISOCPEUR
 11
2120.0
 21
400.0
 31
0.0
100
AcDbText
  0
LINE
  5
2CC
330
17
100
AcDbEntity
  8
0
 62
7
100
AcDbLine
 10
2000.0
 20
380.0
 30
0.0
 11
2100.0
 21
380.0
 31
0.0
  0
TEXT
  5
2CD
330
17
100
AcDbEntity
  8
TEXTLAYER
100
AcDbText
 10
2120.0
 20
380.0
 30
0.0
 40
2.5
  1
В19
  7
ISOCPEUR
 11
2120.0
 21
380.0
 31
0.0
100
AcDbText
  0
LINE
  5
2CE
330
17
100
AcDbEntity
  8
0
 62
5
100
AcDbLine
 10
2000.0
 20
360.0
 30
0.0
 11
2100.0
 21
360.0
 31
0.0
  0
TEXT
  5
2CF
330
17
100
AcDbEntity
  8
TEXTLAYER
100
AcDbText
 10
2120.0
 20
360.0
 30
0.0
 40
2.5
  1
В20
  7
ISOCPEUR
 11
2120.0
 21
360.0
 31
0.0
100
AcDbText
  0
LINE
  5
2D0
330
17
100
AcDbEntity
  8
0
 62
180
100
AcDbLine
 10
2000.0
 20
340.0
 30
0.0
 11
2100.0
 21
340.0
 31
0.0
  0
TEXT
  5
2D1
330
17
100
AcDbEntity
  8
TEXTLAYER
100
AcDbText
 10
2120.0
 20
340.0
 30
0.0
 40
2.5
  1
В25
  7
ISOCPEUR
 11
2120.0
 21
340.0
 31
0.0
100
AcDbText
  0
LINE
  5
2D2
330
17
100
AcDbEntity
  8
0
 62
142
100
AcDbLine
 10
2000.0
 20
320.0
 30
0.0
 11
2100.0
 21
320.0
 31
0.0
  0
TEXT
  5
2D3
330
17
100
AcDbEntity
  8
TEXTLAYER
100
AcDbText
 10
2120.0
 20
320.0
 30
0.0
 40
2.5
  1
В26
  7
ISOCPEUR
 11
2120.0
 21
320.0
 31
0.0
100
AcDbText
  0
LINE
  5
2D4
330
17
100
AcDbEntity
  8
0
 62
241
100
AcDbLine
 10
2000.0
 20
300.0
 30
0.0
 11
2100.0
 21
300.0
 31
0.0
  0
TEXT
  5
2D5
330
17
100
AcDbEntity
  8
TEXTLAYER
100
AcDbText
 10
2120.0
 20
300.0
 30
0.0
 40
2.5
  1
П1
  7
ISOCPEUR
 11
2120.0
 21
300.0
 31
0.0
100
AcDbText
  0
LINE
  5
2D6
330
17
100
AcDbEntity
  8
0
 62
6
100
AcDbLine
 10
2000.0
 20
280.0
 30
0.0
 11
2100.0
 21
280.0
 31
0.0
  0
TEXT
  5
2D7
330
17
100
AcDbEntity
  8
TEXTLAYER
100
AcDbText
 10
2120.0
 20
280.0
 30
0.0
 40
2.5
  1
П2
  7
ISOCPEUR
 11
2120.0
 21
280.0
 31
0.0
100
AcDbText
  0
LINE
  5
2D8
330
17
100
AcDbEntity
  8
0
 62
211
100
AcDbLine
 10
2000.0
 20
260.0
 30
0.0
 11
2100.0
 21
260.0
 31
0.0
  0
TEXT
  5
2D9
330
17
100
AcDbEntity
  8
TEXTLAYER
100
AcDbText
 10
2120.0
 20
260.0
 30
0.0
 40
2.5
  1
П8
  7
ISOCPEUR
 11
2120.0
 21
260.0
 31
0.0
100
AcDbText
  0
ENDSEC
  0
SECTION
  2
OBJECTS
  0
DICTIONARY
  5
A
330
0
100
AcDbDictionary
280
0
281
1
  3
ACAD_COLOR
350
B
  3
ACAD_GROUP
350
C
  3
ACAD_LAYOUT
350
D
  3
ACAD_MATERIAL
350
E
  3
ACAD_MLEADERSTYLE
350
F
  3
ACAD_MLINESTYLE
350
10
  3
ACAD_PLOTSETTINGS
350
11
  3
ACAD_PLOTSTYLENAME
350
12
  3
ACAD_SCALELIST
350
14
  3
ACAD_TABLESTYLE
350
15
  3
ACAD_VISUALSTYLE
350
16
  3
EZDXF_META
350
2D
  0
DICTIONARY
  5
B
330
A
100
AcDbDictionary
280
0
281
1
  0
DICTIONARY
  5
C
330
A
100
AcDbDictionary
280
0
281
1
  0
DICTIONARY
  5
D
330
A
100
AcDbDictionary
280
0
281
1
  3
Model
350
1A
  3
Layout1
350
1E
  0
DICTIONARY
  5
E
330
A
100
AcDbDictionary
280
0
281
1
  3
ByBlock
350
1F
  3
ByLayer
350
20
  3
Global
350
21
  0
DICTIONARY
  5
F
330
A
100
AcDbDictionary
280
0
281
1
  3
Standard
350
2C
  0
DICTIONARY
  5
10
330
A
100
AcDbDictionary
280
0
281
1
  3
Standard
350
22
  0
DICTIONARY
  5
11
330
A
100
AcDbDictionary
280
0
281
1
  0
ACDBDICTIONARYWDFLT
  5
12
330
A
100
AcDbDictionary
280
0
281
1
  3
Normal
350
13
100
AcDbDictionaryWithDefault
340
13
  0
ACDBPLACEHOLDER
  5
13
330
12
  0
DICTIONARY
  5
14
330
A
100
AcDbDictionary
280
0
281
1
  0
DICTIONARY
  5
15
330
A
100
AcDbDictionary
280
0
281
1
  0
DICTIONARY
  5
16
330
A
100
AcDbDictionary
280
0
281
1
  0
LAYOUT
  5
1A
330
D
100
AcDbPlotSettings
  1

  4
A3
  6

 40
7.5
 41
20.0
 42
7.5
 43
20.0
 44
420.0
 45
297.0
 46
0.0
 47
0.0
 48
0.0
 49
0.0
140
0.0
141
0.0
142
1.0
143
1.0
 70
1024
 72
1
 73
0
 74
5
  7

 75
16
 76
0
 77
2
 78
300
147
1.0
148
0.0
149
0.0
100
AcDbLayout
  1
Model
 70
1
 71
0
 10
0.0
 20
0.0
 11
420.0
 21
297.0
 12
0.0
 22
0.0
 32
0.0
 14
1e+20
 24
1e+20
 34
1e+20
 15
-1e+20
 25
-1e+20
 35
-1e+20
146
0.0
 13
0.0
 23
0.0
 33
0.0
 16
1.0
 26
0.0
 36
0.0
 17
0.0
 27
1.0
 37
0.0
 76
1
330
17
  0
LAYOUT
  5
1E
330
D
100
AcDbPlotSettings
  1

  4
A3
  6

 40
7.5
 41
20.0
 42
7.5
 43
20.0
 44
420.0
 45
297.0
 46
0.0
 47
0.0
 48
0.0
 49
0.0
140
0.0
141
0.0
142
1.0
143
1.0
 70
0
 72
1
 73
0
 74
5
  7

 75
16
 76
0
 77
2
 78
300
147
1.0
148
0.0
149
0.0
100
AcDbLayout
  1
Layout1
 70
1
 71
1
 10
0.0
 20
0.0
 11
420.0
 21
297.0
 12
0.0
 22
0.0
 32
0.0
 14
1e+20
 24
1e+20
 34
1e+20
 15
-1e+20
 25
-1e+20
 35
-1e+20
146
0.0
 13
0.0
 23
0.0
 33
0.0
 16
1.0
 26
0.0
 36
0.0
 17
0.0
 27
1.0
 37
0.0
 76
1
330
1B
  0
MATERIAL
  5
1F
102
{ACAD_REACTORS
330
E
102
}
330
E
100
AcDbMaterial
  1
ByBlock
  2

 70
0
 40
1.0
 71
1
 41
1.0
 91
-1023410177
 42
1.0
 72
1
  3

 73
1
 74
1
 75
1
 44
0.5
 73
0
 45
1.0
 46
1.0
 77
1
  4

 78
1
 79
1
170
1
 48
1.0
171
1
  6

172
1
173
1
174
1
140
1.0
141
1.0
175
1
  7

176
1
177
1
178
1
143
1.0
179
1
  8

270
1
271
1
272
1
145
1.0
146
1.0
273
1
  9

274
1
275
1
276
1
 42
1.0
 72
1
  3

 73
1
 74
1
 75
1
 94
63
  0
MATERIAL
  5
20
102
{ACAD_REACTORS
330
E
102
}
330
E
100
AcDbMaterial
  1
ByLayer
  2

 70
0
 40
1.0
 71
1
 41
1.0
 91
-1023410177
 42
1.0
 72
1
  3

 73
1
 74
1
 75
1
 44
0.5
 73
0
 45
1.0
 46
1.0
 77
1
  4

 78
1
 79
1
170
1
 48
1.0
171
1
  6

172
1
173
1
174
1
140
1.0
141
1.0
175
1
  7

176
1
177
1
178
1
143
1.0
179
1
  8

270
1
271
1
272
1
145
1.0
146
1.0
273
1
  9

274
1
275
1
276
1
 42
1.0
 72
1
  3

 73
1
 74
1
 75
1
 94
63
  0
MATERIAL
  5
21
102
{ACAD_REACTORS
330
E
102
}
330
E
100
AcDbMaterial
  1
Global
  2

 70
0
 40
1.0
 71
1
 41
1.0
 91
-1023410177
 42
1.0
 72
1
  3

 73
1
 74
1
 75
1
 44
0.5
 73
0
 45
1.0
 46
1.0
 77
1
  4

 78
1
 79
1
170
1
 48
1.0
171
1
  6

172
1
173
1
174
1
140
1.0
141
1.0
175
1
  7

176
1
177
1
178
1
143
1.0
179
1
  8

270
1
271
1
272
1
145
1.0
146
1.0
273
1
  9

274
1
275
1
276
1
 42
1.0
 72
1
  3

 73
1
 74
1
 75
1
 94
63
  0
MLINESTYLE
  5
22
102
{ACAD_REACTORS
330
10
102
}
330
10
100
AcDbMlineStyle
  2
Standard
 70
0
  3

 62
256
 51
90.0
 52
90.0
 71
2
 49
0.5
 62
256
  6
BYLAYER
 49
-0.5
 62
256
  6
BYLAYER
  0
MLEADERSTYLE
  5
2C
102
{ACAD_REACTORS
330
F
102
}
330
F
100
AcDbMLeaderStyle
179
2
170
2
171
1
172
0
 90
2
 40
0.0
 41
0.0
173
1
 91
-1056964608
 92
-2
290
1
 42
2.0
291
1
 43
8.0
  3
Standard
 44
4.0
300

342
29
174
1
175
1
176
0
178
1
 93
-1056964608
 45
4.0
292
0
297
0
 46
4.0
 94
-1056964608
 47
1.0
 49
1.0
140
1.0
294
1
141
0.0
177
0
142
1.0
295
0
296
0
143
3.75
271
0
272
9
273
9
  0
DICTIONARY
  5
2D
330
A
100
AcDbDictionary
281
1
  3
CREATED_BY_EZDXF
350
2E
  3
WRITTEN_BY_EZDXF
350
2DC
  0
DICTIONARYVAR
  5
2E
330
2D
100
DictionaryVariables
280
0
  1
1.3.3 @ 2024-09-01T12:15:28.007990+00:00
  0
DICTIONARYVAR
  5
2DC
330
2D
100
DictionaryVariables
280
0
  1
1.3.3 @ 2024-09-01T12:15:32.781228+00:00
  0
ENDSEC
  0
EOF
